<svg id="Layer_1" data-name="Layer 1" xmlns="http://www.w3.org/2000/svg" xmlns:xlink="http://www.w3.org/1999/xlink" viewBox="0 0 4450.39 4450.39"><defs><style>.cls-1{fill:none;}.cls-2{clip-path:url(#clip-path);}.cls-3{fill:#abcb56;}</style><clipPath id="clip-path"><rect class="cls-1" width="4450.39" height="4450.39"/></clipPath></defs><title>большие_гастроли</title><g class="cls-2"><path class="cls-3" d="M2341.34,3113.89c.1-12-1.88-20.26-6-24.83s-12.16-7.39-24.07-8.31l-.43,64.59c11.91-.78,20-3.34,24.18-7.84s6.25-12.24,6.32-23.61"/><path class="cls-3" d="M2385.15,3438.22c-8.17-.07-13.74,2.89-16.62,8.78s-4.41,17.39-4.51,34.52,1.17,28.54,4.05,34.48,8.3,8.93,16.47,9c8.45.07,14.15-2.89,17.13-8.77s4.48-17.38,4.6-34.42-1.22-28.63-4.12-34.57-8.58-9-17-9"/><path class="cls-3" d="M2531.43,3256.66c-9.62-.07-16,2.91-19.59,8.8s-5.33,17.34-5.43,34,1.48,28,5,34.05,9.88,9.08,19.47,9.15,16-2.93,19.53-8.85,5.27-17.29,5.39-34-1.5-28.07-4.93-34.09-9.92-9-19.4-9.06"/><path class="cls-3" d="M2785,3075.22l-.26,39.53,19.4.14c7.4-.09,12.27-1.46,14.87-4.14s3.88-7.89,3.93-15.75-1.18-13-3.72-15.69-7.42-4.12-14.82-4.17Z"/><path class="cls-3" d="M903.09,2576.73l-.12,16.32c-.16,25.68,15.46,38.55,46.8,38.78q42.32.28,93.45-32.07l.4-59.57-99.93-.69c-26.9.43-40.45,12.9-40.6,37.23"/><path class="cls-3" d="M2410.32,3255.47l-19.33,0-.28,39.55,19.35.12q11-.11,14.94-4.13c2.54-2.67,3.88-7.9,3.93-15.7s-1.2-13-3.7-15.77-7.57-4.05-14.91-4.1"/><path class="cls-3" d="M2504.86,2393.49q-39.39-.25-89.56,29.16l-1.41,206.57q54.65,16.83,83.54,17,39.34.26,54-23.14,14.51-23.48,15-102.29.51-77.85-12.74-102.43t-48.9-24.83"/><path class="cls-3" d="M2285.3,3145.19l.45-64.59q-17.86,1-24.19,7.8c-4.21,4.57-6.29,12.86-6.38,24.92-.07,11.48,1.91,19.44,6.05,23.8s12.16,7.12,24.07,8.07"/><path class="cls-3" d="M3349.58,3263.15l-5,0c-.2,1.17-.67,3.12-1.32,5.81s-1.12,4.68-1.48,6l-10.88,38.53,31.4.24-10.22-38.7a119.88,119.88,0,0,1-2.5-11.88"/><path class="cls-3" d="M3883.14,1832.6c-9.2-6.46-26.07-9.77-50.44-9.94-30-.82-50.8,4.47-62,15.94s-17.74,35.71-19.18,72.86l98,.65c19.87.12,32.7-2.79,38.53-8.85s8.73-17.1,8.84-33.07q.18-27.87-13.72-37.59"/><path class="cls-3" d="M872.07,2064.89q44.17.29,59.23-24.6t15.61-102.74q.54-78.81-14.22-104.36t-58.86-25.85q-45.29-.3-60.26,25c-10.1,16.92-15.22,51.59-15.6,104.17q-.54,77.88,14.17,102.93t59.93,25.41"/><path class="cls-3" d="M2918.93,3077.26l-5,0c-.24,1.19-.6,3.15-1.26,5.81s-1.17,4.65-1.53,6l-10.84,38.56,31.47.21-10.4-38.7c-1.37-6-2.24-10-2.46-11.84"/><path class="cls-3" d="M403.51,1968.46q.33-49.93-14.92-66.43c-10.21-10.94-31.9-16.56-65.28-16.78l-81.7-.57-1.13,164.38,81.75.55c33.36.22,55.09-4.72,65.44-14.87s15.61-32.28,15.84-66.28"/><path class="cls-3" d="M2010.74,2063.05c8.14-7,12.2-21.75,12.36-44.13s-3.71-37.24-11.76-44.31-24.07-10.75-48.4-10.9l-53.9-.37-.73,109.62,53.89.36c24.35.15,40.49-3.33,48.54-10.27"/><path class="cls-3" d="M2556.18,3076.31c-1.73,1.63-2.69,4.41-2.92,8.24-1.56,17.74-3.63,32.24-6.13,43.59a137.86,137.86,0,0,1-11,31.54l43.73.31.57-86-16.26-.1c-3.73,0-6.29.74-8,2.41"/><path class="cls-3" d="M3426.33,3080.72l-5,0c-.27,1.17-.69,3.15-1.29,5.8s-1.21,4.67-1.55,6L3407.65,3131l31.45.2-10.27-38.68a111.36,111.36,0,0,1-2.5-11.84"/><path class="cls-3" d="M2876.37,3259.93l-4.93,0c-.26,1.15-.67,3.13-1.29,5.82s-1.12,4.67-1.49,6l-10.94,38.54,31.5.21-10.35-38.68c-1.4-6.1-2.24-10.08-2.5-11.88"/><path class="cls-3" d="M3531.78,3097.88c-.05,6.9,1.26,11.82,3.86,14.6s7.32,4.32,14.16,4.37l19,.14.24-36.41-19-.38c-6.92,0-11.63,1.17-14.2,3.57s-3.87,7.13-4.06,14.11"/><path class="cls-3" d="M3780.68,2056.35q20.59,15,67.7,15.4,87.59.57,186.53-10.34l15.63,106.82q-80.05,39.84-223.28,38.86-141.32-1-200.93-61t-58.74-188.74q.94-140.31,60.34-197.08,59.61-56.74,199.9-55.82,125.85.85,181.83,43t55.42,127.67q.33,67.41-37.69,97.86-38.17,30.54-129.55,29.88l-144.15-1c4.33,26.21,13.26,44.37,27,54.46m53.71,705.7-173.92-1.19,2.43-361.44-41.31-.28c-27.64-.19-42.72,13.13-45.49,40.08q-17.25,142.11-30.16,200.69-27.09,156.43-220,123.41l-16.48-128c3.28-.52,8.91-1.26,16.85-2.21a143.43,143.43,0,0,0,15.86-2.27c2.62-.62,6.93-1.76,13-3.35s10.37-3,12.51-4.67c2.31-1.62,5.38-3.81,9.2-6.7a26.85,26.85,0,0,0,8.72-10.46,72.86,72.86,0,0,0,4.89-13.94q14.79-50.85,26.3-187.24,11.4-123,132.53-122.14l288.3,1.94Zm-238.2,425-27.86-.19.32-48.49-18.45-.12c-7,0-11.44,3.55-13.06,10.74l-9.62,37.62-29.24-.21,10.49-38.55c2.45-10.49,8.81-16.63,19.13-18.51l-.16-1.12q-13-1.76-18.47-9.75c-3.74-5.31-5.51-12.87-5.44-22.63q.12-20.46,10.73-28.82c7-5.59,18.63-8.26,34.83-8.16q30.78.21,47.65,1.94Zm-142.29-1-8.94-33.21-43.32-.27-9.37,33.07-28.54-.19,37.25-118.7a8.51,8.51,0,0,1,3.5-5.25,10.26,10.26,0,0,1,6.26-2l26.28.17c5.29,0,8.48,2.52,9.68,7.41l35.64,119.18Zm-76.75,182.43-8.92-33.18-43.38-.3-9.34,33.07-28.5-.21,37.14-118.64a9,9,0,0,1,3.6-5.29,10.47,10.47,0,0,1,6.22-2l26.35.2c5.25,0,8.42,2.5,9.6,7.45l35.6,119.12Zm-105.94-183.65-27.76-.21.84-126.28,27.8.21-.33,48.34,44.46.31.33-48.34,28,.17-.84,126.28-28-.19.38-56.38-44.46-.3Zm-29.33,182.72-3.29-104.46-3.29,0-19.58,78c-1.26,6-5,9-11.25,8.92l-18.32-.12c-6.19,0-10-3.08-11.41-9.08l-18.69-78.2-3.1,0-4.45,104.42-26.14-.17,5.41-115.78c.22-6.95,3.79-10.46,10.46-10.39l26.86.17c5.86,0,9.57,3.12,11,9.06L3191,3312.9c.45,2.42,1.14,5.85,1.84,10.27.85,4.38,1.19,6.91,1.26,7.52l2.43,0c.16-.6.6-3.13,1.45-7.51s1.45-7.86,2-10.24l15.61-62.86c1.35-5.94,5.19-9,11.41-8.92l26.85.17c6.58,0,10.1,3.62,10.44,10.54l3.93,115.84Zm-171.12-1.15-3.3-104.48-3.31,0-19.58,77.95c-1.33,6-5,9-11.22,9l-18.26-.12c-6.17,0-10.08-3.09-11.5-9.08l-18.71-78.24h-3.09l-4.36,104.42-26.17-.17,5.39-115.8c.35-6.93,3.83-10.41,10.48-10.37l26.92.19c5.82,0,9.49,3.1,10.92,9.06l14.94,63.07c.43,2.41,1,5.82,1.86,10.25s1.19,6.95,1.26,7.53l2.34,0a76.42,76.42,0,0,0,1.52-7.51c.81-4.41,1.52-7.83,1.93-10.24l15.66-62.86c1.44-5.93,5.19-9,11.4-8.91l26.91.17c6.55.05,10,3.6,10.32,10.53l4,115.85Zm-133.13-217-43.34-.3-9.41,33.09-28.52-.19,37.26-118.69a8.58,8.58,0,0,1,3.53-5.28,10.38,10.38,0,0,1,6.24-2l26.31.18c5.27,0,8.5,2.51,9.65,7.41l35.55,119.17-28.33-.19ZM2904,3365.29l-8.9-33.21-43.38-.27-9.41,33-28.46-.19L2851.05,3246a9,9,0,0,1,3.5-5.29,10.6,10.6,0,0,1,6.24-2l26.35.17c5.31,0,8.46,2.53,9.65,7.46l35.62,119.16Zm-105.09-54.85c-6.19,5.88-17.24,8.67-33.11,8.56a183.71,183.71,0,0,1-23.78-1.67l-.31,46.84-28-.19.86-126.28c11.36-.93,27.39-1.38,48.17-1.24q26.34.18,36.08,8.83c6.46,5.79,9.69,16.68,9.57,32.65s-3.28,26.78-9.46,32.5m-107.1-50.87-43.38-.29c-3.49,0-6.08.7-7.6,2.19s-2.24,4.13-2.27,7.78l-.64,94.21-28.05-.19.69-99.86c.05-7.94,2.63-14.4,7.63-19.37s11.44-7.37,19.06-7.32q39.53.26,56,2.36Zm-203.27,91.33q-11.68-14.15-11.45-51.64t12.14-51.39q11.94-14,42.33-13.77c20.24.14,34.25,5,42.14,14.36s11.63,26.53,11.44,51.54-4.15,42.16-12.17,51.45-22.09,13.84-42.32,13.67-34.29-4.9-42.11-14.22m-74.22-34.27a185,185,0,0,1-23.77-1.69l-.31,46.83-28-.19.84-126.27c11.41-.95,27.42-1.4,48.13-1.26q26.4.18,36,8.84c6.58,5.79,9.73,16.68,9.63,32.64s-3.26,26.83-9.44,32.55-17.22,8.65-33.12,8.55m-81.8,44.75-27.82-.19.74-106.1-44.32-.29-.72,106.08-27.8-.19.86-126.26,99.92.67Zm-92.47-288.67c8.6-7.95,23.5-12.36,44.56-13.36l.14-16.45,28,.18-.12,16.46q31.63,1.92,44.41,14c8.46,8,12.74,21.52,12.68,40.56-.2,18.44-4.65,31.52-13.15,39.29s-23.4,12.17-44.66,13.18l-.11,16.49-28-.19.11-16.49q-31.59-1.83-44.38-13.73c-8.49-7.91-12.61-21.08-12.49-39.51.14-19,4.45-32.54,13-40.41m230.15,30.86-.14,20.21-50.25-.33-.17,24.27c0,3.43.59,5.89,1.9,7.36s3.51,2.2,6.58,2.22l48.63.33,1,20.52q-17,1.71-58.48,1.46c-8.48-.06-15.18-2.44-20.13-7.06s-7.43-10.82-7.37-18.58l.51-76.47c0-7.84,2.64-14,7.72-18.53s11.79-6.82,20.15-6.75q41.49.26,58.45,2.26l-1.26,20.66-48.61-.33c-3.07,0-5.27.65-6.6,2.12s-2,3.88-2,7.12l-.13,19.19Zm153.9,56.71-.33,47.77-19.83-.16-1.91-27.62-83.67-.57-2.39,27.61-19.78-.14.34-47.75,13.37.08q13.17-32.28,17-79.66,1-11.91,8.93-19c5.31-4.85,12.15-7.19,20.69-7.12l51.86.36-.73,106.12Zm77.13-446.83q-44.22,53.07-138.3,52.37-96.16-.65-152.58-44.3a788.4,788.4,0,0,1,2.17,103.84l-.7,104.75-173.94-1.17,4.46-655.51,140.29,1,12.94,67.45q26.28-33.49,76.89-55.75a257.92,257.92,0,0,1,106.32-21.85Q2748,2265.4,2746.28,2521q-.93,139.35-45,192.43m22.94,391.86-.14,20.21-50.28-.34-.17,24.26c0,3.41.63,5.89,2,7.39s3.48,2.16,6.55,2.19l48.77.33.89,20.54c-11.37,1.1-30.88,1.62-58.57,1.43-8.39-.05-15.11-2.43-20.09-7.05s-7.4-10.82-7.33-18.59l.5-76.48c0-7.82,2.66-14,7.69-18.52s11.8-6.79,20.11-6.72c27.69.19,47.16.91,58.54,2.26l-1.19,20.66-48.75-.33c-3,0-5.26.65-6.6,2.08s-2,3.9-2,7.14l-.13,19.18ZM2238,1707l168.25,1.17-2.46,360.49,113.41.76,2.46-360.47,153.71,1-2.43,360.51,114.39.76,2.41-360.48,168.27,1.14-3.24,477.69-718-4.86Zm612.88,1388.26c-.1,16-3.27,26.87-9.36,32.59-6.27,5.8-17.26,8.61-33.19,8.48a191.73,191.73,0,0,1-23.78-1.61l-.31,46.82-27.93-.19.88-126.24c11.32-1,27.31-1.43,48.09-1.29,17.55.12,29.56,3.1,36.07,8.82s9.63,16.7,9.53,32.62m203.81-18c-7.14,0-11.05,3.47-11.55,10.5q-2.58,28.43-4.82,43.16a113.32,113.32,0,0,1-6.48,25.42c-7.53,20.66-21.67,29.69-42.09,27.19l-1.84-21.61c4.76-.89,8.58-2.2,11.43-4.13a18.86,18.86,0,0,0,6.75-9.12,113.47,113.47,0,0,0,5.86-23.47c1.36-9.2,2.88-22.83,4.45-40.89,1.48-18.28,11.47-27.37,29.84-27.23l52.7.35-.85,126.26-28-.19.71-106.14Zm-18.63-309.11q-141.39-.95-199.09-57.64-57.73-56.52-56.78-194,1-138.36,59.45-195.13t199.86-55.87q140.31.93,198.07,58.56t56.83,195.94q-.95,137.53-59.48,193.28t-198.86,54.91m138.68,336.67q26,.15,35.9,9.06c6.67,5.84,9.91,16.54,9.8,32q-.15,22.84-9.56,31.43c-6.34,5.67-16.91,8.48-31.88,8.37-22-.14-38.95-.76-50.53-1.81h-.7l.88-126.25,27.76.18-.31,46.87Zm-148.5-1392.45,154.69,1.06-1.55,224.92c-.11,16.69-2.57,41.34-7.15,74l3.74,0q11.78-31.63,37-69.95l153.45-227.77,151.86,1L3515,2194.36l-155.69-1.05,1.47-214.32q.18-28.77,7.3-84.54l-3.87,0q-13.76,40.29-39,79.57l-150.49,217.08L3023,2190Zm-819.55,692.58-150.94-1-2.34,346-173.94-1.16,2.34-346L1730,2401.64l.91-131.7,476.68,3.25Zm-694.91,352.83q-136.58-.93-191.34-57.57-54.93-56.53-54-195,.94-138.34,57.61-194.62t193-55.47q117.18.79,189.18,34l-19.09,108.44-141.29-1.86c-36.5-.24-61.78,7.22-75.58,22.55s-21,44.7-21.27,88.2,6.38,73.11,20.08,88.62,38.77,23.33,75.24,23.57q84.57.6,151-6.7L1710,2722.52q-73.41,36.14-198.26,35.22m-350.67-575.57-16.44-127.89c3.24-.62,8.84-1.42,16.87-2.28s13.2-1.69,15.82-2.38,6.92-1.63,12.94-3.2,10.29-3.17,12.61-4.72,5.36-3.84,9.2-6.72a27.59,27.59,0,0,0,8.72-10.48,78.34,78.34,0,0,0,4.86-13.91q14.76-50.79,26.3-187.24,11.34-122.88,132.53-122.21l288.21,2-3.26,477.69-173.87-1.17,2.45-361.35-41.27-.28q-41.31-.26-45.46,40-17.43,142.17-30.31,200.72-26.88,156.38-219.9,123.41m56.07,562.06-139.39-.95L1062,2673q-67.87,82.2-170.65,81.49-69.26-.49-114.66-36.83t-45-100.77l.32-48c.25-37.76,14.1-67.53,41.38-89.07,27.54-21.59,64.88-32.26,112.27-31.92l158.59,1,.06-11.51c-.5-20.45-5.37-34.81-14.59-42.89s-26.42-12.22-51.3-12.39q-93.24-.64-204.77,5.4L759,2273.92a1405.57,1405.57,0,0,1,261.57-22.25q101,.7,150.19,42.84t48.48,145ZM717.81,2392.78l-192.19-1.29c-13.46-.09-23.13,2.64-28.9,8.08s-8.72,14.48-8.81,27.25l-2.14,312.43-173-1.19,2.46-363.34q.45-61.54,32.83-91t99.69-29.14q200.93,1.36,278.63,16.34Zm-43-652.64q58.58-56.75,199.86-55.82,140.25,1,198,58.52t56.81,196q-.93,137.46-59.45,193.3T871.26,2187q-141.42-.95-199.1-57.57t-56.82-194.1q1-138.29,59.47-195.15m1068.8-36.55,167.18,1.15-1.06,156.71,53.9.36q134.46.92,184.8,35.85T2198,2026.83q-.64,92.25-48.46,127.51t-158.4,34.49q-159.48-1.07-246-7.5l-4.82,0Zm2706.73,536.76c8.38-1228.9-981.12-2231.93-2210-2240.3C1258.47-6.62,420.84,623.69,119.52,1504.13q96.75-3.93,181.44-3.5,116.31.8,242.1,9.32l-14.29,132.57-285.52-2-.88,129.72,81.75.56q147.15,1,204,44.66t56.07,159.93q-.85,121.18-58.29,163-57.47,42-190.15,41-173-1.18-271.87-9.56l-4.86,0,3.21-469.07A2232,2232,0,0,0,.05,2210.05C-8.31,3439,981.12,4442,2210,4450.34c1047.48,7.13,1930.62-710.67,2173.85-1683.64l-142.34-1L4243,2551.4c.14-19.24,2.65-47.44,7.37-84.52l-3.79,0q-13.8,40.23-39,79.49L4057,2763.55l-151.85-1,3.24-477.76,154.76,1-1.53,225q-.18,24.91-7.2,73.92l3.81.06c7.84-21.13,20.17-44.39,37.06-70l153.37-227.73,151.92,1.06L4397.73,2708a2235.26,2235.26,0,0,0,52.61-467.69"/><path class="cls-3" d="M3038.66,2388.46q-45.18-.32-60.3,25.12t-15.52,104.08q-.6,78,14.13,103,14.76,25.17,60,25.41c29.41.21,49.25-8,59.19-24.62q15.12-24.74,15.65-102.72.54-78.78-14.22-104.3c-9.75-17.05-29.46-25.73-58.88-25.92"/><path class="cls-3" d="M3155.7,3163.88l18.65.12c7.46.07,12.32-1.12,14.63-3.63s3.39-7.69,3.46-15.62-1-13.3-3.24-16.07-7.13-4.31-14.59-4.36l-18.65-.14Z"/><path class="cls-3" d="M2761.84,3257.86l-19.38,0-.28,39.55,19.4.12c7.33-.07,12.27-1.46,14.86-4.15s3.87-7.86,3.93-15.65-1.21-13.06-3.73-15.82-7.46-4-14.8-4.07"/></g></svg>