<svg width="210" height="76" viewBox="0 0 210 76" fill="none" xmlns="http://www.w3.org/2000/svg">
<path d="M57.5023 27.2814C58.0279 26.2785 58.5606 25.2757 59.1005 24.2728C59.8818 22.8029 60.4429 21.7314 60.7839 21.0583C61.3805 19.8768 61.9417 18.7229 62.4673 17.5964C62.7514 17.6376 63.0427 17.6788 63.341 17.72C63.4688 17.72 63.618 17.7063 63.7885 17.6788C63.9589 17.6514 64.1223 17.6239 64.2786 17.5964C64.5769 20.1378 64.8752 22.6656 65.1736 25.1795C65.4861 27.6935 65.8128 29.8709 66.1538 31.7117C65.9549 31.7117 65.614 31.698 65.1309 31.6705C64.6621 31.643 64.4064 31.6293 64.3638 31.6293C64.1649 31.6293 63.8382 31.643 63.3836 31.6705C62.929 31.698 62.6875 31.7117 62.6591 31.7117C62.6591 30.4204 62.5525 28.9024 62.3395 27.1577C62.1264 25.3993 61.9275 23.7302 61.7428 22.1504C61.4729 22.6587 60.9402 23.7027 60.1446 25.2826C59.1644 27.2195 58.6317 28.2705 58.5464 28.4353C58.1913 29.1497 57.6799 30.2143 57.0122 31.6293C56.7565 31.6018 56.586 31.5881 56.5008 31.5881C56.4439 31.5881 56.3445 31.6018 56.2024 31.6293C55.7194 30.6402 55.2364 29.658 54.7534 28.6826C54.1425 27.4737 53.6169 26.4365 53.1765 25.571C52.6225 24.4995 52.0756 23.428 51.5357 22.3565C51.3226 23.9088 51.1735 25.0421 51.0882 25.7565C50.9462 26.9105 50.8325 27.9751 50.7473 28.9505C50.6763 29.9258 50.6408 30.8463 50.6408 31.7117C50.5413 31.7117 50.3779 31.698 50.1506 31.6705C49.9233 31.643 49.7529 31.6293 49.6392 31.6293C49.5256 31.6293 49.3338 31.643 49.0639 31.6705C48.8082 31.698 48.6661 31.7117 48.6377 31.7117C48.8366 30.6539 49.0852 29.2115 49.3835 27.3844C49.4688 26.8486 49.7032 25.2757 50.0867 22.6656C50.3282 20.9758 50.5768 19.2861 50.8325 17.5964C51.1167 17.6376 51.4079 17.6788 51.7062 17.72C51.8341 17.72 51.9761 17.7063 52.1324 17.6788C52.2887 17.6514 52.4378 17.6239 52.5799 17.5964C53.1765 18.8328 53.7022 19.9043 54.1568 20.811C54.4267 21.3468 54.9807 22.4251 55.8189 24.0462C56.3729 25.1314 56.934 26.2098 57.5023 27.2814Z" fill="white"/>
<path d="M71.645 31.6911C71.8865 31.2927 72.2843 30.544 72.8384 29.445C73.0088 29.1016 73.2574 28.607 73.5842 27.9614C73.1722 27.1096 72.5471 26.0106 71.709 24.6644C71.5527 24.4171 70.7501 23.167 69.301 20.914C68.335 19.4166 67.646 18.3108 67.2341 17.5964C67.4471 17.5964 67.7668 17.617 68.193 17.6582C68.6191 17.6994 68.9388 17.72 69.1519 17.72C69.365 17.72 69.6846 17.6994 70.1108 17.6582C70.537 17.617 70.8566 17.5964 71.0697 17.5964C71.2544 17.9673 71.6379 18.6405 72.2204 19.6158C72.334 19.7944 72.8952 20.7286 73.9038 22.4183C74.5857 23.5448 75.0048 24.2591 75.161 24.5613C75.502 24.053 76.0773 22.9609 76.8871 21.2849C77.3133 20.4057 77.8886 19.1762 78.6131 17.5964L79.6573 17.6582L80.6801 17.5964C80.2681 18.3108 79.5081 19.7051 78.4 21.7795C77.3772 23.7027 76.4183 25.5573 75.5233 27.3432C74.4578 29.4725 73.7688 30.9287 73.4563 31.7117C73.3711 31.7117 73.229 31.698 73.0301 31.6705C72.8312 31.643 72.675 31.6293 72.5613 31.6293L71.645 31.6911Z" fill="white"/>
<path d="M85.304 24.9735V23.4898C85.4603 23.5035 85.6023 23.5173 85.7302 23.531C85.8581 23.531 85.9859 23.531 86.1138 23.531C87.1082 23.531 87.8256 23.2631 88.266 22.7274C88.6495 22.2603 88.8413 21.5803 88.8413 20.6874C88.8413 20.0142 88.6993 19.451 88.4151 18.9976C88.0458 18.4069 87.4989 18.1116 86.7743 18.1116C85.9788 18.1116 85.375 18.3726 84.9631 18.8946C84.6505 19.293 84.4161 19.8906 84.2599 20.6874L83.8976 20.708C83.6135 20.4607 83.3223 20.2065 83.0239 19.9455C82.7398 19.6845 82.4628 19.451 82.1929 19.2449C82.7469 18.4619 83.4217 17.9192 84.2173 17.617C85.0128 17.301 85.9646 17.1431 87.0727 17.1431C88.7206 17.1431 89.992 17.459 90.887 18.091C91.7962 18.7229 92.2508 19.5609 92.2508 20.6049C92.2508 22.4183 91.2066 23.5791 89.1183 24.0874C90.3401 24.3347 91.2066 24.63 91.7181 24.9735C92.5278 25.523 92.9327 26.3884 92.9327 27.5699C92.9327 28.8887 92.3502 29.9464 91.1853 30.7432C90.0346 31.54 88.5572 31.9384 86.753 31.9384C85.787 31.9384 84.8636 31.801 83.9828 31.5263C83.1021 31.2378 82.3634 30.8119 81.7667 30.2487C82.1361 29.864 82.4131 29.5687 82.5978 29.3626C82.8677 29.0604 83.1234 28.7444 83.3649 28.4147L83.7058 28.4353C83.8195 29.1634 84.0965 29.7473 84.5369 30.1869C85.0341 30.6951 85.6947 30.9493 86.5186 30.9493C87.4278 30.9493 88.1736 30.6127 88.7561 29.9396C89.2817 29.3351 89.5445 28.6414 89.5445 27.8583C89.5445 26.7456 89.2462 25.942 88.6495 25.4474C88.1665 25.049 87.4846 24.8498 86.6039 24.8498C86.4192 24.8498 86.2061 24.8636 85.9646 24.891C85.7231 24.9185 85.5029 24.946 85.304 24.9735Z" fill="white"/>
<path d="M99.098 17.514V23.6753H101.144C104.184 23.6753 105.704 24.8361 105.704 27.1577C105.704 28.8337 105.128 30.0357 103.978 30.7638C103.069 31.3408 101.804 31.6293 100.185 31.6293H95.9016V17.514C96.0721 17.514 96.3349 17.5277 96.6901 17.5552C97.0452 17.5827 97.3151 17.5964 97.4998 17.5964C97.6703 17.5964 97.9331 17.5827 98.2883 17.5552C98.6434 17.5277 98.9133 17.514 99.098 17.514ZM107.622 31.7117V17.5964C107.792 17.5964 108.055 17.617 108.41 17.6582C108.765 17.6994 109.035 17.72 109.22 17.72C109.39 17.72 109.653 17.6994 110.008 17.6582C110.363 17.617 110.633 17.5964 110.818 17.5964V31.7117C110.648 31.7117 110.385 31.698 110.03 31.6705C109.674 31.643 109.405 31.6293 109.22 31.6293C109.049 31.6293 108.787 31.643 108.431 31.6705C108.076 31.698 107.806 31.7117 107.622 31.7117ZM99.098 24.8086V30.4753C99.3253 30.4616 99.5668 30.4479 99.8225 30.4341C100.078 30.4204 100.306 30.3861 100.504 30.3311C101.158 30.1525 101.648 29.8022 101.975 29.2802C102.259 28.8131 102.401 28.2293 102.401 27.5286C102.401 26.7181 102.209 26.0656 101.826 25.571C101.456 25.0628 100.987 24.8086 100.419 24.8086H99.098Z" fill="white"/>
<path d="M114.444 31.7117V17.5964C114.628 17.5964 114.898 17.617 115.253 17.6582C115.608 17.6994 115.871 17.72 116.042 17.72C116.212 17.72 116.475 17.6994 116.83 17.6582C117.185 17.617 117.455 17.5964 117.64 17.5964V24.0462C119.487 21.9993 121.333 19.8494 123.18 17.5964C123.308 17.6101 123.5 17.6376 123.756 17.6788C124.026 17.7063 124.217 17.72 124.331 17.72C124.487 17.72 124.665 17.7063 124.864 17.6788C125.063 17.6514 125.261 17.6239 125.46 17.5964V17.7613C124.665 18.4893 123.905 19.2243 123.18 19.9661C122.711 20.4332 122.051 21.1338 121.199 22.068C120.687 22.6175 120.268 23.0845 119.941 23.4692L125.887 31.4438V31.7117L124.075 31.6293L122.264 31.7117L117.64 25.1795V31.7117C117.469 31.7117 117.207 31.698 116.851 31.6705C116.496 31.643 116.226 31.6293 116.042 31.6293C115.871 31.6293 115.608 31.643 115.253 31.6705C114.898 31.698 114.628 31.7117 114.444 31.7117Z" fill="white"/>
<path d="M134.396 27.4256H129.431C128.976 28.662 128.642 29.5755 128.429 30.1662C128.23 30.7432 128.067 31.2515 127.939 31.6911L126.938 31.6293L125.915 31.6911L132.009 17.4109L132.819 17.4728L133.629 17.4109L139.574 31.7117C139.375 31.7117 139.027 31.698 138.53 31.6705C138.033 31.643 137.763 31.6293 137.72 31.6293C137.507 31.6293 137.152 31.643 136.655 31.6705C136.172 31.698 135.923 31.7117 135.909 31.7117C135.582 30.7089 135.341 29.9808 135.184 29.5275C134.9 28.7169 134.637 28.0163 134.396 27.4256ZM130.006 26.1686H133.906L132.009 21.3674L130.006 26.1686Z" fill="white"/>
<path d="M146.137 17.5758C146.236 17.5758 146.386 17.5895 146.585 17.617C146.783 17.6445 146.933 17.6582 147.032 17.6582C147.146 17.6582 147.302 17.6445 147.501 17.617C147.7 17.5895 147.849 17.5758 147.948 17.5758C148.545 19.1556 149.156 20.7354 149.781 22.3152C150.179 23.3181 150.818 24.8842 151.699 27.0135C152.267 28.3872 152.92 29.9464 153.659 31.6911C153.446 31.6911 153.134 31.6705 152.722 31.6293C152.31 31.5881 151.997 31.5675 151.784 31.5675C151.571 31.5675 151.258 31.5881 150.846 31.6293C150.434 31.6705 150.122 31.6911 149.909 31.6911C149.468 30.2624 148.872 28.5658 148.119 26.6014C147.451 24.8979 146.791 23.1944 146.137 21.491C145.768 22.3565 145.299 23.4761 144.731 24.8498C144.177 26.2098 143.729 27.3501 143.388 28.2705C142.919 29.5343 142.514 30.6745 142.174 31.6911L141.172 31.6293L140.192 31.6911C140.874 30.1388 141.563 28.5796 142.259 27.0135C142.955 25.4474 143.623 23.8882 144.262 22.3359C144.958 20.6736 145.583 19.0869 146.137 17.5758Z" fill="white"/>
<path d="M158.88 17.514V23.6753H160.925C163.965 23.6753 165.486 24.8361 165.486 27.1577C165.486 28.8337 164.91 30.0357 163.759 30.7638C162.85 31.3408 161.586 31.6293 159.966 31.6293H155.683V17.514C155.854 17.514 156.117 17.5277 156.472 17.5552C156.827 17.5827 157.097 17.5964 157.282 17.5964C157.452 17.5964 157.715 17.5827 158.07 17.5552C158.425 17.5277 158.695 17.514 158.88 17.514ZM158.88 24.8086V30.4753C159.107 30.4616 159.349 30.4479 159.604 30.4341C159.86 30.4204 160.087 30.3861 160.286 30.3311C160.94 30.1525 161.43 29.8022 161.756 29.2802C162.041 28.8131 162.183 28.2293 162.183 27.5286C162.183 26.7181 161.991 26.0656 161.607 25.571C161.238 25.0628 160.769 24.8086 160.201 24.8086H158.88Z" fill="white"/>
<path d="M167.737 31.7117V17.5964C167.908 17.5964 168.17 17.617 168.526 17.6582C168.881 17.6994 169.151 17.72 169.335 17.72C169.506 17.72 169.769 17.6994 170.124 17.6582C170.479 17.617 170.749 17.5964 170.933 17.5964V23.1807C171.388 23.1807 172.006 23.2013 172.787 23.2425C173.569 23.27 174.038 23.2837 174.194 23.2837C174.691 23.2837 175.096 23.2769 175.408 23.2631C176.644 23.2082 177.326 23.1807 177.454 23.1807V17.5964C177.625 17.5964 177.887 17.617 178.243 17.6582C178.598 17.6994 178.86 17.72 179.031 17.72C179.216 17.72 179.486 17.6994 179.841 17.6582C180.196 17.617 180.466 17.5964 180.65 17.5964V31.7117C180.48 31.7117 180.217 31.698 179.862 31.6705C179.507 31.643 179.23 31.6293 179.031 31.6293C178.875 31.6293 178.619 31.643 178.264 31.6705C177.909 31.698 177.639 31.7117 177.454 31.7117V24.8292C177.071 24.8292 176.438 24.8155 175.558 24.788C174.691 24.7605 174.236 24.7468 174.194 24.7468C173.697 24.7468 173.128 24.7605 172.489 24.788C171.85 24.8017 171.331 24.8155 170.933 24.8292V31.7117C170.763 31.7117 170.5 31.698 170.145 31.6705C169.79 31.643 169.52 31.6293 169.335 31.6293C169.165 31.6293 168.902 31.643 168.547 31.6705C168.192 31.698 167.922 31.7117 167.737 31.7117Z" fill="white"/>
<path d="M199.516 24.5613C199.516 26.6494 198.77 28.3941 197.278 29.7953C195.716 31.2653 193.663 32.0002 191.12 32.0002C188.733 32.0002 186.823 31.3545 185.388 30.0632C183.953 28.7719 183.236 26.9654 183.236 24.6438C183.236 22.5144 183.967 20.7629 185.431 19.3892C186.965 17.9467 189.032 17.2255 191.631 17.2255C194.373 17.2255 196.44 18.0497 197.832 19.6982C198.955 21.0308 199.516 22.6518 199.516 24.5613ZM191.482 18.4619C189.976 18.4619 188.826 19.0114 188.03 20.1104C187.192 21.2643 186.773 22.9746 186.773 25.2413C186.773 26.7525 187.114 28.0095 187.796 29.0123C188.591 30.18 189.735 30.7638 191.227 30.7638C192.775 30.7638 193.975 30.0976 194.828 28.765C195.595 27.5561 195.979 26.0244 195.979 24.1698C195.979 22.6587 195.638 21.3811 194.956 20.337C194.132 19.0869 192.974 18.4619 191.482 18.4619Z" fill="white"/>
<path d="M201.86 17.5964H210C209.972 17.7475 209.943 17.9055 209.915 18.0703C209.901 18.2352 209.894 18.3726 209.894 18.4825C209.894 18.5786 209.908 18.7229 209.936 18.9152C209.965 19.1075 209.986 19.2586 210 19.3685C209.261 19.2724 208.508 19.2037 207.741 19.1625C206.974 19.1075 206.079 19.0801 205.056 19.0801V23.531H207.294C207.677 23.531 208.047 23.5173 208.402 23.4898C208.771 23.4623 209.276 23.4143 209.915 23.3456C209.901 23.4143 209.879 23.5516 209.851 23.7577C209.823 23.9638 209.808 24.1149 209.808 24.211C209.808 24.3072 209.823 24.4514 209.851 24.6438C209.879 24.8361 209.901 24.9872 209.915 25.0971C209.077 24.9872 208.203 24.9322 207.294 24.9322H205.056V30.1456C206.079 30.1456 206.974 30.125 207.741 30.0838C208.508 30.0289 209.261 29.9533 210 29.8572C209.972 30.0083 209.943 30.1662 209.915 30.3311C209.901 30.496 209.894 30.6333 209.894 30.7432C209.894 30.8394 209.908 30.9836 209.936 31.176C209.965 31.3683 209.986 31.5194 210 31.6293H201.86V17.5964Z" fill="white"/>
<path d="M61.3362 56.1154L61.6194 56.2462L61.1402 58.1208C60.5013 58.4405 59.8115 58.673 59.071 58.8184C58.3449 58.9782 57.5971 59.0581 56.8275 59.0581C54.4461 59.0581 52.5003 58.3969 50.9901 57.0745C49.4218 55.7085 48.6377 53.921 48.6377 51.7121C48.6377 48.9946 49.4872 46.9019 51.1861 45.4342C52.7399 44.0972 54.78 43.4287 57.3067 43.4287C58.0618 43.4287 58.8314 43.5232 59.6155 43.7121C60.3996 43.8865 61.1112 44.1481 61.7501 44.4968L61.2491 46.7421H60.9442C60.5376 46.1608 60.0003 45.6812 59.3324 45.3034C58.6789 44.9255 58.0109 44.7366 57.3285 44.7366C55.644 44.7366 54.3444 45.4487 53.4296 46.8729C52.6455 48.0936 52.2534 49.6049 52.2534 51.4069C52.2534 53.3252 52.7036 54.8656 53.6038 56.0282C54.5041 57.1762 55.782 57.7502 57.4374 57.7502C58.1199 57.7502 58.8096 57.6049 59.5066 57.3143C60.2181 57.0091 60.828 56.6095 61.3362 56.1154Z" fill="white"/>
<path d="M64.2548 43.8211H72.5753C72.5462 43.9809 72.5172 44.1481 72.4881 44.3224C72.4736 44.4968 72.4663 44.6422 72.4663 44.7584C72.4663 44.8601 72.4809 45.0127 72.5099 45.2162C72.539 45.4196 72.5607 45.5795 72.5753 45.6957C71.8202 45.594 71.0506 45.5214 70.2664 45.4778C69.4823 45.4196 68.5675 45.3906 67.522 45.3906V50.099H69.809C70.2011 50.099 70.5786 50.0845 70.9417 50.0554C71.3192 50.0264 71.8347 49.9755 72.4881 49.9028C72.4736 49.9755 72.4518 50.1208 72.4228 50.3388C72.3937 50.5568 72.3792 50.7166 72.3792 50.8184C72.3792 50.9201 72.3937 51.0727 72.4228 51.2761C72.4518 51.4796 72.4736 51.6394 72.4881 51.7557C71.6314 51.6394 70.7384 51.5813 69.809 51.5813H67.522V57.0963C68.5675 57.0963 69.4823 57.0745 70.2664 57.0309C71.0506 56.9728 71.8202 56.8928 72.5753 56.7911C72.5462 56.951 72.5172 57.1181 72.4881 57.2925C72.4736 57.4669 72.4663 57.6122 72.4663 57.7284C72.4663 57.8302 72.4809 57.9828 72.5099 58.1862C72.539 58.3897 72.5607 58.5495 72.5753 58.6658H64.2548V43.8211Z" fill="white"/>
<path d="M78.6305 52.2353V58.753C78.4562 58.753 78.1876 58.7384 77.8246 58.7094C77.4615 58.6803 77.1856 58.6658 76.9969 58.6658C76.8081 58.6658 76.5322 58.6803 76.1692 58.7094C75.8062 58.7384 75.5375 58.753 75.3633 58.753V43.8211H80.7215C83.829 43.8211 85.3827 45.0491 85.3827 47.505C85.3827 49.307 84.751 50.5786 83.4877 51.3197C82.4422 51.9301 80.8231 52.2353 78.6305 52.2353ZM78.6305 45.02V51.0145C79.1387 51.0145 79.6179 50.9637 80.068 50.862C80.736 50.673 81.237 50.3025 81.571 49.7502C81.8614 49.2561 82.0066 48.6385 82.0066 47.8974C82.0066 47.04 81.8106 46.3497 81.4185 45.8265C81.041 45.2888 80.5618 45.02 79.9809 45.02H78.6305Z" fill="white"/>
<path d="M85.7021 57.0963H86.6387C87.2776 55.6285 87.902 54.1608 88.5119 52.693C89.2379 50.9782 89.8406 49.5105 90.3198 48.2897C90.857 46.9528 91.4233 45.4487 92.0187 43.7775C92.1204 43.7775 92.2728 43.792 92.4761 43.8211C92.6794 43.8501 92.8319 43.8647 92.9335 43.8647C93.0497 43.8647 93.2094 43.8501 93.4127 43.8211C93.616 43.792 93.7685 43.7775 93.8701 43.7775C94.6107 45.8265 95.4529 48.0572 96.3968 50.4696C97.2245 52.6058 98.103 54.8147 99.0323 57.0963H100.078C100.049 57.2997 100.02 57.5105 99.9907 57.7284C99.9762 57.9464 99.9617 58.1208 99.9471 58.2516C99.9471 58.3969 99.9616 58.6004 99.9907 58.862C100.02 59.1235 100.049 59.3125 100.078 59.4287H99.7511C99.4897 59.109 99.0396 58.8983 98.4006 58.7966C97.7617 58.7094 97.0212 58.6658 96.1789 58.6658H89.7534C88.7515 58.6658 87.9456 58.7021 87.3357 58.7748C86.7404 58.862 86.3047 59.0799 86.0288 59.4287H85.7021C85.7457 59.2543 85.7747 59.0799 85.7892 58.9056C85.8038 58.7312 85.811 58.5132 85.811 58.2516C85.811 58.0191 85.7965 57.7938 85.7674 57.5758C85.7384 57.3579 85.7166 57.198 85.7021 57.0963ZM91.7791 57.1835C92.3599 57.1835 92.9698 57.1762 93.6087 57.1617C94.2477 57.1471 94.8285 57.1254 95.3513 57.0963C94.8721 55.6576 94.3348 54.1535 93.7394 52.584C93.1586 51.0145 92.585 49.4596 92.0187 47.9192C91.3653 49.5323 90.7554 51.0581 90.1891 52.4968C89.5356 54.168 88.9693 55.7012 88.4901 57.0963C88.7805 57.1108 89.3033 57.1326 90.0584 57.1617C90.8135 57.1762 91.387 57.1835 91.7791 57.1835Z" fill="white"/>
<path d="M113.016 58.6658H108.616C107.658 58.6658 106.627 58.673 105.523 58.6876C104.419 58.7021 103.243 58.7239 101.994 58.753V43.7993C102.169 43.7993 102.437 43.8138 102.8 43.8429C103.163 43.8719 103.439 43.8865 103.628 43.8865C103.802 43.8865 104.071 43.8719 104.434 43.8429C104.797 43.8138 105.073 43.7993 105.262 43.7993V57.0745C105.479 57.0745 106.031 57.089 106.917 57.1181C107.817 57.1326 108.384 57.1399 108.616 57.1399C109.473 57.1399 110.141 57.1326 110.62 57.1181C111.114 57.1036 111.549 57.089 111.927 57.0745V43.7993C112.101 43.7993 112.37 43.8138 112.733 43.8429C113.096 43.8719 113.364 43.8865 113.539 43.8865C113.727 43.8865 114.003 43.8719 114.366 43.8429C114.729 43.8138 115.005 43.7993 115.194 43.7993V57.0963H116.915C116.828 57.5323 116.784 57.9246 116.784 58.2734C116.784 58.4187 116.798 58.6149 116.828 58.862C116.857 59.109 116.886 59.2979 116.915 59.4287H116.588C116.327 59.109 115.869 58.8983 115.216 58.7966C114.577 58.7094 113.843 58.6658 113.016 58.6658Z" fill="white"/>
<path d="M118.729 43.8211H127.05C127.021 43.9809 126.992 44.1481 126.963 44.3224C126.948 44.4968 126.941 44.6422 126.941 44.7584C126.941 44.8601 126.956 45.0127 126.985 45.2162C127.014 45.4196 127.035 45.5795 127.05 45.6957C126.295 45.594 125.525 45.5214 124.741 45.4778C123.957 45.4196 123.042 45.3906 121.997 45.3906V50.099H124.284C124.676 50.099 125.053 50.0845 125.416 50.0554C125.794 50.0264 126.309 49.9755 126.963 49.9028C126.948 49.9755 126.927 50.1208 126.898 50.3388C126.868 50.5568 126.854 50.7166 126.854 50.8184C126.854 50.9201 126.868 51.0727 126.898 51.2761C126.927 51.4796 126.948 51.6394 126.963 51.7557C126.106 51.6394 125.213 51.5813 124.284 51.5813H121.997V57.0963C123.042 57.0963 123.957 57.0745 124.741 57.0309C125.525 56.9728 126.295 56.8928 127.05 56.7911C127.021 56.951 126.992 57.1181 126.963 57.2925C126.948 57.4669 126.941 57.6122 126.941 57.7284C126.941 57.8302 126.956 57.9828 126.985 58.1862C127.014 58.3897 127.035 58.5495 127.05 58.6658H118.729V43.8211Z" fill="white"/>
<path d="M141.781 45.3688V58.753C141.592 58.753 141.273 58.7384 140.823 58.7094C140.387 58.6803 140.162 58.6658 140.148 58.6658C139.973 58.6658 139.705 58.6803 139.342 58.7094C138.979 58.7384 138.703 58.753 138.514 58.753V45.3688C137.744 45.3688 137.069 45.3978 136.488 45.456C135.922 45.4996 135.247 45.5722 134.463 45.6739C134.492 45.4705 134.513 45.2961 134.528 45.1508C134.557 44.9909 134.572 44.8529 134.572 44.7366C134.572 44.5332 134.557 44.3588 134.528 44.2135C134.499 44.0536 134.477 43.9228 134.463 43.8211H145.68C145.636 44.1263 145.593 44.4314 145.549 44.7366C145.549 44.8819 145.564 45.0418 145.593 45.2162C145.622 45.376 145.651 45.5286 145.68 45.6739C144.62 45.5432 143.981 45.4705 143.763 45.456C143.11 45.3978 142.449 45.3688 141.781 45.3688Z" fill="white"/>
<path d="M147.785 43.8211H156.106C156.077 43.9809 156.048 44.1481 156.019 44.3224C156.004 44.4968 155.997 44.6422 155.997 44.7584C155.997 44.8601 156.012 45.0127 156.041 45.2162C156.07 45.4196 156.091 45.5795 156.106 45.6957C155.351 45.594 154.581 45.5214 153.797 45.4778C153.013 45.4196 152.098 45.3906 151.053 45.3906V50.099H153.34C153.732 50.099 154.109 50.0845 154.472 50.0554C154.85 50.0264 155.365 49.9755 156.019 49.9028C156.004 49.9755 155.983 50.1208 155.954 50.3388C155.924 50.5568 155.91 50.7166 155.91 50.8184C155.91 50.9201 155.924 51.0727 155.954 51.2761C155.983 51.4796 156.004 51.6394 156.019 51.7557C155.162 51.6394 154.269 51.5813 153.34 51.5813H151.053V57.0963C152.098 57.0963 153.013 57.0745 153.797 57.0309C154.581 56.9728 155.351 56.8928 156.106 56.7911C156.077 56.951 156.048 57.1181 156.019 57.2925C156.004 57.4669 155.997 57.6122 155.997 57.7284C155.997 57.8302 156.012 57.9828 156.041 58.1862C156.07 58.3897 156.091 58.5495 156.106 58.6658H147.785V43.8211Z" fill="white"/>
<path d="M165.973 54.2189H160.898C160.433 55.5268 160.092 56.4932 159.874 57.1181C159.671 57.7284 159.504 58.2661 159.373 58.7312L158.349 58.6658L157.304 58.7312L163.533 43.6249L164.361 43.6903L165.189 43.6249L171.266 58.753C171.063 58.753 170.707 58.7384 170.199 58.7094C169.69 58.6803 169.414 58.6658 169.371 58.6658C169.153 58.6658 168.79 58.6803 168.282 58.7094C167.788 58.7384 167.534 58.753 167.519 58.753C167.185 57.6921 166.939 56.9219 166.779 56.4423C166.488 55.5849 166.22 54.8438 165.973 54.2189ZM161.486 52.8892H165.472L163.533 47.8102L161.486 52.8892Z" fill="white"/>
<path d="M179.303 45.3688V58.753C179.114 58.753 178.795 58.7384 178.345 58.7094C177.909 58.6803 177.684 58.6658 177.669 58.6658C177.495 58.6658 177.226 58.6803 176.863 58.7094C176.5 58.7384 176.225 58.753 176.036 58.753V45.3688C175.266 45.3688 174.591 45.3978 174.01 45.456C173.444 45.4996 172.769 45.5722 171.984 45.6739C172.013 45.4705 172.035 45.2961 172.05 45.1508C172.079 44.9909 172.093 44.8529 172.093 44.7366C172.093 44.5332 172.079 44.3588 172.05 44.2135C172.021 44.0536 171.999 43.9228 171.984 43.8211H183.202C183.158 44.1263 183.115 44.4314 183.071 44.7366C183.071 44.8819 183.086 45.0418 183.115 45.2162C183.144 45.376 183.173 45.5286 183.202 45.6739C182.142 45.5432 181.503 45.4705 181.285 45.456C180.632 45.3978 179.971 45.3688 179.303 45.3688Z" fill="white"/>
<path d="M188.792 52.2353V58.753C188.618 58.753 188.349 58.7384 187.986 58.7094C187.623 58.6803 187.348 58.6658 187.159 58.6658C186.97 58.6658 186.694 58.6803 186.331 58.7094C185.968 58.7384 185.699 58.753 185.525 58.753V43.8211H190.883C193.991 43.8211 195.545 45.0491 195.545 47.505C195.545 49.307 194.913 50.5786 193.65 51.3197C192.604 51.9301 190.985 52.2353 188.792 52.2353ZM188.792 45.02V51.0145C189.301 51.0145 189.78 50.9637 190.23 50.862C190.898 50.673 191.399 50.3025 191.733 49.7502C192.023 49.2561 192.168 48.6385 192.168 47.8974C192.168 47.04 191.972 46.3497 191.58 45.8265C191.203 45.2888 190.724 45.02 190.143 45.02H188.792Z" fill="white"/>
<path d="M204.707 54.2189H199.632C199.167 55.5268 198.826 56.4932 198.608 57.1181C198.405 57.7284 198.238 58.2661 198.107 58.7312L197.084 58.6658L196.038 58.7312L202.268 43.6249L203.095 43.6903L203.923 43.6249L210 58.753C209.797 58.753 209.441 58.7384 208.933 58.7094C208.425 58.6803 208.149 58.6658 208.105 58.6658C207.887 58.6658 207.524 58.6803 207.016 58.7094C206.522 58.7384 206.268 58.753 206.254 58.753C205.92 57.6921 205.673 56.9219 205.513 56.4423C205.223 55.5849 204.954 54.8438 204.707 54.2189ZM200.22 52.8892H204.206L202.268 47.8102L200.22 52.8892Z" fill="white"/>
<path fill-rule="evenodd" clip-rule="evenodd" d="M16.8166 1.82506C12.8106 6.17106 10.3292 10.7394 9.60858 15.0953C9.19584 17.5909 9.42566 19.5453 10.5547 23.1367L11.3891 25.7897L9.56562 28.173C8.5626 29.4837 7.34945 31.0698 6.86977 31.6976L5.9974 32.8394H7.10316C8.0346 32.8394 8.50389 32.4786 10.0768 30.552C11.1042 29.2936 12.0553 28.3848 12.1906 28.532C12.3259 28.6789 12.8686 30.0918 13.3966 31.6713C14.1612 33.9593 14.6055 34.7297 15.5816 35.4605C16.7547 36.3384 16.846 36.3528 17.709 35.7977C18.2052 35.4787 18.6111 35.1471 18.6111 35.0607C18.6111 34.9746 17.4159 31.2381 15.955 26.7576C14.4945 22.2774 13.1235 17.6531 12.909 16.4819C12.3116 13.2225 13.1177 10.04 15.5909 5.89599C16.4186 4.50903 16.5306 4.44334 17.4968 4.77392C18.0613 4.96678 18.9057 5.52466 19.3725 6.01297C20.0913 6.76476 20.2216 7.26151 20.2209 9.24323C20.2198 11.2713 20.0179 11.9978 18.7142 14.6625C17.8862 16.3551 16.7003 18.4653 16.0785 19.3524C15.0987 20.7499 14.9928 21.1121 15.2827 22.0715L15.6174 23.1785L17.6077 20.1924C23.6481 11.1297 25.0298 3.50746 21.1169 0.836482C19.2347 -0.447891 18.8252 -0.353742 16.8166 1.82506ZM22.8527 34.0303C21.5432 34.4838 19.6174 35.4169 18.5732 36.1037L16.6745 37.3526L15.485 36.3278C13.4095 34.5393 11.499 33.79 8.57549 33.6186C6.04215 33.47 5.80696 33.5191 4.71158 34.4238C3.4995 35.4246 2.43777 37.1896 1.56469 39.6558L1.05494 41.0951L3.06958 38.8892C6.44271 35.1956 7.8055 34.9883 11.7084 37.5764C14.149 39.1945 14.5081 39.8683 13.9579 41.7963C13.1492 44.6313 13.6121 44.7669 15.6933 42.3042C19.5275 37.7682 23.9724 35.81 27.3198 37.1829C28.8486 37.8096 29.7457 39.2082 30.0339 41.4154L30.2676 43.2029L30.8826 40.847C31.6 38.1012 31.6483 36.8804 31.1013 35.3403C30.302 33.0909 27.0538 32.5748 22.8527 34.0303ZM3.41574 39.602C1.3678 41.8939 -0.00428556 44.5319 1.00574e-05 46.17C0.00466364 47.903 1.72327 50.6885 4.00674 52.6642C5.04986 53.5671 7.8191 55.5847 10.1606 57.148C12.502 58.7113 15.0325 60.5936 15.7835 61.3306L17.1492 62.6708L19.3102 60.3213C20.9451 58.5433 21.4169 57.7993 21.2493 57.2621C20.9225 56.2145 20.8395 56.2015 20.1124 57.0823L19.4484 57.8875L17.1502 56.1415C15.8866 55.1814 13.2813 53.3314 11.3608 52.0305C5.74933 48.2301 3.2185 45.3441 3.2185 42.7462C3.2185 42.1672 3.69316 40.8077 4.27343 39.7257C4.85334 38.6433 5.26858 37.7576 5.19591 37.7576C5.12324 37.7576 4.32211 38.5874 3.41574 39.602ZM18.3287 40.5368L16.8861 41.9108L19.3442 49.056C20.6959 52.9857 22.0505 57.4199 22.3544 58.9091C22.9951 62.0494 23.0796 68.2225 22.5097 70.2369C21.9552 72.1968 20.0874 73.9442 18.5574 73.9344C16.706 73.9225 14.4841 72.748 12.3495 70.6532C10.9259 69.2564 10.3098 68.8566 10.0514 69.1623C9.55166 69.7532 7.8796 73.3337 7.87566 73.822C7.87029 74.4375 12.022 75.6902 14.8525 75.9274C20.1604 76.3721 23.5998 74.7817 25.5879 70.9641C26.6375 68.9487 26.6643 68.7706 26.6267 64.1288C26.5956 60.2809 26.4198 58.739 25.7143 56.1239L24.8405 52.8845L26.3794 50.503C27.2256 49.193 28.2404 47.2854 28.6342 46.2635C29.3927 44.2954 29.6158 40.4195 28.9922 40.0411C28.7838 39.9147 28.6342 40.2674 28.6342 40.8857C28.6342 42.2751 27.5191 45.042 25.6763 48.2244L24.1929 50.7869L22.2857 44.9749C21.2364 41.7783 20.2417 39.1629 20.0748 39.1629C19.908 39.1629 19.1223 39.7812 18.3287 40.5368Z" fill="white"/>
</svg>
