<svg id="Layer_2" data-name="Layer 2" xmlns="http://www.w3.org/2000/svg" viewBox="0 0 595.28 841.89"><defs><style>.cls-1{fill:#fff;}.cls-2{fill:#fdfcfc;}</style></defs><title>Министерство_культуры_РФ_1-1</title><path class="cls-1" d="M95.23,494.48c.12,1,.32,2.62,1.54,3a6.28,6.28,0,0,0,1.85.25c.14,0,.22,0,.22.15s-.25.25-.59.25h-2.9c-.74,0-1.45,0-1.85,0-.66-.06-.88-.11-.88-.34s.19-.17.34-.2.11-.62.05-1.14l-1.36-14.68h-.09l-7,14.8c-.59,1.25-.68,1.5-.94,1.5s-.34-.28-.88-1.3c-.74-1.4-3.18-6.32-3.33-6.6-.25-.51-3.44-7.34-3.75-8.11h-.12l-1.13,13.2c0,.45,0,1,0,1.45a.9.9,0,0,0,.74.88,5.44,5.44,0,0,0,1.08.14c.11,0,.23.06.23.15s-.17.25-.52.25c-1,0-2.41-.08-2.64-.08s-1.62.08-2.39.08c-.28,0-.48-.06-.48-.25s.14-.15.28-.15a3.82,3.82,0,0,0,.85-.08c.94-.17,1-1.28,1.14-2.36l2-18.55c.06-.31.14-.51.31-.51s.29.11.43.42l8.7,17.9,8.37-17.87c.11-.25.23-.45.42-.45s.29.22.35.76Zm8.71,3.5c-.14.94.32,1.06.69.46L105,498l2.36-3c3.52-4.61,7.25-9.08,11-13.46.25-.31.39-.14.39.2v8.22c0,2.73,0,5-.14,6.18-.11.82-.25,1.45-.82,1.56a4.22,4.22,0,0,1-.86.11c-.17,0-.22.09-.22.17s.14.23.45.23c.85,0,2.65-.08,2.79-.08s1.93.08,3.5.08c.31,0,.45-.08.45-.23s0-.17-.22-.17a11.25,11.25,0,0,1-1.28-.11c-.86-.11-1-.74-1.11-1.56-.15-1.2-.15-3.45-.15-6.18V477c.15-.93-.31-1.05-.68-.45-5.83,7.54-9.81,12.29-13.85,17-.11.14-.26.12-.26-.11,0-9.39,0-13.8.06-14.71s.28-1.48,1-1.62a4,4,0,0,1,.71-.09c.12,0,.23-.05.23-.17s-.14-.22-.45-.22c-.86,0-2.65.08-2.79.08s-1.94-.08-3.22-.08c-.31,0-.45.05-.45.22s.11.17.22.17a5.07,5.07,0,0,1,1,.09c.94.2,1.17.66,1.23,1.62s0,1.71,0,6.15Zm44.5-13.08c0-4.44,0-5.24.05-6.15s.29-1.48,1.06-1.62a4,4,0,0,1,.71-.09c.11,0,.23-.05.23-.17s-.15-.22-.46-.22c-.85,0-2.64.08-2.79.08s-1.93-.08-3.21-.08c-.31,0-.46.05-.46.22s.12.17.23.17a5.07,5.07,0,0,1,1,.09c.94.2,1.17.66,1.22,1.62s.06,2,.06,6.46v.6a.15.15,0,0,1-.17.17H133.82c-.09,0-.17,0-.17-.17v-.6c0-4.44,0-5.55,0-6.46s.29-1.48,1.05-1.62a4.18,4.18,0,0,1,.72-.09c.11,0,.22-.05.22-.17s-.14-.22-.45-.22c-.85,0-2.65.08-2.79.08s-1.93-.08-3.21-.08c-.32,0-.46.05-.46.22s.12.17.23.17a5.07,5.07,0,0,1,1,.09c.93.2,1.16.66,1.22,1.62s.06,1.71.06,6.15v5c0,2.73,0,5-.15,6.18-.11.82-.25,1.45-.82,1.56a4.22,4.22,0,0,1-.85.11c-.17,0-.23.09-.23.17s.14.23.45.23c.86,0,2.65-.08,2.79-.08s1.94.08,3.5.08c.31,0,.45-.08.45-.23s-.05-.17-.22-.17a11.44,11.44,0,0,1-1.28-.11c-.86-.11-1-.74-1.11-1.56-.14-1.2-.14-3.45-.14-6.18v-2.67c0-.14.08-.17.17-.17h12.06a.17.17,0,0,1,.17.17v2.67c0,2.73,0,5-.14,6.18-.12.82-.26,1.45-.83,1.56a4.22,4.22,0,0,1-.85.11c-.17,0-.23.09-.23.17s.14.23.46.23c.85,0,2.64-.08,2.78-.08s1.94.08,3.5.08c.32,0,.46-.08.46-.23s-.06-.17-.23-.17a11.44,11.44,0,0,1-1.28-.11c-.85-.11-1-.74-1.11-1.56-.14-1.2-.14-3.45-.14-6.18ZM158.57,498c-.14.94.31,1.06.68.46l.34-.46,2.36-3c3.53-4.61,7.26-9.08,11-13.46.25-.31.39-.14.39.2v8.22c0,2.73,0,5-.14,6.18-.11.82-.25,1.45-.82,1.56a4.22,4.22,0,0,1-.86.11c-.17,0-.23.09-.23.17s.15.23.46.23c.85,0,2.64-.08,2.79-.08s1.93.08,3.5.08c.31,0,.45-.08.45-.23s-.06-.17-.23-.17a11.64,11.64,0,0,1-1.28-.11c-.85-.11-1-.74-1.11-1.56-.14-1.2-.14-3.45-.14-6.18V477c.14-.93-.31-1.05-.68-.45-5.83,7.54-9.82,12.29-13.85,17-.12.14-.26.12-.26-.11,0-9.39,0-13.8.06-14.71s.28-1.48,1-1.62a4,4,0,0,1,.71-.09c.11,0,.23-.05.23-.17s-.14-.22-.46-.22c-.85,0-2.64.08-2.78.08s-1.94-.08-3.22-.08c-.31,0-.46.05-.46.22s.12.17.23.17a5.07,5.07,0,0,1,1,.09c.94.2,1.17.66,1.22,1.62s0,1.71.06,6.15Zm23.07-10.92c0,6.57,4.15,11.49,12.83,11.49a16.65,16.65,0,0,0,5.12-.65c.51-.23.57-.29.74-.83a28.69,28.69,0,0,0,.63-3.64c0-.23-.06-.43-.2-.43s-.23.12-.29.43a5.35,5.35,0,0,1-1.05,2.39c-1.14,1.17-2.82,1.42-4.95,1.42a10.27,10.27,0,0,1-10.27-10.41c0-5,1.79-9.5,9.1-9.5,3.56,0,6.89,1.19,6.89,4.52,0,.4,0,.6.23.6s.28-.43.28-1.79c0-1.65.2-3,.2-3.33s-.06-.32-.37-.32c-1.08,0-3.64-.76-7-.76-9,0-11.86,6.26-11.86,10.81m33.21-9.19,3.58.06c2.73.05,3.39.71,3.5,1.56l0,.31c0,.4.08.49.23.49s.2-.12.2-.37.08-2.28.08-3.13c0-.17,0-.34-.14-.34a14.09,14.09,0,0,1-2.82.28H208.84c-.34,0-1.42-.06-2.24-.14a5.81,5.81,0,0,1-1.26-.34c-.11,0-.22.37-.28.54s-.62,2.67-.62,3,.05.25.14.25.2-.05.28-.28a5.29,5.29,0,0,1,.48-.88c.46-.69,1.14-.88,2.91-.91l4.21-.06v12c0,2.73,0,5-.15,6.18-.11.82-.25,1.45-.82,1.56a4.22,4.22,0,0,1-.85.11c-.17,0-.23.09-.23.17s.14.23.45.23c.86,0,2.65-.08,2.79-.08s1.94.08,3.5.08c.31,0,.46-.08.46-.23s-.06-.17-.23-.17a11.44,11.44,0,0,1-1.28-.11c-.86-.11-1-.74-1.11-1.56-.14-1.2-.14-3.45-.14-6.18Zm16,.17c0-.2.06-.25.17-.25.57,0,3.13.08,3.3.08,1.68,0,2.36.57,2.53.94a3,3,0,0,1,.25,1.08c0,.2.06.31.21.31s.19-.14.22-.28c.06-.34.12-1.59.14-1.88.09-.8.23-1.14.23-1.34s0-.31-.17-.31-.23.12-.4.17a12.36,12.36,0,0,1-1.25.11c-.45,0-3.35.06-6.43.06-.14,0-1.93-.08-3.21-.08-.31,0-.46.05-.46.22s.12.17.23.17a5.07,5.07,0,0,1,1,.09,1.26,1.26,0,0,1,1.19,1.31c.06.48.09,1.68.09,6.46v5a57.25,57.25,0,0,1-.2,6.52c-.17.82-.31,1.08-.77,1.22a3.1,3.1,0,0,1-.85.11c-.17,0-.23.09-.23.17s.14.23.45.23c.63,0,2.05-.08,2.79-.08s2.73.17,7,.17c1.11,0,1.34,0,1.53-.74a25.71,25.71,0,0,0,.37-2.76c0-.2,0-.43-.17-.43s-.2.12-.25.43c-.2,1.16-.54,1.73-1.28,2.05a8.23,8.23,0,0,1-2.73.31c-2.79,0-3.3-.45-3.3-2.33V487.4a.18.18,0,0,1,.2-.2c.48,0,3.3.06,4.06.14,1.11.12,1.37.6,1.48,1a2.75,2.75,0,0,1,.12.94c0,.14.05.25.2.25s.19-.23.19-.54a27.67,27.67,0,0,1,.35-3.41c0-.17-.06-.23-.14-.23s-.23.14-.43.37-.66.34-1.34.4-4.15.06-4.52.06c-.14,0-.17-.09-.17-.29Zm15,11.86c0,2.73,0,5-.14,6.18-.11.82-.26,1.45-.82,1.56a4.22,4.22,0,0,1-.86.11c-.17,0-.23.09-.23.17s.15.23.46.23c.85,0,2.65-.08,2.73-.08s1.94.08,3.5.08c.31,0,.46-.08.46-.23s-.06-.17-.23-.17a11.44,11.44,0,0,1-1.28-.11c-.86-.11-1-.74-1.11-1.56-.14-1.2-.14-3.45-.14-6.18V478.21c0-.28.05-.48.22-.54a3.63,3.63,0,0,1,1.23-.17,4.94,4.94,0,0,1,3.89,1.42,6,6,0,0,1,1.6,4.38,4.73,4.73,0,0,1-4.92,4.64c-.6,0-.77,0-.77.26s.17.19.31.19a4,4,0,0,0,.6,0c4,0,7-2.73,7-6.77a4.93,4.93,0,0,0-1.43-3.38c-.45-.43-1.73-1.62-5.29-1.62-1.31,0-3,.08-3.58.08-.23,0-1.94-.08-3.22-.08-.31,0-.45.05-.45.22s.11.17.23.17a5,5,0,0,1,1,.09c.94.2,1.17.66,1.23,1.62s.05,1.71.05,6.15Zm15-2.84c0,6.57,4.15,11.49,12.83,11.49a16.65,16.65,0,0,0,5.12-.65c.51-.23.56-.29.74-.83a30.17,30.17,0,0,0,.62-3.64c0-.23-.06-.43-.2-.43s-.23.12-.28.43a5.58,5.58,0,0,1-1.05,2.39c-1.14,1.17-2.82,1.42-4.95,1.42a10.27,10.27,0,0,1-10.27-10.41c0-5,1.79-9.5,9.1-9.5,3.56,0,6.88,1.19,6.88,4.52,0,.4,0,.6.23.6s.29-.43.29-1.79c0-1.65.19-3,.19-3.33s-.05-.32-.37-.32c-1.08,0-3.64-.76-7-.76-9.05,0-11.86,6.26-11.86,10.81m32.2-9.19,3.58.06c2.73.05,3.39.71,3.5,1.56l0,.31c0,.4.09.49.23.49s.2-.12.2-.37.08-2.28.08-3.13c0-.17,0-.34-.14-.34a13.93,13.93,0,0,1-2.81.28H287c-.34,0-1.42-.06-2.25-.14a5.47,5.47,0,0,1-1.25-.34c-.11,0-.23.37-.28.54s-.63,2.67-.63,3,.06.25.14.25.2-.05.29-.28a4.6,4.6,0,0,1,.48-.88c.45-.69,1.14-.88,2.9-.91l4.21-.06v12c0,2.73,0,5-.14,6.18-.11.82-.26,1.45-.83,1.56a4,4,0,0,1-.85.11c-.17,0-.23.09-.23.17s.14.23.46.23c.85,0,2.64-.08,2.79-.08s1.93.08,3.5.08c.31,0,.45-.08.45-.23s-.06-.17-.23-.17a11.64,11.64,0,0,1-1.28-.11c-.85-.11-1-.74-1.11-1.56-.14-1.2-.14-3.45-.14-6.18ZM318.86,492c0,3-2.39,6.2-7.25,6.2-.66,0-3.56-.17-3.78-.17s-1.94.08-2.79.08c-.31,0-.46-.06-.46-.23s.06-.17.23-.17a3.05,3.05,0,0,0,.85-.11c.46-.14.6-.4.77-1.22a57.25,57.25,0,0,0,.2-6.52v-5c0-4.78,0-6-.08-6.46a1.28,1.28,0,0,0-1.2-1.31,5,5,0,0,0-1-.09c-.11,0-.22-.05-.22-.17s.14-.22.45-.22c1.28,0,3.07.08,3.22.08.68,0,1.79-.08,3.1-.08,4.66,0,5.69,2.84,5.69,4.26,0,2.33-1.34,3.73-2.68,5.12C316.05,486.69,318.86,488.71,318.86,492Zm-9.95-6.52c0,.2,0,.26.2.31a9.48,9.48,0,0,0,1.73.12c1.59,0,2-.06,2.59-.74a4.38,4.38,0,0,0,1-2.87c0-2.37-1.05-4.9-3.84-4.9a6.53,6.53,0,0,0-1.36.14c-.26.06-.34.15-.34.32Zm7.51,7.77a6.92,6.92,0,0,0-2.76-5.75,4.94,4.94,0,0,0-3.05-.85c-1.67,0-1.7,0-1.7.22v6.92c0,2.13.11,2.64,1,3.07a6.71,6.71,0,0,0,2.51.43A3.8,3.8,0,0,0,316.42,493.29Zm27.9-6.38c0,6.38-4.49,11.64-11.35,11.64-7.79,0-11-6.06-11-11.18a11,11,0,0,1,11.21-11.12C339.54,476.25,344.32,480.29,344.32,486.91Zm-2.73.8c0-6.83-4.15-10.49-8.65-10.49-4.75,0-8.3,3.12-8.3,9.35,0,6.63,4,10.9,9.1,10.9C336.3,497.47,341.59,496,341.59,487.71Zm18.87,2.19c0,2.73,0,5-.15,6.18-.11.82-.25,1.45-.82,1.56a4.22,4.22,0,0,1-.85.11c-.17,0-.23.09-.23.17s.14.23.46.23c.85,0,2.5-.08,2.73-.08s1.87.08,3.27.08c.31,0,.45-.08.45-.23s-.05-.17-.23-.17a9.14,9.14,0,0,1-1.11-.11c-.85-.11-1-.74-1.1-1.56a54,54,0,0,1-.15-6.18v-2.78h.15c1.36,1.67,7.39,8.19,8.67,9.24s1.94,1.59,3.44,1.73c.63.06,1.17.06,2,.06h1.45c.48,0,.62-.08.62-.23s-.17-.17-.37-.17a5.05,5.05,0,0,1-1.76-.37c-1.36-.57-1.85-1-4.24-3.24-1.17-1.08-7.08-7.2-7.82-8,.6-.71,5.54-5.55,6.26-6.23a10.73,10.73,0,0,1,3.07-2.45,4.31,4.31,0,0,1,1.59-.4c.23,0,.29-.05.29-.19s-.12-.2-.43-.2c-.71,0-2.59.08-2.73.08-.68,0-1.57-.08-2.13-.08-.21,0-.35.05-.35.2s.12.16.26.22a.56.56,0,0,1,.37.6c0,.48-.74,1.22-1.54,2.05-1,1.11-6.17,6.34-6.65,6.88h-.12v-1.7c0-4.44,0-5.24.06-6.15s.28-1.48,1-1.62a4.09,4.09,0,0,1,.71-.09c.12,0,.23-.05.23-.17s-.14-.22-.45-.22c-.86,0-2.51.08-2.77.08s-1.84-.08-3.12-.08c-.31,0-.46.05-.46.22s.12.17.23.17a5.07,5.07,0,0,1,1,.09c.94.2,1.16.66,1.22,1.62s.06,1.71.06,6.15ZM390.25,496c-.76,2-1.39,3.36-2.78,3.36-1.11,0-1.94-1.31-1.94-2.82,0-.42,0-.54-.2-.54s-.14,0-.2.29a24.41,24.41,0,0,0-.17,3.55.76.76,0,0,0,.43.71,4.75,4.75,0,0,0,2,.49c1.51,0,2.87-1.48,3.87-3.93l7-17c.8-2,1.28-2.42,1.68-2.67a2.54,2.54,0,0,1,1.37-.35c.22,0,.34-.05.34-.19s-.15-.2-.46-.2c-.82,0-2.05.08-2.22.08-.34,0-1.65-.08-2.78-.08-.46,0-.63.05-.66.22s.14.17.32.17a3.35,3.35,0,0,1,1.07.12.66.66,0,0,1,.35.65l-.43,1.34c-.74,2.25-3.87,10.38-5.46,14.36L384.91,480a6.89,6.89,0,0,1-.71-2.19.56.56,0,0,1,.36-.57,3.2,3.2,0,0,1,1.09-.15c.19,0,.28-.05.28-.19s-.26-.2-.77-.2c-1.08,0-2.36.08-2.64.08s-2-.08-3.33-.08c-.46,0-.74,0-.74.2s.06.19.23.19a4.21,4.21,0,0,1,1.08.12c1,.28,1.28.65,2,2.19Zm15.25-7.42,2.51-7.68q.21-.64.42,0l2.7,7.68.52,1.39,2.64,7c.17.45,0,.71-.17.77s-.2.08-.2.2.32.17.86.19c2,.06,4,.06,4.46.06s.57-.06.57-.23-.11-.17-.28-.17a3.7,3.7,0,0,1-1.14-.17c-.6-.17-1.43-.62-2.45-3.15-1.73-4.33-6.2-16.08-6.63-17.16-.34-.88-.45-1-.62-1s-.29.17-.63,1.11L401.6,495c-.5,1.43-1.07,2.51-2.39,2.68-.22,0-.62.05-.82.05s-.26.06-.26.17.17.23.55.23c1.33,0,2.89-.08,3.21-.08s1.53.08,2.22.08c.25,0,.42-.06.42-.23s-.08-.17-.28-.17H404c-.48,0-1.08-.25-1.08-.82a6.21,6.21,0,0,1,.4-1.91Zm30.61,3.5c0,3-2.39,6.2-7.25,6.2-.65,0-3.56-.17-3.78-.17s-1.94.08-2.79.08c-.31,0-.45-.06-.45-.23s.05-.17.22-.17a4.22,4.22,0,0,0,.86-.11c.56-.11.71-.74.82-1.56.14-1.2.14-3.45.14-6.18v-5l-.06-6.15a1.46,1.46,0,0,0-1.1-1.59,3.63,3.63,0,0,0-.88-.12c-.12,0-.23-.05-.23-.17s.14-.22.45-.22c.94,0,2.73.08,2.88.08s1.93-.08,2.78-.08c.32,0,.46.05.46.22s-.12.17-.23.17a4,4,0,0,0-.71.09c-.77.14-1,.63-1.05,1.62l0,6.77c0,.2,0,.26.2.31a9.48,9.48,0,0,0,1.73.12C431.11,486,436.11,486.8,436.11,492Zm-2.44,1.25a6.92,6.92,0,0,0-2.76-5.75c-1.62-1.11-2.59-.82-4.35-.82a.37.37,0,0,0-.4.42v1.4c0,2.19,0,5.72,0,6.14.08,1.4.08,1.79,1,2.22a6.74,6.74,0,0,0,2.51.43A3.8,3.8,0,0,0,433.67,493.29Zm13.82-15.42,3.58.06c2.74.05,3.39.71,3.5,1.56l0,.31c0,.4.09.49.23.49s.2-.12.2-.37.08-2.28.08-3.13c0-.17,0-.34-.14-.34a14.09,14.09,0,0,1-2.82.28H441.49c-.35,0-1.43-.06-2.25-.14a5.47,5.47,0,0,1-1.25-.34c-.11,0-.23.37-.29.54s-.62,2.67-.62,3,.05.25.14.25.2-.05.28-.28a4.87,4.87,0,0,1,.49-.88c.45-.69,1.14-.88,2.9-.91l4.21-.06v12c0,2.73,0,5-.14,6.18-.12.82-.26,1.45-.83,1.56a4,4,0,0,1-.85.11c-.17,0-.23.09-.23.17s.14.23.45.23c.86,0,2.65-.08,2.79-.08s1.94.08,3.5.08c.31,0,.46-.08.46-.23s-.06-.17-.23-.17a11.44,11.44,0,0,1-1.28-.11c-.85-.11-1-.74-1.11-1.56-.14-1.2-.14-3.45-.14-6.18Zm21,18.09c-.77,2-1.39,3.36-2.79,3.36-1.11,0-1.93-1.31-1.93-2.82,0-.42,0-.54-.2-.54s-.15,0-.2.29a24.41,24.41,0,0,0-.17,3.55.75.75,0,0,0,.43.71,4.71,4.71,0,0,0,2,.49c1.51,0,2.87-1.48,3.87-3.93l7-17c.79-2,1.28-2.42,1.67-2.67a2.54,2.54,0,0,1,1.37-.35c.23,0,.34-.05.34-.19s-.14-.2-.45-.2c-.83,0-2.05.08-2.22.08-.34,0-1.65-.08-2.79-.08-.46,0-.63.05-.65.22s.14.17.31.17a3.41,3.41,0,0,1,1.08.12.65.65,0,0,1,.34.65l-.43,1.34c-.73,2.25-3.87,10.38-5.46,14.36L463.14,480a7.17,7.17,0,0,1-.71-2.19.57.57,0,0,1,.37-.57,3.17,3.17,0,0,1,1.08-.15c.2,0,.29-.05.29-.19s-.26-.2-.77-.2c-1.08,0-2.36.08-2.65.08s-2-.08-3.33-.08c-.45,0-.74,0-.74.2s.06.19.23.19a4.17,4.17,0,0,1,1.08.12c1,.28,1.28.65,2.05,2.19Zm15.71-6.06c0,2.73,0,5-.14,6.18-.11.82-.26,1.45-.83,1.56a4,4,0,0,1-.85.11c-.17,0-.23.09-.23.17s.15.23.46.23c.85,0,2.64-.08,2.73-.08s1.93.08,3.5.08c.31,0,.45-.08.45-.23s-.05-.17-.23-.17a11.64,11.64,0,0,1-1.28-.11c-.85-.11-1-.74-1.1-1.56-.15-1.2-.15-3.45-.15-6.18V478.21c0-.28.06-.48.23-.54a3.63,3.63,0,0,1,1.23-.17,4.94,4.94,0,0,1,3.89,1.42,6,6,0,0,1,1.59,4.38,4.72,4.72,0,0,1-4.92,4.64c-.59,0-.77,0-.77.26s.18.19.32.19a4,4,0,0,0,.6,0c4,0,7-2.73,7-6.77a4.93,4.93,0,0,0-1.43-3.38c-.46-.43-1.73-1.62-5.29-1.62-1.31,0-3,.08-3.59.08-.22,0-1.93-.08-3.21-.08-.31,0-.45.05-.45.22s.11.17.23.17a5,5,0,0,1,1,.09c.94.2,1.17.66,1.22,1.62s.06,1.71.06,6.15ZM514.7,492c0,3-2.39,6.2-7.25,6.2-.66,0-3.56-.17-3.79-.17s-1.93.08-2.78.08c-.32,0-.46-.06-.46-.23s.06-.17.23-.17a4.13,4.13,0,0,0,.85-.11c.57-.11.71-.74.83-1.56.14-1.2.14-3.45.14-6.18v-5c0-4.44,0-4.36-.06-6.15a1.47,1.47,0,0,0-1.11-1.59,3.52,3.52,0,0,0-.88-.12c-.11,0-.23-.05-.23-.17s.15-.22.46-.22c.94,0,2.73.08,2.87.08s1.94-.08,2.79-.08c.31,0,.45.05.45.22s-.11.17-.22.17a4.18,4.18,0,0,0-.72.09c-.76.14-1,.63-1.05,1.62l0,6.77c0,.2.06.26.2.31a9.75,9.75,0,0,0,1.74.12h.91C511.46,486,514.7,488.17,514.7,492Zm-2.45,1.25c0-2.59-1.45-6.4-5.88-6.4-1.46,0-1.66.25-1.63,1v.66c0,2.19,0,5.72,0,6.14.09,1.4.09,1.79,1,2.22a6.69,6.69,0,0,0,2.5.43A3.8,3.8,0,0,0,512.25,493.29Zm9.33-8.39c0-4.44,0-5.24.06-6.15s.29-1.48,1.05-1.62a4.18,4.18,0,0,1,.72-.09c.11,0,.22-.05.22-.17s-.14-.22-.45-.22c-.86,0-2.65.08-2.79.08s-1.93-.08-2.87-.08c-.32,0-.46.05-.46.22s.12.17.23.17a3.52,3.52,0,0,1,.88.12c.62.14.91.63,1,1.59s.06,1.71.06,6.15v5c0,2.73,0,5-.15,6.18-.11.82-.26,1.45-.82,1.56a4.22,4.22,0,0,1-.85.11c-.18,0-.23.09-.23.17s.14.23.45.23c.86,0,2.65-.08,2.79-.08s1.93.08,3.5.08c.31,0,.46-.08.46-.23s-.06-.17-.23-.17a11.25,11.25,0,0,1-1.28-.11c-.86-.11-1-.74-1.11-1.56-.15-1.2-.15-3.45-.15-6.18Zm-448,41.15c0,2.73,0,5-.14,6.18-.12.82-.26,1.44-.83,1.56a4.15,4.15,0,0,1-.85.12c-.17,0-.23.08-.23.17s.14.22.46.22c.85,0,2.64-.08,2.73-.08s1.93.08,3.5.08c.31,0,.46-.08.46-.22s-.06-.17-.24-.17a11.57,11.57,0,0,1-1.27-.12c-.86-.12-1-.74-1.11-1.56-.15-1.2-.15-3.45-.15-6.18v-11.7c0-.28.06-.48.23-.54a3.6,3.6,0,0,1,1.22-.17,5,5,0,0,1,3.9,1.42,6.06,6.06,0,0,1,1.6,4.39,4.73,4.73,0,0,1-4.93,4.64c-.6,0-.76,0-.76.25s.16.2.31.2a3.89,3.89,0,0,0,.59,0c4.05,0,7-2.73,7-6.77a4.94,4.94,0,0,0-1.43-3.39c-.45-.43-1.73-1.62-5.29-1.62-1.31,0-3,.09-3.58.09-.23,0-1.94-.09-3.22-.09-.31,0-.46.05-.46.23s.12.17.23.17a5.08,5.08,0,0,1,1,.08c.94.2,1.17.65,1.22,1.62s.06,1.71.06,6.15Zm37.42-3c0,6.38-4.5,11.64-11.35,11.64-7.8,0-11.05-6.06-11.05-11.19a11,11,0,0,1,11.22-11.12C106.22,512.39,111,516.43,111,523.06Zm-2.73.8c0-6.83-4.16-10.5-8.65-10.5-4.76,0-8.31,3.13-8.31,9.36,0,6.63,4,10.9,9.1,10.9C103,533.62,108.27,532.14,108.27,523.86Zm7.17-.66c0,6.58,4.16,11.5,12.84,11.5a16.65,16.65,0,0,0,5.12-.65c.51-.23.57-.29.74-.83a30.17,30.17,0,0,0,.62-3.64c0-.23,0-.43-.2-.43s-.22.11-.28.43a5.58,5.58,0,0,1-1.05,2.39c-1.14,1.17-2.82,1.43-4.95,1.43A10.29,10.29,0,0,1,118,523c0-5,1.79-9.51,9.11-9.51,3.55,0,6.89,1.19,6.89,4.53,0,.39,0,.59.22.59s.29-.43.29-1.79c0-1.65.2-3,.2-3.33s-.06-.31-.37-.31c-1.08,0-3.65-.77-7-.77-9,0-11.87,6.26-11.87,10.81m22.91,0c0,6.58,4.15,11.5,12.83,11.5a16.61,16.61,0,0,0,5.12-.65c.52-.23.57-.29.74-.83a28.69,28.69,0,0,0,.63-3.64c0-.23-.06-.43-.2-.43s-.23.11-.28.43a5.49,5.49,0,0,1-1.06,2.39c-1.14,1.17-2.82,1.43-4.95,1.43A10.28,10.28,0,0,1,140.91,523c0-5,1.79-9.51,9.1-9.51,3.56,0,6.89,1.19,6.89,4.53,0,.39,0,.59.23.59s.28-.43.28-1.79c0-1.65.2-3,.2-3.33s-.05-.31-.37-.31c-1.08,0-3.64-.77-7-.77-9.05,0-11.86,6.26-11.86,10.81m26.15,10.93c-.15.94.31,1.06.68.46l.34-.46,2.36-3c3.53-4.61,7.26-9.08,11-13.46.25-.32.4-.15.4.2v8.22c0,2.73,0,5-.15,6.18-.11.82-.25,1.44-.82,1.56a4.24,4.24,0,0,1-.85.12c-.18,0-.23.08-.23.17s.14.22.45.22c.86,0,2.65-.08,2.79-.08s1.93.08,3.5.08c.31,0,.46-.08.46-.22s-.06-.17-.23-.17a11.51,11.51,0,0,1-1.28-.12c-.85-.12-1-.74-1.11-1.56-.14-1.2-.14-3.45-.14-6.18V513.19c.14-.94-.32-1.06-.69-.46-5.83,7.54-9.82,12.3-13.86,17-.11.15-.25.12-.25-.11,0-9.39,0-13.8.05-14.72s.29-1.48,1.06-1.62a3.79,3.79,0,0,1,.71-.08c.11,0,.22-.06.22-.17s-.14-.23-.45-.23c-.85,0-2.65.09-2.79.09s-1.93-.09-3.21-.09c-.32,0-.46.05-.46.23s.11.17.23.17a5.15,5.15,0,0,1,1,.08c.93.2,1.16.65,1.22,1.62s0,1.71.06,6.15Zm27.31,0c-.14.94.32,1.06.69.46l.34-.46c.85-1.08,1.62-2.1,2.36-3,3.53-4.61,7.26-9.08,11-13.46.26-.32.4-.15.4.2v8.22c0,2.73,0,5-.14,6.18-.11.82-.26,1.44-.82,1.56a4.24,4.24,0,0,1-.86.12c-.17,0-.23.08-.23.17s.15.22.46.22c.85,0,2.64-.08,2.79-.08s1.93.08,3.5.08c.31,0,.45-.08.45-.22s0-.17-.22-.17a11.89,11.89,0,0,1-1.29-.12c-.85-.12-1-.74-1.11-1.56-.14-1.2-.14-3.45-.14-6.18V513.19c.14-.94-.31-1.06-.68-.46-5.83,7.54-9.82,12.3-13.86,17-.11.15-.26.12-.26-.11,0-9.39,0-13.8.06-14.72s.29-1.48,1.05-1.62a3.8,3.8,0,0,1,.72-.08c.11,0,.22-.06.22-.17s-.14-.23-.45-.23c-.86,0-2.65.09-2.79.09s-1.94-.09-3.22-.09c-.31,0-.45.05-.45.23s.11.17.23.17a5,5,0,0,1,1,.08c.94.2,1.17.66,1.22,1.62s0,1.71.06,6.15Zm24.08-10.93c0,6.58,4.15,11.5,12.83,11.5a16.57,16.57,0,0,0,5.12-.65c.52-.23.57-.29.74-.83a28.69,28.69,0,0,0,.63-3.64c0-.23-.06-.43-.2-.43s-.23.11-.28.43a5.49,5.49,0,0,1-1.06,2.39c-1.13,1.17-2.82,1.43-4.95,1.43A10.28,10.28,0,0,1,218.45,523c0-5,1.79-9.51,9.1-9.51,3.56,0,6.89,1.19,6.89,4.53,0,.39,0,.59.23.59s.28-.43.28-1.79c0-1.65.2-3,.2-3.33s-.05-.31-.37-.31c-1.08,0-3.64-.77-7-.77-9.05,0-11.86,6.26-11.86,10.81M242,526.05c0,2.73,0,5-.14,6.18-.12.82-.26,1.44-.83,1.56a4.24,4.24,0,0,1-.85.12c-.17,0-.23.08-.23.17s.14.22.45.22c.86,0,2.51-.08,2.73-.08s1.88.08,3.28.08c.31,0,.45-.08.45-.22s-.05-.17-.23-.17a9.67,9.67,0,0,1-1.11-.12c-.85-.12-1-.74-1.1-1.56-.15-1.2-.15-3.45-.15-6.18v-2.79h.15c1.36,1.68,7.4,8.2,8.68,9.25s1.93,1.6,3.44,1.74c.62,0,1.16,0,2,0H260c.49,0,.63-.08.63-.22s-.17-.17-.37-.17a5.14,5.14,0,0,1-1.76-.38c-1.37-.56-1.85-1-4.25-3.24-1.16-1.08-7.08-7.2-7.82-8,.6-.72,5.55-5.55,6.26-6.24a10.76,10.76,0,0,1,3.08-2.45,4.23,4.23,0,0,1,1.59-.39c.22,0,.28-.06.28-.2s-.11-.2-.43-.2c-.71,0-2.58.09-2.72.09-.69,0-1.57-.09-2.14-.09-.2,0-.34.05-.34.2s.11.17.25.22a.57.57,0,0,1,.38.6c0,.48-.75,1.23-1.54,2.05-1,1.11-6.18,6.35-6.66,6.89h-.12V521c0-4.44,0-5.23.06-6.15s.29-1.48,1-1.62a4,4,0,0,1,.72-.08c.11,0,.23-.06.23-.17s-.15-.23-.46-.23c-.86,0-2.5.09-2.76.09s-1.85-.09-3.13-.09c-.32,0-.46.05-.46.23s.12.17.23.17a5.08,5.08,0,0,1,1,.08c.93.2,1.16.65,1.22,1.62s.06,1.71.06,6.15Zm40.55-3c0,6.38-4.5,11.64-11.36,11.64-7.8,0-11-6.06-11-11.19a11,11,0,0,1,11.21-11.12C277.8,512.39,282.59,516.43,282.59,523.06Zm-2.74.8c0-6.83-4.15-10.5-8.65-10.5-4.75,0-8.31,3.13-8.31,9.36,0,6.63,4,10.9,9.11,10.9C274.56,533.62,279.85,532.14,279.85,523.86Zm8.82,10.27c-.14.94.31,1.06.68.46l.34-.46c.86-1.08,1.63-2.1,2.37-3,3.53-4.61,7.25-9.08,11-13.46.26-.32.4-.15.4.2v8.22c0,2.73,0,5-.14,6.18-.12.82-.26,1.44-.83,1.56a4.24,4.24,0,0,1-.85.12c-.18,0-.23.08-.23.17s.14.22.45.22c.86,0,2.65-.08,2.79-.08s1.94.08,3.5.08c.32,0,.46-.08.46-.22s-.06-.17-.23-.17a11.73,11.73,0,0,1-1.28-.12c-.86-.12-1-.74-1.11-1.56-.14-1.2-.14-3.45-.14-6.18V513.19c.14-.94-.32-1.06-.69-.46-5.83,7.54-9.82,12.3-13.85,17-.12.15-.26.12-.26-.11,0-9.39,0-13.8.06-14.72s.28-1.48,1.05-1.62a3.79,3.79,0,0,1,.71-.08c.11,0,.23-.06.23-.17s-.14-.23-.46-.23c-.85,0-2.64.09-2.79.09s-1.93-.09-3.21-.09c-.31,0-.46.05-.46.23s.12.17.23.17a5.08,5.08,0,0,1,1,.08c.94.2,1.16.66,1.22,1.62s0,1.71.06,6.15Zm46.41-2-.06.09c.12,1,0,2.25,1.11,2.42.4,0,1,.11,1.29.11s.22.08.22.17-.14.23-.45.23c-1.56,0-3.36-.09-3.5-.09s-1.94.09-2.79.09c-.32,0-.46-.06-.46-.23s.06-.17.23-.17a4.82,4.82,0,0,0,.85-.11c.86-.2.71-1.43.92-2.42l-.06-.09c-6.75-.48-9.85-4.86-9.85-8.76,0-3.5,3-8.37,9.79-8.91l.06-.09c-.09-.82-.34-1.71-.91-1.85a4,4,0,0,0-.89-.11c-.11,0-.22-.06-.22-.17s.14-.23.45-.23c.94,0,2.74.09,2.88.09s1.94-.09,2.79-.09c.31,0,.45.06.45.23s-.11.17-.23.17a4.09,4.09,0,0,0-.71.09c-.71.14-.91,1-1,1.87l.05.09c5.61.43,9.65,3.58,9.65,8.42S340.91,531.49,335.08,532.11Zm-2.59-15.79-.05-.94c0-.2-.12-.2-.23-.17-4.07.51-7.15,3.21-7.15,7.8s3.11,7.42,7.09,8.25c.14.06.29,0,.29-.26.05-1.28.05-2.9.05-5v-9.73Zm2.56,15a7.4,7.4,0,0,0,7.12-7.74,8.09,8.09,0,0,0-6.38-8.17,1,1,0,0,0-.57-.06c-.2.09-.28.14-.31.86l0,.48v9.36c0,2.13,0,3.87.06,5.15A.13.13,0,0,0,335.05,531.32Zm18.81-17.13c0-.21.06-.26.17-.26.57,0,3.13.08,3.3.08,1.68,0,2.37.57,2.54.94a3,3,0,0,1,.25,1.08c0,.2.06.32.2.32s.2-.14.23-.29c.06-.34.11-1.59.14-1.87.09-.81.23-1.15.23-1.35s-.05-.31-.17-.31-.23.11-.4.17-.8.09-1.25.11-3.36.07-6.44.07c-.14,0-1.93-.09-3.21-.09-.31,0-.45.05-.45.23s.11.17.22.17a5.08,5.08,0,0,1,1,.08,1.26,1.26,0,0,1,1.19,1.31c.06.48.09,1.68.09,6.46v5a57.25,57.25,0,0,1-.2,6.52c-.17.83-.31,1.08-.77,1.22a2.77,2.77,0,0,1-.85.12c-.17,0-.23.08-.23.17s.14.22.46.22c.62,0,2.05-.08,2.78-.08s2.74.17,7,.17c1.11,0,1.33,0,1.53-.74a25.71,25.71,0,0,0,.37-2.76c0-.2,0-.43-.17-.43s-.2.12-.25.43c-.21,1.16-.54,1.73-1.29,2.05a8.2,8.2,0,0,1-2.73.31c-2.79,0-3.3-.45-3.3-2.33v-7.37a.18.18,0,0,1,.2-.2c.48,0,3.3.06,4.07.14,1.11.11,1.37.6,1.48,1a3,3,0,0,1,.11.93c0,.15.06.26.2.26s.2-.23.2-.54a28.2,28.2,0,0,1,.34-3.41c0-.18,0-.23-.14-.23s-.23.14-.43.37-.65.34-1.34.4-4.15.05-4.52.05c-.14,0-.17-.08-.17-.28Zm34.67,18.86c-.18.88-.61,3-.66,3.3s-.12.37-.29.37-.22-.08-.2-.48v-.31c0-.89-.08-1.77-2.44-1.77l-4.33,0H373l-4.89,0c-1.93,0-2.13.34-2.33,1a4.67,4.67,0,0,0-.06,1.25c0,.23-.06.28-.17.28s-.17-.08-.23-.25-.57-3.07-.6-3.3,0-.55.09-.55a4.47,4.47,0,0,0,1.45.35c1.51,0,2-.74,2.5-2l7-17.76c.34-.93.48-1.1.65-1.1s.29.14.68,1c.46,1.08,5.16,12.86,6.95,17.25a9.82,9.82,0,0,0,1.13,1.9,2.52,2.52,0,0,0,1.77.66c.88-.06,1.37-.23,1.54-.23S388.55,532.88,388.53,533.05Zm-6.1-.08s0-.06,0-.09l-6.31-16.13c-.15-.43-.46-.4-.6,0L370.54,531a6,6,0,0,0-.4,1.91V533C373.24,533.17,377.51,533.14,382.43,533Zm13.69-18.78c0-.21.05-.26.17-.26.57,0,3.13.08,3.3.08,1.68,0,2.36.57,2.54.94a3.27,3.27,0,0,1,.25,1.08c0,.2.06.32.2.32s.2-.14.22-.29c.07-.34.12-1.59.15-1.87.08-.81.22-1.15.22-1.35s-.05-.31-.16-.31-.23.11-.4.17-.8.09-1.26.11-3.36.07-6.43.07c-.14,0-1.93-.09-3.21-.09-.32,0-.46.05-.46.23s.12.17.23.17a5.08,5.08,0,0,1,1,.08,1.26,1.26,0,0,1,1.19,1.31c.06.48.09,1.68.09,6.46v5a57.25,57.25,0,0,1-.2,6.52c-.17.83-.31,1.08-.77,1.22a2.82,2.82,0,0,1-.85.12c-.17,0-.23.08-.23.17s.14.22.45.22c.63,0,2.05-.08,2.79-.08s2.73.17,7,.17c1.11,0,1.34,0,1.54-.74s.37-2.53.37-2.76,0-.43-.17-.43-.2.12-.26.43c-.2,1.16-.54,1.73-1.28,2.05a8.23,8.23,0,0,1-2.73.31c-2.79,0-3.3-.45-3.3-2.33v-7.37c0-.12.05-.2.19-.2.49,0,3.31.06,4.07.14,1.11.11,1.37.6,1.49,1a3,3,0,0,1,.11.93c0,.15.06.26.2.26s.2-.23.2-.54a28.2,28.2,0,0,1,.34-3.41c0-.18-.05-.23-.14-.23s-.23.14-.43.37-.66.34-1.34.4-4.15.05-4.52.05c-.15,0-.17-.08-.17-.28Zm16.56,11.86c0,2.73,0,5-.14,6.18-.11.82-.25,1.44-.82,1.56a4.24,4.24,0,0,1-.86.12c-.17,0-.22.08-.22.17s.14.22.45.22c.86,0,2.65-.08,2.73-.08s1.94.08,3.51.08c.3,0,.45-.08.45-.22s-.06-.17-.23-.17a11.73,11.73,0,0,1-1.28-.12c-.85-.12-1-.74-1.11-1.56-.14-1.2-.14-3.45-.14-6.18v-11.7c0-.28.06-.48.22-.54a3.67,3.67,0,0,1,1.23-.17,5,5,0,0,1,3.9,1.42,6,6,0,0,1,1.59,4.39,4.72,4.72,0,0,1-4.92,4.64c-.6,0-.77,0-.77.25s.17.2.31.2a4.09,4.09,0,0,0,.6,0c4,0,7-2.73,7-6.77a5,5,0,0,0-1.42-3.39c-.46-.43-1.74-1.62-5.29-1.62-1.31,0-3,.09-3.59.09-.23,0-1.93-.09-3.22-.09-.31,0-.45.05-.45.23s.11.17.23.17a5,5,0,0,1,1,.08c1,.2,1.17.65,1.23,1.62s.05,1.71.05,6.15Zm33.32,8c0,.17-.25.22-.56.22s-2.51,0-4.48,0c-.54,0-.85,0-.85-.2a.21.21,0,0,1,.2-.2.39.39,0,0,0,.23-.4.87.87,0,0,0-.06-.37l-2.64-7a.26.26,0,0,0-.26-.17h-6.12a.28.28,0,0,0-.28.23l-1.71,5a5.93,5.93,0,0,0-.4,1.91c0,.57.6.83,1.08.83h.29c.2,0,.28.05.28.17s-.17.22-.42.22c-.69,0-1.92-.08-2.23-.08s-1.87.08-3.21.08c-.37,0-.54,0-.54-.22s.11-.17.25-.17a8.31,8.31,0,0,0,.83-.06c1.31-.18,1.88-1.26,2.39-2.68l6.46-17.67c.34-.94.46-1.11.63-1.11s.28.14.62,1c.43,1.09,4.9,12.84,6.63,17.17,1,2.53,1.85,3,2.45,3.15a3.54,3.54,0,0,0,1.14.18C445.89,533.91,446,533.93,446,534.08Zm-8.68-9.4-2.7-7.68c-.09-.23-.14-.31-.23-.31s-.14.11-.19.31l-2.51,7.68c-.06.15,0,.21.08.21h5.44C437.35,524.89,437.35,524.8,437.32,524.68Zm27.4,7.55a4,4,0,0,1-.19,1,99.28,99.28,0,0,1-11.7,0,2.49,2.49,0,0,1-.23-1c-.14-1.2-.14-3.45-.14-6.18,0-9.47,0-10.24.06-11.16s.29-1.48,1.05-1.62a3.88,3.88,0,0,1,.71-.08c.12,0,.23-.06.23-.17s-.14-.23-.46-.23c-.85,0-2.64.09-2.79.09s-1.93-.09-3.21-.09c-.31,0-.46.05-.46.23s.12.17.23.17a5.08,5.08,0,0,1,1,.08c.94.2,1.17.66,1.22,1.62s.06,1.71.06,6.15v5c0,2.73,0,5-.14,6.18-.12.82-.26,1.44-.83,1.56a4.05,4.05,0,0,1-.85.12c-.17,0-.23.08-.23.17s.14.22.46.22c.85,0,2.64-.08,2.78-.08s1.2.06,2.42.08H464c.89,0,1.92-.08,2-.08h1.37c2.31,0,2.22,1,2.22,1.85v.31c0,.4.06.49.2.49s.23-.12.29-.37.45-2.42.62-3.28c0-.17.06-.34-.08-.34s-.63.17-1.48.23c-.4,0-1.94.54-1.88-1.77-.06-1.28-.06-3.12-.06-5.29v-5c0-4.44,0-5.23.06-6.15s.28-1.48,1.05-1.62a3.79,3.79,0,0,1,.71-.08c.12,0,.23-.06.23-.17s-.14-.23-.46-.23c-.85,0-2.64.09-2.79.09s-1.93-.09-3.21-.09c-.31,0-.46.05-.46.23s.12.17.23.17a5.08,5.08,0,0,1,1,.08c.94.2,1.17.66,1.22,1.62s.06,1.71.06,6.15v5c0,2.73,0,5-.15,6.18m12.66,1.9c-.13.94.32,1.06.69.46l.34-.46,2.36-3c3.54-4.61,7.26-9.08,11-13.46.25-.32.4-.15.4.2v8.22c0,2.73,0,5-.15,6.18-.12.82-.25,1.44-.83,1.56a4.05,4.05,0,0,1-.85.12c-.16,0-.23.08-.23.17s.15.22.46.22c.86,0,2.65-.08,2.79-.08s1.94.08,3.5.08c.31,0,.45-.08.45-.22s-.05-.17-.22-.17a11.73,11.73,0,0,1-1.28-.12c-.85-.12-1-.74-1.12-1.56-.13-1.2-.13-3.45-.13-6.18V513.19c.13-.94-.32-1.06-.69-.46-5.83,7.54-9.81,12.3-13.86,17-.11.15-.25.12-.25-.11,0-9.39,0-13.8.05-14.72s.29-1.48,1.06-1.62a3.79,3.79,0,0,1,.71-.08c.11,0,.23-.06.23-.17s-.15-.23-.46-.23c-.85,0-2.64.09-2.79.09s-1.94-.09-3.21-.09c-.32,0-.46.05-.46.23s.11.17.23.17a4.91,4.91,0,0,1,1,.08c.94.2,1.17.65,1.23,1.62s0,1.71.05,6.15Zm27.52,0c-.14.94.31,1.06.68.46l.34-.46,2.37-3c3.52-4.61,7.25-9.08,11-13.46.25-.32.39-.15.39.2v8.22c0,2.73,0,5-.14,6.18-.11.82-.25,1.44-.82,1.56a4.15,4.15,0,0,1-.85.12c-.18,0-.23.08-.23.17s.14.22.46.22c.85,0,2.64-.08,2.78-.08s1.94.08,3.5.08c.32,0,.46-.08.46-.22s-.06-.17-.23-.17a11.73,11.73,0,0,1-1.28-.12c-.86-.12-1-.74-1.11-1.56-.14-1.2-.14-3.45-.14-6.18V513.19c.14-.94-.31-1.06-.69-.46-5.83,7.54-9.81,12.3-13.86,17-.11.15-.25.12-.25-.11,0-9.39,0-13.8.06-14.72s.28-1.48,1-1.62a3.88,3.88,0,0,1,.71-.08c.12,0,.23-.06.23-.17s-.14-.23-.46-.23c-.85,0-2.65.09-2.78.09s-1.94-.09-3.22-.09c-.31,0-.46.05-.46.23s.12.17.23.17a5.08,5.08,0,0,1,1,.08c.94.2,1.17.65,1.22,1.62s0,1.71.06,6.15ZM205.56,508c.26-.36.34-.66.11-.76s-.37.12-.8.55a4.31,4.31,0,0,1-2.91,1.42,1.91,1.91,0,0,1-2.11-1.85c-.08-.79.16-1.34-.4-1.34-.79,0-1.4,1.23-1.4,2,0,1.06,1.11,2.17,3.36,2.18A5.33,5.33,0,0,0,205.56,508Zm96.2,0c.26-.36.34-.66.11-.76s-.37.12-.79.55a4.35,4.35,0,0,1-2.92,1.42,1.91,1.91,0,0,1-2.11-1.85c-.08-.79.16-1.34-.4-1.34-.79,0-1.4,1.23-1.4,2,0,1.06,1.12,2.17,3.36,2.18A5.33,5.33,0,0,0,301.76,508Z"/><path class="cls-2" d="M236.14,319.74l2.46-5.26-1.58-.71-3.38,4.32.41,1.89Zm12.31,1.42.09-5.13-1.79-.23-1.25,4.9,1.17,1.55Zm99.86,1.09,1.15-1.55-1.25-4.9-1.8.23.1,5.13ZM360.9,320l.42-1.89L358,313.77l-1.56.71,2.42,5.26Zm7.73-8.07-.59-1.86-5.31-2.2-.79,1.62,4.8,3.28ZM225.86,287.86l.43,2,5.45,2,.85-1.57-4.88-3Zm4.93,11.2-5.7-.74-1.46,1.3,1.25,1.68,5.78-.45Zm-3.56,11-.6,1.86,1.91.84,4.78-3.28-.78-1.62ZM369,289.9l.42-2-1.86-.59-4.88,3,.85,1.57Zm62.9,2.35a24.51,24.51,0,0,0-5.54-2.08,31.32,31.32,0,0,0-6.57-.49,28.48,28.48,0,0,0,4.34-2c7.1-4.32,8-12.51,8-12.51s-4.21-.42-6.57-.39a45.8,45.8,0,0,0-7.94.61,20.19,20.19,0,0,0,6.54-4.49c5.51-5.37,4.65-13.18,4.65-13.18a13.24,13.24,0,0,0-5.18-.42,10.19,10.19,0,0,0-4.76,1.19c4.76-5.37,5.4-8.68,5.92-12.25.79-5.42-1.11-9.31-1.55-9.58a15.35,15.35,0,0,0-5.52,3c-3.55,2.72-8.52,7.32-8.52,7.32a22.6,22.6,0,0,0,2.76-4.45c6.18-12.6,5.47-22.52,3.83-25.49-1.77-3.27-5.2-3.46-6.78-1.08-1.2,1.78-4.74,9.4-7.61,14.84a135,135,0,0,1-12.89,19.9c-1.34-2.88-2.65-.86-2.65-.86s-2,3.4-4.26,7.12a35,35,0,0,1-6.33,7.56,12.72,12.72,0,0,0-4.1-3.35l-.63.63s-14.75,15.42-19.3,21.39-1.14,8.84,2.16,13.72,1.87,10.53-5,13.23c-5.9,2.32-10,.2-11.69-2.69,4.34-1.79,8.72-6.17,8.75-12.19a15.62,15.62,0,0,0-.32-3.13,12.71,12.71,0,0,0-12.63-10.46,14.78,14.78,0,0,0-6.23,1.41,12.35,12.35,0,0,0-2.89,1.89l-.57.48c-2.77-5.06-2.57-9,.82-15.56a25.18,25.18,0,0,1,9.93-10.19l1.41,1.14s0-.52,3-1.9a6.89,6.89,0,0,1,8.58,1.77,9.24,9.24,0,0,1,2,5.79,10,10,0,0,0,2.64-3.91,5.84,5.84,0,0,0-.18-3.85s2.46.93,5.13,2c2.47,1,6.88,2.57,10.77-.81a9.57,9.57,0,0,0,3.15-8.19,10.7,10.7,0,0,1-6.68,4.28c-3.3.65-6.91-1.26-9.56-2.4a30.16,30.16,0,0,0-6.16-1.63s3.15-2.67,8.59-1c4,1.22,4.5,2.78,4.5,2.78a11.81,11.81,0,0,0,3.41-4.53,7.14,7.14,0,0,0-1.89-8.44c-2.34-2.21-7-3.52-7-3.52s.79-1.24-.83-1.76c-1.4-.47-2.82-.85-2.82-.85a4.64,4.64,0,0,0-2.68-5.52c-6.19-2.8-16.08,2.39-26.83,3.92-7.25,1-10.34-1.18-10.34-1.18a8.46,8.46,0,0,0,2,3.16,18.39,18.39,0,0,0,4.74,3.75,15.43,15.43,0,0,1-3.91.12c-1.75-.25-4.89-1-4.89-1a11.72,11.72,0,0,0,2.89,3,23.17,23.17,0,0,0,3.9,2.28,58.88,58.88,0,0,1-7.3,3,41.52,41.52,0,0,1-8.82,1.13,14,14,0,0,0,4.41,2.77,18.34,18.34,0,0,0,3.79,1.13,56.84,56.84,0,0,0-4.78,7.67c-1.76,3.32-4.5,9.66-6,13.17-1.5-3.51-4.25-9.85-6-13.17a56.19,56.19,0,0,0-4.79-7.67,18.19,18.19,0,0,0,3.78-1.13,13.86,13.86,0,0,0,4.4-2.77,41.32,41.32,0,0,1-8.8-1.13,58.42,58.42,0,0,1-7.29-3,22.18,22.18,0,0,0,3.88-2.28,11.26,11.26,0,0,0,2.9-3s-3.14.76-4.9,1a15.33,15.33,0,0,1-3.9-.12,18.59,18.59,0,0,0,4.74-3.75,8.55,8.55,0,0,0,2-3.16s-3.09,2.21-10.33,1.18c-10.75-1.53-20.62-6.72-26.84-3.92a4.63,4.63,0,0,0-2.65,5.52s-1.44.38-2.84.85c-1.62.52-.8,1.76-.8,1.76s-4.73,1.31-7.06,3.52a7.11,7.11,0,0,0-1.89,8.44,11.66,11.66,0,0,0,3.39,4.53s.49-1.56,4.5-2.78c5.45-1.66,8.61,1,8.61,1a30.53,30.53,0,0,0-6.18,1.63c-2.64,1.14-6.23,3.05-9.56,2.4a10.69,10.69,0,0,1-6.67-4.28,9.6,9.6,0,0,0,3.15,8.19c3.9,3.38,8.31,1.8,10.76.81,2.69-1.1,5.13-2,5.13-2a5.84,5.84,0,0,0-.16,3.85,9.89,9.89,0,0,0,2.64,3.91,9.1,9.1,0,0,1,2-5.79,6.87,6.87,0,0,1,8.57-1.77c3,1.38,3,1.9,3,1.9l1.39-1.14a25.29,25.29,0,0,1,9.95,10.19c3.41,6.57,3.72,10.34.9,15.43-.08-.06-.2-.2-.27-.26a16.59,16.59,0,0,0-3.54-2,14.93,14.93,0,0,0-6.25-1.41,12.65,12.65,0,0,0-12.6,10.44,14.65,14.65,0,0,0-.34,3.15,12.89,12.89,0,0,0,8.78,12.21c-1.65,2.88-5.77,5-11.69,2.67-6.85-2.7-8.26-8.36-5-13.23s6.72-7.75,2.16-13.72-19.29-21.39-19.29-21.39l-.63-.63A12.89,12.89,0,0,0,220,264.5a35.6,35.6,0,0,1-6.33-7.56c-2.23-3.72-4.25-7.12-4.25-7.12s-1.3-2-2.66.86a136.85,136.85,0,0,1-12.88-19.9c-2.87-5.44-6.4-13.06-7.61-14.84-1.58-2.38-5-2.19-6.78,1.08-1.63,3-2.34,12.89,3.84,25.49a22.34,22.34,0,0,0,2.75,4.45s-5-4.6-8.49-7.32a15.5,15.5,0,0,0-5.54-3c-.45.27-2.35,4.16-1.56,9.58.52,3.57,1.15,6.88,5.93,12.25a10.25,10.25,0,0,0-4.78-1.19,13.32,13.32,0,0,0-5.18.42s-.84,7.81,4.68,13.18a19.89,19.89,0,0,0,6.52,4.49,45.64,45.64,0,0,0-7.93-.61c-2.36,0-6.57.39-6.57.39s.86,8.19,8,12.51a28.36,28.36,0,0,0,4.33,2,31.36,31.36,0,0,0-6.56.49,24.35,24.35,0,0,0-5.53,2.08s2.83,7.45,10.06,10.07A14.67,14.67,0,0,0,177,303.4a31.58,31.58,0,0,0-6.31,2.36,24,24,0,0,0-4.5,3.11s3.69,6.78,10.49,8l1.12.22a32.18,32.18,0,0,0-5,3.95,24.51,24.51,0,0,0-3.38,4.83s5.7,5.95,13.94,5a16.85,16.85,0,0,0-2,2.79,20.55,20.55,0,0,0-2.26,6.6,18.49,18.49,0,0,0,13.19,1.13,12,12,0,0,0-1,2.54,40.93,40.93,0,0,0-.72,6.93s7.54,2.24,14.11-2.55a11.7,11.7,0,0,0-.88,3.81,41.26,41.26,0,0,0,.35,6.95s8.18,1,13.95-5c.14-.16.29-.33.45-.49a11.69,11.69,0,0,0-.1,2.1,41.11,41.11,0,0,0,1.35,6.82s8.23-.22,13.07-7a15.85,15.85,0,0,0,1.19-1.88,15.88,15.88,0,0,0,.9,4.66,24.18,24.18,0,0,0,2.36,4.57s6.78-2.08,9.24-8.81a32.29,32.29,0,0,0,1.56-10.31c.41.42.67.66.67.66a10.48,10.48,0,0,0,4.4-2.83,65.25,65.25,0,0,0-2.63,17.54c0,1.5.07,3,.21,4.58a30.94,30.94,0,0,0,1.33,7.68,28.73,28.73,0,0,1-2.35,3.66,6.79,6.79,0,0,0-2,5.2,2.79,2.79,0,0,0,2.38,2.46s-.24,2.52.63,3.69a5.14,5.14,0,0,0,2.69,1.8l1.94.48s.39,2.8,1.35,3.45a17.85,17.85,0,0,0,4,1.69c.71.25,2,1.16,2.82,1.56a5.66,5.66,0,0,0,4.91-.6,3.38,3.38,0,0,0,1.3-2.88c.57.26.66.28,1.19.49,1.87.73,3.31,1.55,3.38,1.87.87,1.44,1.4,5,1.78,7.56a12.62,12.62,0,0,0,.82,4.13c.06.12.15.24.21.35l-.59.23a26.68,26.68,0,0,0-6.64,3.38c-2.37,1.69-5.25,6.32-8.88,7.17-3.19.75-5.55-.71-5.83-2.7a17.26,17.26,0,0,1-.21-3s-4.36,2.57-4.69,5.69a5.81,5.81,0,0,0,3.13,5.75s-5.8,5.56-4,10.38c1.56,4.12,2.64,5.91,2.91,7.46a3.56,3.56,0,0,1-.41,2.56s2.92.34,3.59-3.64a9.3,9.3,0,0,1,1.65-4.39,3,3,0,0,0,.63-1,20.25,20.25,0,0,0,.59,6.26c.87,2.7,3.94,5.36,8.31,5.73a14,14,0,0,0,7.56-1.92s3.3,4.46,7.91,5.1a19.78,19.78,0,0,0,9.19-.84,32.42,32.42,0,0,0,2.41,3.71,19.09,19.09,0,0,0,2.8,2.87l1.47.83s1.74-1.69,2.89-3.1a34.15,34.15,0,0,0,2.75-4.91s5.18,1.9,9.73.92a17.23,17.23,0,0,0,7.65-4.12,9.73,9.73,0,0,0,7.2,2.69c4.39-.28,7.54-4.25,8.4-6.95a17.44,17.44,0,0,0,.49-6.11s.29.23,1,.86,1.26.89,1.78,3.81c.74,4,2.86,4.18,2.86,4.18a9.69,9.69,0,0,1,.61-4,32.45,32.45,0,0,0,2.85-6.83,8,8,0,0,0-4-9.35,6,6,0,0,0,2.94-5.34c-.34-4.61-5.25-6.21-5.25-6.21s.39.51.09,2.49-2.22,4-6,2.94c-2-.58-5.71-5.07-8.08-6.76a46.2,46.2,0,0,0-7.21-3.83,4.82,4.82,0,0,0-.51-.21.51.51,0,0,1,.09-.13,13.26,13.26,0,0,0,.84-4.13,35.84,35.84,0,0,1,1.44-6.9c.41-1,1.89-1.81,3.74-2.53.53-.21.59-.23,1.18-.49a3.35,3.35,0,0,0,1.32,2.88,5.63,5.63,0,0,0,4.9.6c.82-.4,2.11-1.31,2.81-1.56a18.27,18.27,0,0,0,4-1.69c.94-.65,1.33-3.45,1.33-3.45l2-.48a5.13,5.13,0,0,0,2.68-1.8c.88-1.17.62-3.69.62-3.69a2.8,2.8,0,0,0,2.4-2.46,6.82,6.82,0,0,0-2-5.2,27.53,27.53,0,0,1-2.35-3.66,31,31,0,0,0,1.32-7.68c.13-1.55.21-3.08.21-4.58a64.47,64.47,0,0,0-2.63-17.54,10.61,10.61,0,0,0,4.4,2.83s.27-.24.67-.66A32.86,32.86,0,0,0,348.7,354c2.47,6.73,9.25,8.81,9.25,8.81a24.62,24.62,0,0,0,2.37-4.57,15.75,15.75,0,0,0,.88-4.66,17.29,17.29,0,0,0,1.2,1.88c4.84,6.76,13.08,7,13.08,7a41.45,41.45,0,0,0,1.34-6.82,12.69,12.69,0,0,0-.1-2.1l.46.49c5.78,6,13.95,5,13.95,5a40.88,40.88,0,0,0,.33-6.95,11,11,0,0,0-.88-3.81c6.59,4.79,14.13,2.55,14.13,2.55a41.32,41.32,0,0,0-.73-6.93,13.17,13.17,0,0,0-1-2.54,18.45,18.45,0,0,0,13.17-1.13,20.55,20.55,0,0,0-2.26-6.6,15.77,15.77,0,0,0-2-2.79c8.24,1,14-5,14-5a24.74,24.74,0,0,0-3.39-4.83,31.7,31.7,0,0,0-5-3.95l1.12-.22c6.79-1.21,10.49-8,10.49-8a23.29,23.29,0,0,0-4.5-3.11,32,32,0,0,0-6.3-2.36,14.59,14.59,0,0,0,3.55-1.08c7.23-2.62,10.07-10.07,10.07-10.07m-9.12-15.12a25,25,0,0,1,5.44.48c-2.85,3.43-6,6.16-14.6,8.75a73.16,73.16,0,0,1-20.24,3.14c5.74-3.77,7.17-6.09,7.17-6.09s-.09-.49-2.16-1.28c1.91-.51,5.67-1.46,8.49-2.37,1.91-.65,3.11-1.07,5.22-2,.81-.11,7.05-.66,10.68-.66m-65.24,49.33a36.48,36.48,0,0,0,2.61,5.92,9.46,9.46,0,0,1-1.1,3.12,8.46,8.46,0,0,1-2,2.39,8.42,8.42,0,0,1-5.26-4.22c-1.22-2.31-1.17-5-1.22-6.59.64-.54,1.32-1.15,1.78-1.6a9.15,9.15,0,0,0,1.73-2.93A9.57,9.57,0,0,0,357,323.9c.1.62.28,1.52.54,2.53a.08.08,0,0,0,0,0l0,.06m2-1.75a11,11,0,0,0,3.15.71c.41-.36,1.15-1.32,1.39-1.59.92.87,1.44,2.11,6.3,5.11a16.26,16.26,0,0,1-.05,3.88,17.69,17.69,0,0,1-.6,3.09,12,12,0,0,1-5.82-3.28,17.76,17.76,0,0,1-4.37-7.92m6.23-2.43a8.12,8.12,0,0,0,.47-.76,10,10,0,0,0,1-4.47,46.81,46.81,0,0,0,10.5,4.78,22,22,0,0,1,.91,3.35,15,15,0,0,1,.35,3.23,24.42,24.42,0,0,1-7.29-2.08,17.58,17.58,0,0,1-6-4.05m9.26-4.55c-.94-.37-2.7-1.21-3.39-1.52a9.83,9.83,0,0,0,4-2.55,2.87,2.87,0,0,0-.5-1.17,21.52,21.52,0,0,0,6.39.61l.84,0c.51.49,2.68,1.42,4.1,3a8.69,8.69,0,0,1,2.4,3.94A40.39,40.39,0,0,1,375,317.73m6.35-8a59.22,59.22,0,0,1-8-.74,10.88,10.88,0,0,0-1.86-1.91A12,12,0,0,0,374.2,305c2.82.13,9,.26,14.11-1.53l.72-.27c.71.29,1.64.7,2.78,1.23a9.93,9.93,0,0,1,3.87,2.94c-1.71,1-8.55,2.5-14.31,2.37m1.59-8.36c-2.79.29-5.57.39-6.62.07a12.19,12.19,0,0,0,1-2.09c-.3-.93-1.38-1.95-3.38-3.56l-.46-.35a81.49,81.49,0,0,0,11.8-2.09,15.31,15.31,0,0,1,4.77,1.18c3.58,1.37,4.65,2.54,5.07,3A35.45,35.45,0,0,1,383,301.36m1.68-11.51c-6.7,1.82-10.09,2-11.63,2a11.86,11.86,0,0,0,2.15-4.06,58.57,58.57,0,0,0,12.47-6.15c.86,0,2.17,0,4.14.23a11,11,0,0,1,5.61,1.75c-2.15,2.45-7.16,4.76-12.74,6.27m37.13-30.24a11.05,11.05,0,0,1,4.65.08c-1.64,3-5.88,7.94-15.34,13.14a101.79,101.79,0,0,1-16.44,7.54,30.13,30.13,0,0,0-4.86-.5A27.89,27.89,0,0,0,394,275c3.3-1.27,13.92-5.61,22.05-13.63.1-.11.32-.26.43-.36a28.93,28.93,0,0,1,5.33-1.35m-32.3-6.87A128.52,128.52,0,0,0,398,241c3.81-6,8.73-16.4,11.91-22.84,1.51-3.07,4.62-1.77,4.68,2.89.06,6.79-5.15,17.86-9.5,23.37-8.63,10.92-12.72,13.39-16.07,15.65a15.1,15.1,0,0,0,.49-7.34m14.25,1c2-1.91,9.69-7.71,14.56-12.15a17.18,17.18,0,0,1,4.34-2.89c.57,3.6-1.52,8.45-3.37,11.5a42.11,42.11,0,0,1-10.53,11.11c-10.13,7.2-10.93,7.26-12.6,8a17.19,17.19,0,0,0-10.62.07,2.67,2.67,0,0,0,.57-1,119.35,119.35,0,0,0,17.65-14.71m-22.64,7.14a58.72,58.72,0,0,0,4.46-7.22c1.25-2.37,2.47-1.9,2.41.55-.07,4.38-2.28,8.92-5.15,12.58a19.8,19.8,0,0,1-6.45,5.48,9.48,9.48,0,0,0-.2-6.42,24.6,24.6,0,0,0,4.93-5m2.65,10.74c.81-.2,2.16-.5,4.23-.84a12.63,12.63,0,0,1,6.31.39,66.5,66.5,0,0,1-11.56,8.62,77,77,0,0,1-9.62,4.66,15.51,15.51,0,0,0-4.63-1.17s1.26-1.31,3.61-3.58a29.7,29.7,0,0,0,11.66-8.08M340,312.92c8.36,1.65,14.2-2.72,16.23-6.18s1.7-7.4-1.84-12.34-5.52-6.14,4.07-16.67,13.25-13.4,13.25-13.4,3.65,1.3,3.18,6.48c-.29,3.34-6,9-7.67,10.83S364,285,364,285a29.56,29.56,0,0,1,5.53.45,8.78,8.78,0,0,1,3.48,1.29s-.73,3.2-1.83,4.47-2.94,3.26-2.94,3.26a14.58,14.58,0,0,1,4.24,2.61,19.44,19.44,0,0,1,2.4,2.71,11.28,11.28,0,0,1-2.73,4.24,32.37,32.37,0,0,1-4.36,2.82,18.1,18.1,0,0,1,3.82,3.38,7,7,0,0,1,1.31,2.6,12.24,12.24,0,0,1-3.59,1.84,11,11,0,0,1-2.72.45h0a11.77,11.77,0,0,1-1.42,0,12.79,12.79,0,0,1-.67,4.66,8.09,8.09,0,0,1-2.55,3,19.25,19.25,0,0,1-4.81-1,20.08,20.08,0,0,1-3.48-2.39,23.18,23.18,0,0,1-2.48,3.91,9.22,9.22,0,0,1-2.42,1.67,31.09,31.09,0,0,1-3.25-1.67,19.41,19.41,0,0,1-2.36-1.88L338,325s-2.18-.79-5.09-5.94c0-.11-.1-.22-.15-.33a55,55,0,0,1-3.84-9.8c2.86,1.87,8.47,3.48,11.1,4m-7.31-28.28c6.85.16,12.37,8.21,8.59,15.2s-10.94,6.15-12.41,4a5.11,5.11,0,0,1,1-6.83c2.06-1.48,5.23.08,5.23.08l-.18-.24s-3-4.52-7.43-.56a4.82,4.82,0,0,0-1.77,3.67h-8a12.22,12.22,0,0,1,.34-2.11c1.4-7.88,7.73-13.35,14.55-13.2m-44.19,1.53a2.86,2.86,0,1,1,3.9,2.66V300h-2.19V288.78a2.88,2.88,0,0,1-1.71-2.61m5-4.83a5.15,5.15,0,0,0-3.9-.2,5.26,5.26,0,0,0-3.44,3.61,6.59,6.59,0,0,0-1.28-.16,5.25,5.25,0,0,0-3.83,1.64,5.3,5.3,0,0,0,.45,7.78v3.25h-1.85a22.11,22.11,0,0,0-2.95-7.38,27.4,27.4,0,0,0,5.13-9.06,42.13,42.13,0,0,0,1.73-8c.48.62,1,1.36,1.5,2.1a31.58,31.58,0,0,1,1.94,3.57l1,2.13.83-2.19a34.73,34.73,0,0,0,1.38-5.34c.22-1.22.37-2.31.48-3.2a30.76,30.76,0,0,1,2.33,3.34,29.83,29.83,0,0,1,2.13,4.55c.18.48.39,1.23.53,1.78a5.66,5.66,0,0,0-2.15,1.82m-11.4,8.6a2.85,2.85,0,1,1,3.93,2.62V300h-2.18v-7.4a2.86,2.86,0,0,1-1.75-2.61m43.7,12,.25,3.13-56.5.11.11-3.24Zm-16.46-17.23a5.09,5.09,0,0,0-3.45-3.86,5.59,5.59,0,0,0-4.48.37,3.86,3.86,0,0,0-1.58-1.55c.15-.54.39-1.4.58-1.93a28,28,0,0,1,2.13-4.55,30.76,30.76,0,0,1,2.33-3.34c.1.89.26,2,.47,3.2a34.73,34.73,0,0,0,1.38,5.34l.83,2.19,1-2.13a27.57,27.57,0,0,1,1.95-3.57c.49-.74,1-1.48,1.49-2.1a42.88,42.88,0,0,0,1.72,8,27.77,27.77,0,0,0,5,8.89,21.74,21.74,0,0,0-3.08,7.55h-1.86V294a5.24,5.24,0,0,0,2-4.11c0-2.94-2.08-5.53-6.38-5.2m-1.69,5.23a2.85,2.85,0,1,1,3.95,2.61V300h-2.17v-7.38a2.86,2.86,0,0,1-1.78-2.63m-6.2-4a2.84,2.84,0,1,1,3.77,2.68V300H303V288.46a2.81,2.81,0,0,1-1.59-2.55m47.87-24.6a8.48,8.48,0,0,0-3.48-3.61c-2.77-1.75-4-1.6-4-1.6a3.58,3.58,0,0,1,3.8-.39c2.22,1,3,1.75,3.51,3.16a4.85,4.85,0,0,1,.21,2.44m.64-7.18c2.38.82,7,2.65,8.75,3.34a10.13,10.13,0,0,0,8.29-.62s-1.55,3.82-6.83,3a28.2,28.2,0,0,1-9.1-3.47,15.29,15.29,0,0,0-4.82-1.94,6.52,6.52,0,0,1,3.71-.29m4-14.6a10.78,10.78,0,0,1,5.87,2.24c2.37,2,3.33,3.59,2.68,5.95s-1.77,2.92-1.77,2.92a10.41,10.41,0,0,0-6.37-2.13c-2.17-.09-7.19.39-9.44,2.64-.46.41-.84-.11-.51-.47a25.66,25.66,0,0,0,2.39-2.75,63.47,63.47,0,0,1,3.89-5c1.5-1.73,3.26-3.37,3.26-3.37m-38.37.9a31.91,31.91,0,0,0,4.35-.12,56.83,56.83,0,0,1,6.64-.56c2.4,0,4.93-.79,9.12.86s6.55,2.51,6.55,2.51a24.06,24.06,0,0,0,2.78-2.69,8.32,8.32,0,0,0,1.5-2.84,4.46,4.46,0,0,1-2.22.15,20.89,20.89,0,0,0-8.72-.9,45.72,45.72,0,0,1-13.47.36c-4.6-.71-5.5-2.11-5.5-2.11s2.18.61,10.06-.73c9.6-1.67,19.57-6.42,22.38-2.6.84,1.14.32,2.91-.23,4.24a31.07,31.07,0,0,1-5,7.73,48,48,0,0,1-4.54,4.2,35.22,35.22,0,0,1-6.33,3.4,45.93,45.93,0,0,1-6.39,1.82l6.64-10.87-2.21.5a40.53,40.53,0,0,0-8.74,3.22,38.06,38.06,0,0,0-4.32,2.84,27.33,27.33,0,0,1,.55-2.75,9.11,9.11,0,0,1,1.38-2.81,5.37,5.37,0,0,1,.73-.59l.74-.4c-.41-.07-1.32-.24-2.6-.59a13,13,0,0,1-3.17-1.27M337,238.65a6,6,0,0,1,1.84.37s-.19,1-.19,1-.11,0-1.61-.58-1.36-.61-1.36-.61-.18-.31,1.32-.16m4.13,2.23a1.56,1.56,0,0,0,.61-.38,4.89,4.89,0,0,0,.85-1.13l1.22.21-1.32,1.66Zm-39.92,28.7c.92-2.36,1.89-4.54,2.89-6.59a31.22,31.22,0,0,1,5.72-6.16c-.1.5-.23,1.05-.33,1.62a25.46,25.46,0,0,0-.45,5.08c0,.88,0,1.46,0,1.47l.19,3.37,1.64-2.95a34.2,34.2,0,0,1,3.27-4.82,21.12,21.12,0,0,1,3.51-3.28,24.42,24.42,0,0,0-1,3.66,27.81,27.81,0,0,0-.32,4.36,24.49,24.49,0,0,0,.2,3.47l.3,2.33,1.42-1.88s2.72-3.62,4.57-5.58a37.34,37.34,0,0,1,5-4.37c1.43-1,2.44-1.64,2.47-1.65l-1-1.67a40.81,40.81,0,0,0-7.91,6.36c-1,1.07-2.21,2.55-3.14,3.72,0-.23,0-.48,0-.73a25,25,0,0,1,.31-4.06,23.93,23.93,0,0,1,1.09-3.76c.44-1.26.83-2.25.83-2.25l1-2.41-2.31,1.19a23.1,23.1,0,0,0-6.47,5.31c-.59.7-1.16,1.46-1.66,2.17a23.71,23.71,0,0,1,.34-2.7c.48-2.28,1-4,1-4.06l.61-2.28-2,1.21a21.77,21.77,0,0,0-3,2.24c.24-.4.47-.79.72-1.17A35.11,35.11,0,0,1,312.2,250a23.9,23.9,0,0,0-3.63-1,8.38,8.38,0,0,1-1.92-.33s2.54-.71,5-1.51a31.52,31.52,0,0,0,5.34-2.55c-.11.26-.2.54-.31.84-.46,1.55-1,5.37-1,5.4l-.32,2.37,1.88-1.47a57.05,57.05,0,0,1,5.93-4.11,38.33,38.33,0,0,1,5.68-2.32l.27-.08-6.42,10.5,2.08-.33a43.93,43.93,0,0,0,8.92-2.15l1-.43a22.25,22.25,0,0,0,6-3.57,26.51,26.51,0,0,0,5.57-5.6c2.47-3.71,4.72-6.84,4.72-6.84a2,2,0,0,1,.91.06,8.88,8.88,0,0,1,.79.48s-1.51,1.43-2.53,2.61-3.58,4.82-5.33,7.33c-1.88,2.74-4.93,6.33-6.62,7.44-1.87,1.27-3.19,2.25-3.19,2.25l-1.92.21s-5.05,1.37-10.27,9.44-4.46,14.68-3,17.68c.27.54.89,1.61,1.39,2.4-.48.42-.91.88-1.38,1.36-.35-.44-.78-1-1.27-1.73a23.19,23.19,0,0,1-3.11-6.18,40.73,40.73,0,0,1-1.87-10l-.18-2.35L312,269.67a41.89,41.89,0,0,0-3.1,4.16c-.38.55-.72,1.12-1,1.64-.2-.76-.41-1.7-.61-2.76a44.1,44.1,0,0,1-.64-5.23l-.12-2.16-1.54,1.52a30.83,30.83,0,0,0-4.07,5.36c-.38.66-.78,1.3-1.14,1.92a43.14,43.14,0,0,1,1.46-4.54m-3.39,12.2a2.84,2.84,0,0,1,1,5.49V300h-2.19V287.21a2.84,2.84,0,0,1,1.15-5.43m-51.35-50c2.81-3.82,12.78.93,22.36,2.6,7.89,1.34,10.08.73,10.08.73s-.91,1.4-5.5,2.11a45.89,45.89,0,0,1-13.49-.36,20.77,20.77,0,0,0-8.7.9,4.42,4.42,0,0,1-2.22-.15,8.24,8.24,0,0,0,1.51,2.84,22.17,22.17,0,0,0,2.76,2.69s2.34-.84,6.55-2.51,6.72-.86,9.13-.86a57,57,0,0,1,6.64.56,31.92,31.92,0,0,0,4.35.12,13.06,13.06,0,0,1-3.16,1.27c-1.31.35-2.21.52-2.61.59l.72.4a9.44,9.44,0,0,1,.76.59,8.77,8.77,0,0,1,1.36,2.81,27.33,27.33,0,0,1,.55,2.75,37.1,37.1,0,0,0-4.31-2.84,41,41,0,0,0-8.73-3.22l-2.24-.5,6.66,10.87a45.26,45.26,0,0,1-6.4-1.82,36.53,36.53,0,0,1-6.32-3.4,46.84,46.84,0,0,1-4.54-4.2,30.69,30.69,0,0,1-5-7.73c-.56-1.33-1.07-3.1-.24-4.24m13.4,7.05s.16.07-1.34.61-1.6.58-1.6.58-.18-.95-.21-1a6.6,6.6,0,0,1,1.85-.37c1.5-.15,1.3.16,1.3.16m-5.44,2.07-1.35.36-1.33-1.66,1.23-.21a5.45,5.45,0,0,0,.84,1.13,1.49,1.49,0,0,0,.61.38m-13.26,7.63a10.56,10.56,0,0,0-6.4,2.13s-1.14-.55-1.76-2.92.32-3.91,2.7-5.95a10.76,10.76,0,0,1,5.86-2.24s1.76,1.64,3.28,3.37,2.2,2.74,3.88,5a24.56,24.56,0,0,0,2.39,2.75c.34.36-.06.88-.53.47-2.25-2.25-7.26-2.73-9.42-2.64m3.31,7.85a28.22,28.22,0,0,1-9.09,3.47c-5.31.84-6.83-3-6.83-3a10.07,10.07,0,0,0,8.27.62c1.77-.69,6.39-2.52,8.78-3.34a6.49,6.49,0,0,1,3.69.29,15.29,15.29,0,0,0-4.82,1.94m5.23,1.34a8.42,8.42,0,0,0-3.46,3.61,4.69,4.69,0,0,1,.19-2.44c.49-1.41,1.29-2.13,3.52-3.16a3.56,3.56,0,0,1,3.79.39s-1.26-.15-4,1.6m25.94,26.69c1.49-3,2.25-9.62-3-17.68s-10.27-9.44-10.27-9.44l-1.92-.21s-1.3-1-3.2-2.25c-1.68-1.11-4.72-4.7-6.61-7.44-1.74-2.51-4.3-6.13-5.31-7.33s-2.55-2.61-2.55-2.61a8.14,8.14,0,0,1,.8-.48,2,2,0,0,1,.9-.06s2.27,3.13,4.72,6.84a26.88,26.88,0,0,0,5.59,5.6h0a21.67,21.67,0,0,0,6,3.57l1,.43a43.45,43.45,0,0,0,8.91,2.15l2.07.33-6.42-10.5.27.08a39.15,39.15,0,0,1,5.67,2.32,57.54,57.54,0,0,1,5.94,4.11l1.87,1.47-.32-2.37a50.15,50.15,0,0,0-1-5.4c-.09-.3-.19-.58-.29-.84a31.39,31.39,0,0,0,5.33,2.55c2.45.8,5,1.51,5,1.51a8.36,8.36,0,0,1-1.9.33,22.89,22.89,0,0,0-3.66,1,35.92,35.92,0,0,1,3.66,4.75c.23.38.46.77.68,1.17a23.65,23.65,0,0,0-3-2.24l-2-1.21.61,2.28s.47,1.78.93,4.06a18.45,18.45,0,0,1,.34,2.7,26.47,26.47,0,0,0-1.65-2.17,23,23,0,0,0-6.47-5.31l-2.31-1.19,1,2.41s.4,1,.85,2.25a26,26,0,0,1,1.07,3.76,27.46,27.46,0,0,1,.31,4.06c0,.25,0,.5,0,.73-.94-1.17-2.13-2.65-3.13-3.72A41.48,41.48,0,0,0,266.2,256l-1,1.67s1,.61,2.47,1.65a36.12,36.12,0,0,1,5,4.37c1.85,2,4.57,5.58,4.58,5.58l1.4,1.88.33-2.33a31.88,31.88,0,0,0,.18-3.47,26.65,26.65,0,0,0-.32-4.36,24.33,24.33,0,0,0-1-3.66,21.12,21.12,0,0,1,3.51,3.28,35.77,35.77,0,0,1,3.28,4.82l1.62,2.95.19-3.37s0-.59,0-1.47a26.79,26.79,0,0,0-.42-5.08c-.13-.57-.24-1.12-.34-1.62a31.52,31.52,0,0,1,5.73,6.16c1,2.05,1.95,4.23,2.88,6.59.53,1.37,1,3,1.45,4.54-.37-.62-.75-1.26-1.13-1.92a30.83,30.83,0,0,0-4.07-5.36L289,265.32l-.12,2.16a48.59,48.59,0,0,1-.65,5.23c-.18,1.06-.42,2-.61,2.76-.29-.52-.63-1.09-1-1.64a39.65,39.65,0,0,0-3.13-4.16L282,267.89l-.17,2.35a41.69,41.69,0,0,1-1.87,10,23.8,23.8,0,0,1-3.11,6.18c-.54.79-1,1.42-1.38,1.88-.4-.53-.83-1.14-1.21-1.55.49-.81,1.08-1.86,1.34-2.36m-21.46,15.45c-3.8-7,1.72-15,8.55-15.2s13.16,5.32,14.57,13.2a13.35,13.35,0,0,1,.25,2.12l-8,.11a6.51,6.51,0,0,0-1.38-4.08c-4-4.68-8.3-.57-8.3-.57s-1,1.61-.4,2.14a2.45,2.45,0,0,0,1.78.32s2.25-1.68,4.29-.21a4.29,4.29,0,0,1,1,6.16c-1.48,2.16-8.62,3-12.39-4m-30.61-35.51s3.65,2.88,13.22,13.4,7.67,11.65,4.07,16.67-3.91,8.8-1.83,12.34,7.88,7.83,16.23,6.18c2.62-.5,8.26-2.11,11.1-4a54.23,54.23,0,0,1-3.84,9.8,2.41,2.41,0,0,1-.15.33c-2.9,5.15-5.1,5.94-5.1,5.94l-5.13-3.62a19.41,19.41,0,0,1-2.36,1.88,30,30,0,0,1-3.25,1.67,9.45,9.45,0,0,1-2.41-1.67,23,23,0,0,1-2.5-3.91,19.53,19.53,0,0,1-3.46,2.39,19.38,19.38,0,0,1-4.82,1,8.12,8.12,0,0,1-2.54-3,12.88,12.88,0,0,1-.68-4.66,11.56,11.56,0,0,1-1.41,0h0a10.91,10.91,0,0,1-2.72-.45,12.27,12.27,0,0,1-3.58-1.84,6.65,6.65,0,0,1,1.31-2.6,18,18,0,0,1,3.8-3.38,33.77,33.77,0,0,1-4.36-2.82,11.17,11.17,0,0,1-2.7-4.24,18.16,18.16,0,0,1,2.39-2.71,14.31,14.31,0,0,1,4.24-2.61s-1.85-2-2.94-3.26-1.84-4.47-1.84-4.47a8.77,8.77,0,0,1,3.47-1.29,29.86,29.86,0,0,1,5.55-.45s-1.52-1.52-3.27-3.36-7.37-7.49-7.67-10.83c-.47-5.18,3.19-6.48,3.19-6.48m-13.54,29a81.41,81.41,0,0,0,11.79,2.09c-.14.12-.31.24-.46.35-2,1.61-3.07,2.63-3.39,3.56a11.27,11.27,0,0,0,1,2.09c-1.06.32-3.85.22-6.61-.07a35.28,35.28,0,0,1-12.17-3.84c.44-.46,1.49-1.63,5.09-3a15.1,15.1,0,0,1,4.76-1.18m-12.12-9.76a11,11,0,0,1,5.59-1.75c2-.18,3.31-.23,4.17-.23a58.27,58.27,0,0,0,12.45,6.15,11.65,11.65,0,0,0,2.17,4.06c-1.54,0-4.93-.14-11.64-2-5.57-1.51-10.59-3.82-12.74-6.27M207,303.45c5.1,1.79,11.29,1.66,14.11,1.53a12.48,12.48,0,0,0,2.69,2.09,10.43,10.43,0,0,0-1.85,1.91,59.41,59.41,0,0,1-8,.74c-5.75.13-12.6-1.41-14.31-2.37a9.93,9.93,0,0,1,3.87-2.94c1.14-.53,2.07-.94,2.78-1.23l.72.27m6.83,9.65a21.52,21.52,0,0,0,6.39-.61,3,3,0,0,0-.51,1.17,9.84,9.84,0,0,0,4,2.55c-.69.31-2.44,1.15-3.38,1.52A40.29,40.29,0,0,1,206.44,320a8.85,8.85,0,0,1,2.41-3.94c1.42-1.53,3.59-2.46,4.09-3l.85,0m2.8,12.08a22.16,22.16,0,0,1,.9-3.35,46.57,46.57,0,0,0,10.5-4.78,10.07,10.07,0,0,0,1.06,4.47,8.06,8.06,0,0,0,.46.76,17.58,17.58,0,0,1-6,4.05,24.35,24.35,0,0,1-7.29,2.08,13.94,13.94,0,0,1,.36-3.23m8.31,3.76c4.86-3,5.38-4.24,6.3-5.11.24.27,1,1.23,1.39,1.59a11,11,0,0,0,3.15-.71,17.71,17.71,0,0,1-4.36,7.92,12,12,0,0,1-5.82,3.28,17,17,0,0,1-.61-3.09,17.43,17.43,0,0,1,0-3.88m12.84-2.48a.17.17,0,0,0,0-.06l0,0c.26-1,.43-1.91.53-2.53a9.42,9.42,0,0,0,2.86-1.35,9.18,9.18,0,0,0,1.75,2.93,23.4,23.4,0,0,0,1.77,1.6c-.06,1.56,0,4.28-1.23,6.59a8.41,8.41,0,0,1-5.25,4.22,8.79,8.79,0,0,1-2-2.39,9.64,9.64,0,0,1-1.09-3.12,36.48,36.48,0,0,0,2.61-5.92M223.2,279.71c2.34,2.27,3.61,3.58,3.61,3.58a15.51,15.51,0,0,0-4.63,1.17,76.5,76.5,0,0,1-9.6-4.66A66.43,66.43,0,0,1,201,271.18a12.63,12.63,0,0,1,6.31-.39c2.08.34,3.42.64,4.23.84a29.7,29.7,0,0,0,11.66,8.08m-13.46-26a60.31,60.31,0,0,0,4.44,7.22,25.14,25.14,0,0,0,4.93,5,9.53,9.53,0,0,0-.19,6.42,19.59,19.59,0,0,1-6.44-5.48c-2.89-3.66-5.08-8.2-5.16-12.58,0-2.45,1.16-2.92,2.42-.55m-29-32.61c.05-4.66,3.17-6,4.68-2.89,3.18,6.44,8.11,16.86,11.91,22.84a129.71,129.71,0,0,0,8.48,11.73,15,15,0,0,0,.49,7.34c-3.35-2.26-7.44-4.73-16.07-15.65-4.35-5.51-9.56-16.58-9.49-23.37M176,250.21c-1.84-3.05-3.93-7.9-3.35-11.5A17.37,17.37,0,0,1,177,241.6c4.86,4.44,12.59,10.24,14.54,12.15a119,119,0,0,0,17.64,14.71,2.68,2.68,0,0,0,.6,1,17.24,17.24,0,0,0-10.64-.07c-1.65-.78-2.45-.84-12.58-8A42.16,42.16,0,0,1,176,250.21m-7.17,9.48a11.09,11.09,0,0,1,4.66-.08,28.61,28.61,0,0,1,5.32,1.35c.11.1.34.25.45.36,8.12,8,18.73,12.36,22,13.63a28.32,28.32,0,0,0,4.18,4.92,30.06,30.06,0,0,0-4.85.5,101.05,101.05,0,0,1-16.43-7.54c-9.47-5.2-13.72-10.13-15.36-13.14m-1.79,17.92a25,25,0,0,1,5.44-.48c3.64,0,9.87.55,10.68.66,2.09.9,3.31,1.32,5.24,2,2.81.91,6.56,1.86,8.46,2.37-2.06.79-2.16,1.28-2.16,1.28s1.43,2.32,7.18,6.09a73,73,0,0,1-20.23-3.14c-8.58-2.59-11.76-5.32-14.61-8.75m.41,15.72a30.1,30.1,0,0,1,4.73-1.43,57.54,57.54,0,0,1,8.72-.55A36.48,36.48,0,0,0,191.55,293c5,.26,9.4,0,12.31-.12a11.59,11.59,0,0,0-4.66,2.21,8.47,8.47,0,0,0-2.27,2.57c.06.25.95.92,1.32,1.2-2.25.51-7.76,1-17.52-.32-7.65-1-11.57-3.91-13.26-5.24m2.4,15.89a30.29,30.29,0,0,1,5.26-3.16,25.44,25.44,0,0,1,7.82-2.22,52.05,52.05,0,0,0,12.14-.72,53.14,53.14,0,0,0,7.32-1.72,11.38,11.38,0,0,0,1.75.89,11.8,11.8,0,0,0-5,2.44,9.09,9.09,0,0,0-2.33,3.12c.5.8,2.87,1.85,2.87,1.85-3.6,1.26-7.52,1.81-13.44,2.07-11.57.54-14.64-1.21-16.43-2.55m3.28,16.13c.09-.49,1.15-2.4,3.71-4.72a21.58,21.58,0,0,1,4.84-3.28,53.07,53.07,0,0,0,17.62-3.29,26,26,0,0,0,5.36-2.44,28.28,28.28,0,0,0,5.61,1.3c-2,.79-6.29,5.2-18,9.91-10.81,4.33-15,3.57-19.17,2.52m9,13.06s.39-3.49,4.08-8c6-1.32,13.24-5.49,16.58-7.81.6-.43.78-.33,1.47-.85,1.68.71,5.28.64,6.92.65-2.21,2-10.9,10-17.8,13-7.47,3.3-11.25,3-11.25,3m20.7,5.62a24.13,24.13,0,0,1-9.74,4.35,14.77,14.77,0,0,1,.17-3.31,20.85,20.85,0,0,1,1.2-4.6c6.41-2.89,12.82-10.16,15.42-13.53.56-.73,2.69-3.36,3.66-4.66.45,0,.92-.09,1.4-.15a21.13,21.13,0,0,0-1,3.89,21.43,21.43,0,0,0-.1,4.74,4.12,4.12,0,0,0,1.12.18c-1.49,1.91-6.2,8.86-12.16,13.09m12.17,6.2c-4.7,4.57-9,4.59-9,4.59a20.61,20.61,0,0,1,0-3.59c.16-1.53.8-4.5.91-4.9,5.2-4.66,8.67-11.31,10.61-15.31a16,16,0,0,0,5.26-1.09,19.25,19.25,0,0,0,0,3.89,26.22,26.22,0,0,0,.86,3.75A37.88,37.88,0,0,1,215,350.23M229.85,352a19.53,19.53,0,0,1-8.38,6.63s-1.24-1.05-1.18-7.38c3.3-4.24,5.23-9.2,6.67-13.3a15.34,15.34,0,0,0,6.8-3.74,20.86,20.86,0,0,0,1.2,3.25c.16.34,1.06,1.73,1.22,2A40.1,40.1,0,0,1,229.85,352m13.15.87c-2.12,5.25-5.28,5.79-5.28,5.79a24,24,0,0,1-1.84-8.61,48.9,48.9,0,0,0,2.85-9.09,15,15,0,0,0,5.05-3.82c.1.26,1.05,2.51,1.66,3.59-.35,5.54-1.06,8.74-2.44,12.14m5.75-12.35a9.13,9.13,0,0,1-1.86-2.26,17.31,17.31,0,0,1-1.64-3.3,19.58,19.58,0,0,0,.83-2.39,18.13,18.13,0,0,0,.61-5.34,17.47,17.47,0,0,0,2.63-1.5c1.74-1.1,2.82-1.92,2.82-1.92l3.22,2.52a18.85,18.85,0,0,1-1.72,7.93,17,17,0,0,1-4.89,6.26m1.39,39.94a2.92,2.92,0,0,1,.51-3.29c.79-.95,1.6-3,2.11-2.78s.14,1.17-.22,1.9-1.6,1.7-1.38,2.19,1.45-.29,1.45-.29-.43,1.46.37,1.76,1-.73,1.53-.73,1.23,1.75,2.34,1.89,2.33-1.31,2.33-1.31l2.12.52s1.17,2.33-.73,3.21-3-.08-4.66-1.33-5.26-.28-5.77-1.74m10.3-2c-.16-.49.44-1,.44-1s.21-.8.57.08.44,1.61.08,1.68a1.06,1.06,0,0,1-1.09-.74m-.74,12.85c-.36-.51-1.53.39-1.75-.93s.51-1.24,1.83-.59,1.82,1.09,1.44,1.69-1.16.36-1.52-.17m2.48-2.91c-1.82.22-3.29-1.17-4.88-1.6s-3.07.28-4.23-1.32-.17-2.26.28-2.2.07.75.57,1,.88-.52,1.11-.22-.15,1.08.28,1.23.37-.64,1-.43a8.16,8.16,0,0,0,3,.81c.79-.15,2.26-1.69,3.42-.22s1.31,2.77-.51,3m2-5s1.67-1.18,1.32.3-.57,2.42-1.61,1.08.29-1.38.29-1.38m1.32,9.86c-1.44,0-2.35-.2-2-2s.36-.86,1.68-1.08,2.62-.37,2.62,1.08-.8,2-2.26,2m2.34-3.94a.94.94,0,0,1-.15-1.61c.44-.44,1-.44,1.1.88s-.14,1.31-.95.73m5.69,53.15a10.22,10.22,0,0,1-8.06,1.65,6.52,6.52,0,0,1-5.29-4.44c-1-2.48-.52-6.77-.46-8.52,0-.47,1.41-5.51,1.64-6.58.15-.79.4-1.55-.31-1.39-1.29.27.13,1.29-3.64,3.4a8.15,8.15,0,0,0-4,8.28c.39,3.56.18,4.28.18,4.28a15.44,15.44,0,0,0-.78-2.5,25.84,25.84,0,0,1-1.45-4.36c-.69-2.82.8-4.64,2.28-6.76a21.34,21.34,0,0,1,3.65-3.82,11.61,11.61,0,0,1-2.86-1,3.92,3.92,0,0,1-2.22-3.58,4.37,4.37,0,0,1,1.41-2.78,5.06,5.06,0,0,0,.74,3.2c.7,1,3.07,2,5.32,2s6.36-2.62,8-4.68a22.8,22.8,0,0,1,5.57-4.72,12.29,12.29,0,0,1,5.13-1.9c.95.06,1.32,0,2.09.11-3.95,2-10.45,7.48-14.51,14.83-2.84,5.07-3,9.44-1.92,12a6.12,6.12,0,0,0,4.92,4.16,15,15,0,0,0,5.27-.5,4.47,4.47,0,0,1,3.83.92c1.16,1,1.12,1.7,1.12,1.7a7.55,7.55,0,0,0-5.65,1.08m-3.39-70.11,2.33-2.42,4.1,5.73-1,1.1Zm3.94,5.9-.79.9-5.65-3.85.73-.84.32-.52Zm4-2.07.93.28-4.17,4.78-.37-.67Zm1.75,2.62,5.81,6.1-2,2.2-6.45-5.32Zm7.24,7.29.47.42-2.13,2.69-.7-.44Zm1.73,1.5,36.68,37.54-.76.77L287,389.64ZM324.65,377c1.79,0,2,.46.5,1.71s-8.68,3.22-8.68,3.22,2.93.29,4.61.43,2.22.53,1.19,1.72c-1.19,1.37-9.31,2.46-9.31,2.46a29.23,29.23,0,0,1,4.32,1c.75.29,1.6.83-.21,2.08s-7.64,2.62-7.64,2.62,3.66,1.32,1.44,2.63-7.48,2.34-7.48,2.34,3.17,1.06,2.51,2.11a6.07,6.07,0,0,1-2.4.95l-5.62-5.78c10.47-10,19.1-17.69,25.62-21s7.23-2.71,4.56-.15-7.52,3.71-7.52,3.71l4.11,0m-2.91,49.39,1.86,1.8c-.1,0-.13.06-.12.07h0c-4.06.65-4.06-.68-4.06-.68a5.67,5.67,0,0,0,2.34-1.19m-3.48-.31a47.75,47.75,0,0,1-4.5-5.54c-1.56-2.16-2.84-3.82-4.46-6.4l11.18,11a3.58,3.58,0,0,1-2.22.94m3.53,7.65c1.55-2,.95-3.23.95-3.23a6.47,6.47,0,0,0,2.48.09,5.82,5.82,0,0,0,1.54-.5,3.78,3.78,0,0,1-.43,3.29c-1.12,1.69-2.31,1.43-4.34,1.85-1.53.33-2-.11-2-.11a4.74,4.74,0,0,0,1.8-1.39M298.23,403.4a1.2,1.2,0,0,1-.21.38c-1,1.2-10.39,3.05-10.39,3.05l-18.45,17.63s.23-2.09,3.14-5.24c4.94-5.32,14.43-13.72,21-20.33Zm-26.51,31.66a3.78,3.78,0,0,1-2.67-.91c-1.64-1.63-1.08-4.34-1.08-4.34a5.09,5.09,0,0,0,2.36.87c.65.07,1.88.07,1.88.07a5.42,5.42,0,0,0-.6,2,13,13,0,0,0,.11,2.34m-.47-6a6.11,6.11,0,0,1-2.39-1.08l2.39-2.44a7.27,7.27,0,0,0,1.82,1,8.89,8.89,0,0,0,3.85.47s-1.26,2.67-5.67,2m5.07-3.64A2.79,2.79,0,0,1,274,423l15.14-14.41a4,4,0,0,0,.43-.06,12.42,12.42,0,0,1-1.06,2.21,41,41,0,0,1-6.74,8.28c-1.91,2-5.44,6.46-5.44,6.46m4.58,21.24a10.41,10.41,0,0,1-4.82-3.39,8.28,8.28,0,0,1,2.52-.31,7.75,7.75,0,0,1,2.79.88,9.16,9.16,0,0,0-.16-1.89,6.72,6.72,0,0,0-1.75-3.91c-2-2.42-4.4-2.08-5-2.6a4,4,0,0,1-.53-1.77,2.9,2.9,0,0,1,.71-2.4c.49-.55,2.33-1.11,3.53-2.46a23,23,0,0,0,2.1-2.79H279s3.06-3.86,6.87-8a30.1,30.1,0,0,0,5.8-9.62c.54,0,.21,0,.74,0a40.54,40.54,0,0,1-1.92,5.57c-1.12,2.46-3.18,5.59-5.11,9.41-2.39,4.66-4.24,8.57-4.06,12.11.46,8,9.77,11.13,9.77,11.13a18.93,18.93,0,0,1-10.14.07m9.88-21.05a56.27,56.27,0,0,0-1.47,10.16,31,31,0,0,0,.52,7.86,9.1,9.1,0,0,1-4.59-7.56c-.07-3.15,1.23-6.75,2.44-9.78s6.51-17.66,6.51-17.66l.65-.12c-.76,4-3.61,15.27-4.06,17.1m1.49,19.68c-.7-.35-.92-7.89-.65-11.15.42-5.08,1.74-10.81,3.22-17.81.55-2.68,1-5.53,1.44-7.82.48,0,.4-.14.84-.14.11,4.73.21,11.69.12,17.35a37.42,37.42,0,0,0-2.1,4.42,29.62,29.62,0,0,0-1.6,8.4,21.43,21.43,0,0,0,.59,6.33s-1.14.77-1.86.42m5.44,8.27-.83-.83s-1.31-1.58-2-2.45a8.54,8.54,0,0,1-1.49-2.69l1.38-.54a21.93,21.93,0,0,0,1.65,3.07,8.87,8.87,0,0,0,1.3,1.61Zm.19-4.6-.14-7.65c-.05-3.11-.24-11-.23-13,0,0,3.78,2.82,3.53,10.81A16.42,16.42,0,0,1,297.9,449m1.71-40.59c.58,0,.72.14,1.09.14,0,0,0-.12,0-.12s6,15.32,7.2,18.35,2.47,6.7,2.44,9c-.08,6.74-6,9.68-6,9.68a22.8,22.8,0,0,0,2-9.49c0-5.83-5.73-24-6.67-27.52m16.46,32.1c-2.06,6.09-8.42,6.26-10.13,6.2-.09,0,4.56-1.77,5.94-6.55,1.17-4.11,1.25-7.74-1.92-14.65-2.69-5.87-6.23-14.45-7.16-17.08.42,0,.39,0,.84,0l.37.33c.7,1.26,2.73,4.85,5.18,9.7,3,6.06,4.48,8.36,5.75,11.18,2.05,4.62,2.06,8.13,1.13,10.89M320,411c.78.61,1.75,1.42,2.84,2.46,1.83,1.52,6.47,5.09,9.6,5.75,4.1.85,7.36-.31,8.37-2a4.06,4.06,0,0,0,.6-2.45,3.11,3.11,0,0,1,1.07,1.44c.6,1.77-.77,3.65-2.38,4.48a11.37,11.37,0,0,1-6.94.83c-2.38,0-.44.95.94,1.88,3.61,2.45,8.18,3.2,8.46,6.68.16,2.49-.07,2.58-.57,5.31-.39,2.14-.94,1-.94,1a5.41,5.41,0,0,0-.71-2.1c-1.41-2.13-3.43-2.52-4.74-4.72-1.18-2-3.26-5.55-4.22-4.48-.73.24,5.26,8.84,1,14.55-4.8,6.38-8.7,1.63-11.27,1.75a10.7,10.7,0,0,0-3.62,1.44s.63-3.4,1.5-4.22,2-1,4.06-1.27,5.77-.7,6.08-5.89c.11-1.94-1.49-4.53-2.06-5.37l1.06-1.29-16.25-16.44c.42,0,.41.11.78.11A15.74,15.74,0,0,1,320,411M325,388.5c-1.15.63-2,1-2.69,1.36l-1.53.61c-3.72,1.45-4.11,5.62-4.85,10.82s-1.83,4.36-3.63,4.36c-.38,0-1.41,0-3.2,0l-4-4a5,5,0,0,0,1.85-.85,1.75,1.75,0,0,0,.39-2.61,16.56,16.56,0,0,0,5.5-1.93c2.45-1.49,1-3.12,1-3.12a26.85,26.85,0,0,0,5.44-2.5c2.63-1.76.72-3.67.72-3.67a8,8,0,0,0,4.26-2c2.94-3.11-.54-3.64-.54-3.64a12.9,12.9,0,0,0,4-2.21c2.4-2.23-.18-3.12-.18-3.12s4.31-2.94,4.31-5.56c0-2-2.63-1.76-4.43-1.14a47.17,47.17,0,0,0-10.82,6.05c-4.28,3-13.08,10.57-20.16,17.57l-7.17-7.32-9.89-10.56-1-.38-6.27-7.57-7.25,8.14,7.94,5.75.21.72,11.37,8.82,7.57,7c-2.74,2.93-5.06,5.31-8.11,8.12H283c-1.79,0-2.88.84-3.62-4.36s-1.09-9.41-4.84-10.82a32.18,32.18,0,0,1-4.22-2c.41-2-.83-3.28-1.54-3.1a2.67,2.67,0,0,0-1.85,1.19,3.77,3.77,0,0,1-.47-.27c0-.05.43-.92.47-1,.68-1.24.69-3.67-1-4.06a1.74,1.74,0,0,0-1.79.36s-.23.38-.48-.3a2.76,2.76,0,0,1-.17-1.62,9.11,9.11,0,0,0-.61-3.39c-.57-1.69-2.09-1.86-3-1.08s-.19,1.63-1.07,2.45c0,0-.26,0-.29.05a19.88,19.88,0,0,1-2.07-3.6c-5-11.31-1.77-26.09-.21-32.24s6.57-17,9-22.46a41,41,0,0,0,3.34-9.69l8.59-2.27a94,94,0,0,1-3.09,13.8c-1.79,6.06-5.09,15.48-6.26,20.32s-2.21,15.77,2.37,22.35a29,29,0,0,0,13.49,10.45V309.14l2.18-1.72v67.71c1.52.42,2.88.78,4.22,1.06V309.14l2.19-1.72v69.14a41.9,41.9,0,0,0,4.21.35V309.14l2.18-1.72v69.49a41.65,41.65,0,0,0,4.21-.35V309.14l2.18-1.72v68.77c1.35-.28,2.72-.64,4.2-1.06v-66l2.2-1.72v67A28.81,28.81,0,0,0,325,364c4.59-6.58,3.52-17.52,2.37-22.35s-4.46-14.26-6.26-20.32a71.37,71.37,0,0,1-2.79-11.61l8-2c.1.65.22,1.27.34,1.87l0,.19a37.2,37.2,0,0,0,2.73,8.33c.19.48.4.94.59,1.36,2.47,5.42,7.43,16.31,9.05,22.46s4.83,20.93-.23,32.24c-.22.51-.44,1-.67,1.43-.41.75-.79,1.32-1.36,2.17,0,0-.27,0-.29-.05-.88-.82-.25-1.74-1.09-2.45s-2.41-.61-3,1.08a8.57,8.57,0,0,0-.59,3.39,3,3,0,0,1-.19,1.62c-.25.68-.47.3-.47.3a1.73,1.73,0,0,0-1.78-.36c-1.66.39-1.64,2.82-1,4.06l.46,1a4.56,4.56,0,0,1-.46.27,2.66,2.66,0,0,0-1.86-1.19c-.72-.18-1.93,1.14-1.56,3.1m9.87-10a1.06,1.06,0,0,1-1.1.74c-.36-.07-.28-.81.09-1.68s.58-.08.58-.08.59.53.43,1m-3.5,6.28c-1,1.34-1.25.37-1.61-1.08s1.32-.3,1.32-.3,1.32.07.29,1.38m-4.91,3.81c.17-1.32.67-1.32,1.1-.88a.93.93,0,0,1-.14,1.61c-.81.58-1.09.58-1-.73m3.3,4.67c-1.46,0-2.26-.5-2.26-2s1.31-1.31,2.62-1.08,1.39-.65,1.7,1.08-.6,2-2.06,2m5.84-1.91c-.35.53-1.16.74-1.52.17s.14-1,1.45-1.69,2.05-.72,1.82.59-1.37.42-1.75.93m6.64-5.83c-1.15,1.6-2.62.87-4.24,1.32s-3.06,1.82-4.89,1.6-1.67-1.53-.5-3,2.64.07,3.44.22a8.16,8.16,0,0,0,3-.81c.58-.21.51.59.95.43s.06-.94.28-1.23.59.44,1.11.22.14-.88.58-1,1.46.6.28,2.2m.08-5.55c.82-.3.38-1.76.38-1.76s1.24.81,1.45.29-1-1.46-1.39-2.19-.74-1.68-.21-1.9,1.32,1.83,2.1,2.78a2.89,2.89,0,0,1,.52,3.29c-.52,1.46-4.08.51-5.77,1.74s-2.78,2.2-4.67,1.33-.73-3.21-.73-3.21l2.13-.52s1.22,1.47,2.34,1.31,1.8-1.89,2.34-1.89.71,1,1.51.73m6.09-41.69a9.13,9.13,0,0,1-1.86,2.26,17,17,0,0,1-4.88-6.26,18.69,18.69,0,0,1-1.72-7.93l3.22-2.52s1.08.82,2.82,1.92a18.1,18.1,0,0,0,2.63,1.5,17.8,17.8,0,0,0,.61,5.34,17.5,17.5,0,0,0,.84,2.39,17.63,17.63,0,0,1-1.66,3.3m9.19,20.4s-3.17-.54-5.27-5.79c-1.4-3.4-2.1-6.6-2.47-12.14.61-1.08,1.56-3.33,1.66-3.59a15.11,15.11,0,0,0,5.06,3.82,48.9,48.9,0,0,0,2.84,9.09,24,24,0,0,1-1.82,8.61m16.25,0a19.58,19.58,0,0,1-8.4-6.63,40.1,40.1,0,0,1-6.32-12.52c.17-.29,1.07-1.68,1.22-2a22,22,0,0,0,1.2-3.25,15.34,15.34,0,0,0,6.8,3.74c1.43,4.1,3.38,9.06,6.67,13.3.06,6.33-1.17,7.38-1.17,7.38m15.44-3.79s-4.29,0-9-4.59a37.45,37.45,0,0,1-8.64-12.66,27.75,27.75,0,0,0,.85-3.75,19.25,19.25,0,0,0,0-3.89,16,16,0,0,0,5.27,1.09c1.92,4,5.42,10.65,10.61,15.31.1.4.75,3.37.9,4.9a20.06,20.06,0,0,1,0,3.59m12.9-6.44a24.05,24.05,0,0,1-9.71-4.35c-6-4.23-10.69-11.18-12.18-13.09a4,4,0,0,0,1.12-.18,22.55,22.55,0,0,0-.09-4.74,23,23,0,0,0-1-3.89c.47.06.95.12,1.39.15,1,1.3,3.1,3.93,3.66,4.66,2.6,3.37,9,10.64,15.42,13.53a20.44,20.44,0,0,1,1.21,4.6,14.67,14.67,0,0,1,.15,3.31m11-10s-3.77.27-11.25-3c-6.91-3.06-15.59-11-17.8-13,1.64,0,5.25.06,6.92-.65.69.52.88.42,1.47.85,3.33,2.32,10.54,6.49,16.58,7.81,3.7,4.55,4.08,8,4.08,8m5.29-17.78c2.56,2.32,3.63,4.23,3.71,4.72-4.16,1-8.37,1.81-19.17-2.52-11.68-4.71-15.95-9.12-17.95-9.91a28.21,28.21,0,0,0,5.58-1.3,26.81,26.81,0,0,0,5.37,2.44,53.08,53.08,0,0,0,17.63,3.29,21.78,21.78,0,0,1,4.83,3.28m1.74-14.57a29.56,29.56,0,0,1,5.25,3.16c-1.79,1.34-4.85,3.09-16.43,2.55-5.92-.26-9.84-.81-13.44-2.07,0,0,2.38-1.05,2.86-1.85a8.68,8.68,0,0,0-2.32-3.12,11.71,11.71,0,0,0-4.95-2.44,11.63,11.63,0,0,0,1.74-.89,53.14,53.14,0,0,0,7.32,1.72,52.13,52.13,0,0,0,12.14.72,25.5,25.5,0,0,1,7.83,2.22m-5.6-7.49c-9.79,1.34-15.28.83-17.51.32.36-.28,1.25-.95,1.3-1.2a8.47,8.47,0,0,0-2.27-2.57,11.65,11.65,0,0,0-4.66-2.21c2.92.11,7.36.38,12.31.12a36.48,36.48,0,0,0,10.63-1.68,57.73,57.73,0,0,1,8.73.55,30.6,30.6,0,0,1,4.72,1.43c-1.69,1.33-5.62,4.2-13.25,5.24m-49.94,2.28,5.78.45,1.24-1.68-1.45-1.3-5.7.74Zm-125.4-55a10.4,10.4,0,0,1-.05-1.06c0-.64.08-1.42.08-1.42a7.34,7.34,0,0,0-2.22,3.16,6.49,6.49,0,0,0-.39,2.14s.14-.64,1.91-1.11a14.88,14.88,0,0,1,4-.33l.48-1a4.59,4.59,0,0,0-1.91-.52,6.82,6.82,0,0,0-1.92.1M357,247.56c1.74.47,1.91,1.11,1.91,1.11a6.87,6.87,0,0,0-.4-2.14,7.42,7.42,0,0,0-2.23-3.16s.08.78.08,1.42,0,1.06,0,1.06a6.88,6.88,0,0,0-1.92-.1,4.68,4.68,0,0,0-1.92.52l.47,1a15.12,15.12,0,0,1,4.05.33M306.8,195.92a35.41,35.41,0,0,1,2.09,3.46l1.35-1.23c.21-.2.71-.72,1-1-.48-.9-1.22-2.19-2.07-3.47-.92.92-1.86,1.85-2.36,2.26m2.67-5c.87-.91,1.4-1.5,2.06-2.29-.34-.47-.61-.77-1-1.25s-.73-.86-1.09-1.27l-1.05,1.14c-.51.49-.72.65-1.16,1.08.68.73,1.41,1.53,2,2.26.13.16.16.16.3.33m-24.13-.23c.55-.72,1.27-1.52,2-2.26-.44-.43-.66-.59-1.16-1.08s-.74-.8-1-1.14c-.38.41-.74.83-1.11,1.27s-.68.79-1,1.25c.67.8,1.2,1.39,2.07,2.29a4.28,4.28,0,0,1,.29-.33m-23.07,20.57a11.71,11.71,0,0,0-1.31-1.67l-1.66,1.9c.48.57.82,1.12,1.3,1.76.42-.43,1.2-1.41,1.67-2M287.72,196c-.5-.43-1.45-1.35-2.36-2.27a33.18,33.18,0,0,0-2.08,3.47c.28.29.78.82,1,1l1.34,1.22a32.76,32.76,0,0,1,2.11-3.44m49,15.86L335,210a10.23,10.23,0,0,0-1.31,1.66c.48.59,1.26,1.56,1.66,2a20.94,20.94,0,0,1,1.33-1.77M204.43,226c1.92-.71,3-.48,4.94,0a10.26,10.26,0,0,0,4.38-.25,7.09,7.09,0,0,0-3,3.43c-.69,2.11.22,5.35,3.15,5.83s4,.18,5.36.43,3.14.31,3.14.31a26.74,26.74,0,0,0-2.21-2.23c-.94-.84-2.48-1.56-2-3,.41-1.18,3-3.07,5-4.86a5.28,5.28,0,0,0,.39-7.16c-1.69-2.29-2.91-4.06-4.64-6.34-1.86-2.49.12-5.19.12-5.19s3.16-.35,5.76-.81a12.94,12.94,0,0,0,4-1.29,51.77,51.77,0,0,1-.56,5.17c-.31,1.87-1.77,6.23.69,10,2,3,8.06,5,10,5.41a48.29,48.29,0,0,0,6.58.82l.37,0c2,.14,4.42.24,10.87.16a132.83,132.83,0,0,0,15.43-1,54.86,54.86,0,0,0,7.88-1.57,25,25,0,0,0,11.55-7.37,15.89,15.89,0,0,0,5.74,1.17,19.13,19.13,0,0,0,5.42-1.13s4.8,4.93,9,6.49a48.83,48.83,0,0,0,11.37,2.68l.47.11a128.44,128.44,0,0,0,15.15,1c6.43.08,8.82,0,10.85-.17l.38,0a50,50,0,0,0,6.57-.83c1.93-.39,8-2.36,10-5.4,2.46-3.76,1-8.11.68-10a48.41,48.41,0,0,1-.54-5.17,12.65,12.65,0,0,0,4,1.29c2.61.46,5.77.82,5.77.82s2,2.69.13,5.17c-1.73,2.29-2.95,4.07-4.65,6.35a5.27,5.27,0,0,0,.4,7.17c2,1.78,4.6,3.68,5,4.84.52,1.48-1,2.2-2,3a26.58,26.58,0,0,0-2.18,2.25s1.76-.1,3.14-.32,2.38.07,5.34-.42,3.85-3.74,3.17-5.85a7.16,7.16,0,0,0-3-3.41,10.22,10.22,0,0,0,4.4.24c1.92-.47,3-.71,4.93,0s2.05,1.82,2.05,1.82a7.91,7.91,0,0,0,.68-4.41c-.41-2.23-3.25-3.47-6.26-3.7s-1.36-2.22-.12-3.4,4.44-3.57,3.65-7.47-4.32-5-8.84-6.15-5-5.07-7.34-6.93c-4.09-3.24-7.67-.77-9.05.27s-3.56,1-5.07,1.44-2.89,1.44-4.51,4.31c-2.4,4.22,1,8.71,2.61,13.18s-.45,7.91-5.8,9a17.84,17.84,0,0,1-4.1.42c.08-.42.16-.91.26-1.38a20.36,20.36,0,0,1,1.77-4.61,38.67,38.67,0,0,0,2.19-5.8,5.49,5.49,0,0,0-2.57-5.06,35.3,35.3,0,0,0-4.42-1.49,6.79,6.79,0,0,1-2.69-1.37,3,3,0,0,0,.38-1.45,2.91,2.91,0,0,0-.52-1.65h.51l0-.27-1.92-3,3.06.66-.06-3.38-3.19.71.76-3.33-3.52-.1.86,3.64-3.11-.94,0,3.31,2.86-.86L338,201.62v.25h.57l-.11.2a3,3,0,0,0-.42,1.49,2.87,2.87,0,0,0,.37,1.41,7,7,0,0,1-2.73,1.39,30.91,30.91,0,0,0-4.41,1.5,5.45,5.45,0,0,0-2.57,5c.25,2.69,1.11,3.82,2.19,5.81a18.11,18.11,0,0,1,1.77,4.61c.07.35.1.57.19,1.09-.21,0-1.47-.08-1.68-.11a27.74,27.74,0,0,1-7.34-1.72l-.1-.07c-5.56-2.48-10.18-6.77-11.88-9.43-1.85-2.94-1.66-4.47-1.47-5.69a16.88,16.88,0,0,1,.78-3,31.48,31.48,0,0,1,2.39-5.25c1.76-3.2,3-5.28,3-8.62,0-4.35-1.6-6.49-3.79-7.95-1.44-1-3.46-1.27-6.74-2.26a15.06,15.06,0,0,1-4.89-2.46,4,4,0,0,0,.72-2.06,4.71,4.71,0,0,0-.66-2.39,2.65,2.65,0,0,0-.2-.33h.53l0-.42-2.93-4,4.3.57-.17-4.38-3.93.92,1.3-4.18H294.7l1.05,4.07-4.29-.85v4.71l4.49-.86-3.23,4.05,0,.44h.41a4.66,4.66,0,0,0-.81,2.67,4.53,4.53,0,0,0,.72,2.65,12.7,12.7,0,0,1-4.69,2c-3.3.88-5.24,1.06-7.13,2.19-2.07,1.24-3.61,3.92-3.41,8.26.17,3.72,2.63,7.16,4.25,10.45a16.64,16.64,0,0,1,1.95,5.86,11.16,11.16,0,0,1,0,2.77,6.24,6.24,0,0,1-1.45,3.47c-2.24,3.13-5.43,5.54-10.88,8.27a20,20,0,0,1-7.34,2.21c-.2,0-1.46.11-1.69.1.11-.52.14-.73.21-1.09a19.26,19.26,0,0,1,1.78-4.6c1.06-2,1.94-3.12,2.18-5.81a5.47,5.47,0,0,0-2.58-5,29.3,29.3,0,0,0-4.42-1.49,7.17,7.17,0,0,1-2.71-1.4,2.87,2.87,0,0,0,.36-1.41,3,3,0,0,0-.4-1.48l-.11-.2h.54l0-.26L255.89,198l2.86.86-.06-3.31-3.1.92.87-3.63-3.52.1.76,3.33-3.18-.7-.06,3.39,3-.68-1.92,3,0,.27h.51a2.8,2.8,0,0,0-.53,1.65,3,3,0,0,0,.4,1.47,7.52,7.52,0,0,1-2.69,1.37,31.18,31.18,0,0,0-4.42,1.48,5.43,5.43,0,0,0-2.57,5.05c.23,2.7,1.09,3.82,2.17,5.8a19.93,19.93,0,0,1,1.79,4.61c.08.48.19,1,.25,1.38a18.84,18.84,0,0,1-4.09-.41c-5.34-1.14-7.45-4.58-5.8-9s5-9,2.61-13.17c-1.64-2.89-3-3.85-4.53-4.31s-3.67-.38-5-1.44-5-3.53-9.06-.27c-2.33,1.84-2.82,5.76-7.35,6.93s-8,2.34-8.83,6.14,2.43,6.28,3.65,7.46,2.9,3.17-.12,3.4-5.86,1.48-6.27,3.72a7.79,7.79,0,0,0,.7,4.39s.13-1.11,2-1.81m158.81-26.23a11.94,11.94,0,0,0,4.29-1.58c1.86-.94,3.24-2.21,5.3-1.39,1.78.7,2.85,2.52,4.22,4.29a11.51,11.51,0,0,0,4.24,3.63c1.28.51,4.19.81,5.94,1.77,2.49,1.35,3.12,4.06,1,7.23s-4.38,4.27-4,5.77,2.38,2.43,4,2.63c4.44.57,4.53,3.13,4.53,3.13a5.14,5.14,0,0,0-5.08-.88,12.35,12.35,0,0,1-4.91.53,7.1,7.1,0,0,1-2.4-1.18s-1.11,1.5-.44,2.38,1.48,1.37,2.32,2.42,2.32,3-.63,4.61a6.2,6.2,0,0,1-3.67.64,2.73,2.73,0,0,0,1.89-3.26c-.42-1.8-2.95-3.46-4.62-4.62-2.61-1.81-2.23-4.15-.94-6.29s3.67-4.66,5.35-7.56c1.51-2.66.3-3.78.3-3.78s5.82-1.13,5.15,3.47c-.26,1.76,0,3.46,1.06,2.2s2.15-4.12.26-5.67-3.72-1.78-6.47-2.21-7.25-.45-10.77-2.06-2.84-1.43-4.64-2.12a5.11,5.11,0,0,0-5.46.73,6.2,6.2,0,0,1,4.21-2.83m-3.9,9.44c-1-2.51.79-4.35,3-4.87a3.1,3.1,0,0,1,2.38.47s0,1.29.09,1.87.47,3.12,1.05,5.78c.95,4.31-.54,6.69-3.25,9a8.82,8.82,0,0,1-3.15,1.78,6.67,6.67,0,0,0,1.47-2.1,7.52,7.52,0,0,0,.73-5.87,58.39,58.39,0,0,0-2.31-6.09M348,223.88a7,7,0,0,0-.06.73,36.47,36.47,0,0,0-6.57-.66,23.82,23.82,0,0,0-6.75.63V224c0-.22,0-.78,0-.78a24.71,24.71,0,0,1,6.63-1.14,19.28,19.28,0,0,1,6.88,1.27s0,.23-.09.54m-11.94-5a4.08,4.08,0,0,1,2.38,0c1,.43,1.81,2.2,1.81,2.2a5.34,5.34,0,0,1-2.48-.19,6.28,6.28,0,0,1-1.71-2m5.31,1.62a4.3,4.3,0,0,1,.08-5.16,4.86,4.86,0,0,1,.82,2.7,7.24,7.24,0,0,1-.9,2.46m3.08-1.34a3,3,0,0,1,2.16.13,4.14,4.14,0,0,1-1.41,1.6,10.11,10.11,0,0,1-3,.47,9,9,0,0,1,2.29-2.2m.24-11.71.35.17s-.09,1.05-.29,2.54c.08.09.16.22.26.32l1.74-1.63c-.63-.64-1-1.05-1-1.05l1.23.27,1.28.2a11.28,11.28,0,0,1,1.83,2.14c.39-.52.69-.9.69-.9a2.76,2.76,0,0,1,.86.83c.31.5.23.67.23.67-.15.23-.54.76-.74,1.11.78,1.54,1,1.88,1,1.89a11.63,11.63,0,0,1-.43,1.09,2,2,0,0,1-.51.8s-.57-1.39-1.14-2.57c-.45.51-1.11,1.56-1.51,2a10.19,10.19,0,0,1,1.27,3s-.11.17-.45.77a9.39,9.39,0,0,0-.64,1.44,13.62,13.62,0,0,0-1.51-4.17c-1,.84-1.61,1.29-1.62,1.3l-1.5-1.21a16.84,16.84,0,0,0,2.09-1.74c-.81-1.11-1.43-1.93-1.75-2.36-.45,2.45-.8,3.89-.8,3.89l-1.55-.79s.26-1.53.59-4.2c.27-2.39.27-4.67.27-4.67Zm-3.2-5.33a1.52,1.52,0,1,1-1.5,1.52,1.51,1.51,0,0,1,1.5-1.52m-8.63,11.21c-.58,1.18-1.13,2.57-1.13,2.57a1.87,1.87,0,0,1-.53-.8c-.29-.65-.44-1.09-.44-1.09s.21-.35,1-1.89c-.22-.35-.6-.88-.77-1.11,0,0-.07-.17.24-.67a2.76,2.76,0,0,1,.86-.83s.31.38.7.9a10.51,10.51,0,0,1,1.84-2.14l1.27-.2,1.24-.27-1,1.05,1.72,1.63a3.36,3.36,0,0,0,.24-.29c-.21-1.53-.3-2.62-.3-2.62l.22-.05,1.76-.75s.11,2.28.38,4.66c.32,2.67.38,3.92.38,3.92l-1.29.84s-.35-1.41-.79-3.82c-.32.43-.93,1.25-1.72,2.34a15.31,15.31,0,0,0,2.07,1.73l-1.5,1.22s-.59-.46-1.62-1.3a13.62,13.62,0,0,0-1.51,4.17,9.39,9.39,0,0,0-.64-1.44c-.34-.6-.45-.77-.45-.77a10.38,10.38,0,0,1,1.29-3c-.42-.4-1.09-1.45-1.51-2m-35.67,1.55a10.85,10.85,0,0,1-4.29-.78l1.73-2.23a4,4,0,0,0,2.64,1.36,3.27,3.27,0,0,0,2.37-1.48l1.71,2.26a10.64,10.64,0,0,1-4.16.87m.38-6.21a63.41,63.41,0,0,0-11.1,1.1s.07-.71.07-1.24a3,3,0,0,0-.14-.91,32.72,32.72,0,0,1,11.43-2.07,40.47,40.47,0,0,1,11,1.88s-.06.91-.06,1.31v1a39.07,39.07,0,0,0-11.24-1m-.21-19.4a1.57,1.57,0,1,1,1.55-1.57,1.58,1.58,0,0,1-1.55,1.57m1.06,2.57a1.07,1.07,0,0,1-1.06,1.07,1.07,1.07,0,1,1,0-2.14,1.07,1.07,0,0,1,1.06,1.07m-1,2.48a7.1,7.1,0,0,1,.13,8.56,12.34,12.34,0,0,1-1.51-4.09c-.24-2.07,1.38-4.47,1.38-4.47m-.08-9.42a2.32,2.32,0,1,1,2.31-2.32,2.31,2.31,0,0,1-2.31,2.32m-9.48,15.43a12.81,12.81,0,0,1,4.66.47c1.63.72,3.07,3.24,3.07,3.24s-3.5.24-4.87-.47-2.86-3.24-2.86-3.24M299,204.12s1.71-2.71,3.32-3.43a14.35,14.35,0,0,1,4.1-.86s-1.49,2.63-2.85,3.33a15.86,15.86,0,0,1-4.57,1m12.69,13a46.43,46.43,0,0,0,9.56,6.07,41.79,41.79,0,0,1-11.66-4.72,21.62,21.62,0,0,1-6.61-6.6l4.41.21a17.52,17.52,0,0,0,4.3,5M304,189.26a3,3,0,0,1,.67-.76,2.06,2.06,0,0,1-.47-.68l.26-2.48a20.64,20.64,0,0,0,1.59,1.87c.17-.17.1,0,.29-.22.67-.71,1.31-1.45,1.84-2.09-1.82-1.91-3.09-3-3.09-3l1.41.32,1.89.52s.28,0,1,.73c.23-.34.33-.38.33-.38l1.53.69s.05.14-.62.95c.38.45.84,1,1.37,1.6.29.37.45.53.71.87a14.21,14.21,0,0,0,1-1.4l.68,1.87a9.58,9.58,0,0,1-.72,1c.83,1.72,1.22,2.75,1.22,2.75l-.65,2.1a22.46,22.46,0,0,0-1.81-3.44c-.62.75-1.16,1.34-2,2.24.91,1.31,1.7,2.6,2.13,3.34.82-.91,1.31-1.42,1.31-1.42l-1.22,2.28,0,.05-1.11,2.08-.77.78c-.28.29-.78.78-1.26,1.25.35.71.53,1.15.53,1.15l-.83,2.67a47.88,47.88,0,0,0-3.19-6.58A34,34,0,0,0,303,193.8l.46-2a17.57,17.57,0,0,1,2.43,2.8c.48-.44,1.39-1.38,2.32-2.33-.07-.09-.05,0-.11-.09-.87-1.07-1.62-1.92-2.22-2.54-1.24,1.14-2.3,2-2.3,2Zm-2.7-9.08,1.8,1.1.39.07s-.29,3.36-1,7.34c-.8,4.42-1.44,7-1.44,7l-1.49-.79s.34-2.33.85-6.75c.46-4,.86-8,.86-8m-4.21-7.39a3,3,0,1,1-3,3,3,3,0,0,1,3-3m-5.27,8.58,1.81-1.11s.38,4,.84,8c.52,4.42.85,6.76.85,6.76l-1.5.78s-.63-2.6-1.42-7c-.71-4-1-7.34-1-7.34Zm-8.13,18.18-.77-.78-1.11-2.07a.26.26,0,0,1,0-.07l-1.2-2.27,1.31,1.43c.41-.74,1.22-2,2.12-3.35-.84-.9-1.38-1.48-2-2.24a24.33,24.33,0,0,0-1.79,3.45l-.65-2.1s.39-1,1.22-2.76a8.92,8.92,0,0,1-.71-1l.69-1.87a12.13,12.13,0,0,0,1,1.4,10.37,10.37,0,0,1,.72-.88c.51-.63,1-1.14,1.35-1.59-.66-.81-.62-1-.62-1l1.54-.68s.09,0,.34.38c.71-.72,1-.74,1-.74l1.9-.51,1.41-.32s-1.26,1.07-3.09,3c.52.62,1.18,1.38,1.84,2.07.2.21.13.07.28.24a20.61,20.61,0,0,0,1.62-1.89l.24,2.5a2.24,2.24,0,0,1-.46.67,3,3,0,0,1,.67.76l.47,2.4s-1.06-.91-2.3-2c-.59.63-1.35,1.47-2.21,2.55-.07.09-.05,0-.12.09.93.94,1.84,1.87,2.32,2.33a16.69,16.69,0,0,1,2.42-2.8l.47,2a34.36,34.36,0,0,0-3.12,4.14,48.73,48.73,0,0,0-3.18,6.57l-.84-2.65s.19-.46.53-1.16l-1.25-1.25m-1,17.59a17.28,17.28,0,0,0,4.3-5l4.42-.21a21.76,21.76,0,0,1-6.61,6.6,42,42,0,0,1-11.65,4.73,46.83,46.83,0,0,0,9.54-6.09m-21.29,6.43v.58a23.55,23.55,0,0,0-6.76-.63,35.86,35.86,0,0,0-6.55.66,4.87,4.87,0,0,0-.09-.74c0-.31-.08-.54-.08-.54a19.52,19.52,0,0,1,6.88-1.25,24.38,24.38,0,0,1,6.64,1.12s0,.57,0,.8m-7.54-2.66a10.08,10.08,0,0,1-3.07-.48,4.07,4.07,0,0,1-1.38-1.6,3,3,0,0,1,2.15-.11,8.62,8.62,0,0,1,2.3,2.19m-.13-3.32a5,5,0,0,1,.82-2.7,4.28,4.28,0,0,1,.09,5.16,7.5,7.5,0,0,1-.91-2.46m2,3s.83-1.76,1.81-2.19a4,4,0,0,1,2.39,0,6.15,6.15,0,0,1-1.73,2,5.16,5.16,0,0,1-2.47.19M258,207.07l.23.05s-.09,1.09-.3,2.62a3.25,3.25,0,0,0,.23.29l1.74-1.63c-.61-.65-1-1-1-1l1.24.26,1.28.19a12.94,12.94,0,0,1,1.83,2.15l.69-.91a2.81,2.81,0,0,1,.85.83c.33.5.24.68.24.68-.15.23-.54.75-.74,1.11.77,1.53,1,1.88,1,1.89a10.47,10.47,0,0,1-.44,1.09,2.11,2.11,0,0,1-.51.81s-.56-1.4-1.15-2.59c-.43.51-1.09,1.58-1.5,2a9.59,9.59,0,0,1,1.27,3l-.44.76a9.39,9.39,0,0,0-.64,1.44,13.48,13.48,0,0,0-1.52-4.16c-1,.82-1.61,1.27-1.61,1.29L257.23,216a13.86,13.86,0,0,0,2.09-1.72c-.79-1.09-1.41-1.91-1.72-2.34-.44,2.41-.79,3.82-.79,3.82l-1.31-.84s.07-1.25.39-3.91c.27-2.39.38-4.67.38-4.67Zm-3.47-5.4a1.52,1.52,0,1,1-1.51,1.51,1.51,1.51,0,0,1,1.51-1.51m-8.28,16.21a9.59,9.59,0,0,1,1.27-3c-.41-.38-1.07-1.45-1.51-2-.56,1.19-1.13,2.59-1.13,2.59a2,2,0,0,1-.52-.81,11.63,11.63,0,0,1-.43-1.09l1-1.89c-.22-.36-.59-.88-.77-1.11,0,0-.06-.18.25-.68a2.77,2.77,0,0,1,.87-.83s.29.39.7.91a11.55,11.55,0,0,1,1.82-2.15l1.27-.19,1.25-.26s-.41.39-1,1L251,210l.27-.32c-.21-1.48-.29-2.54-.29-2.54l.33-.16,1.79-.88a43.88,43.88,0,0,0,.29,4.67c.3,2.66.56,4.19.56,4.19l-1.52.8s-.35-1.44-.82-3.89c-.32.42-.93,1.25-1.74,2.36A14.15,14.15,0,0,0,252,216l-1.5,1.23s-.6-.47-1.61-1.29a13.67,13.67,0,0,0-1.53,4.16,8.76,8.76,0,0,0-.63-1.44l-.44-.76m-9.62-9.14a65,65,0,0,0-2.3,6.09,7.6,7.6,0,0,0,.74,5.87,6.8,6.8,0,0,0,1.47,2.11,8.82,8.82,0,0,1-3.15-1.78c-2.71-2.35-4.2-4.73-3.25-9,.57-2.66,1-5.18,1-5.77a17.47,17.47,0,0,0,.11-1.89,3.1,3.1,0,0,1,2.38-.47c2.19.52,4,2.37,3,4.87m-28.84,12.91c1.59-.19,3.54-1,4-2.62s-1.81-2.58-4-5.77-1.52-5.87,1-7.23c1.77-1,4.66-1.25,6-1.78a11.56,11.56,0,0,0,4.22-3.62c1.39-1.77,2.44-3.59,4.21-4.28,2.06-.82,3.46.43,5.31,1.38a11.8,11.8,0,0,0,4.31,1.57,6.22,6.22,0,0,1,4.19,2.84,5.11,5.11,0,0,0-5.45-.73c-1.81.69-1.12.48-4.65,2.11s-8,1.62-10.78,2.06-4.56.67-6.46,2.21-.77,4.42.27,5.68,1.3-.43,1.05-2.2c-.67-4.6,5.14-3.46,5.14-3.46s-1.2,1.11.31,3.77c1.68,2.9,4.05,5.42,5.35,7.55s1.67,4.5-.95,6.3c-1.66,1.16-4.19,2.81-4.62,4.62a2.72,2.72,0,0,0,1.9,3.25,6.21,6.21,0,0,1-3.69-.63c-2.93-1.66-1.52-3.48-.61-4.62s1.61-1.51,2.31-2.41-.42-2.39-.42-2.39a6.87,6.87,0,0,1-2.42,1.18,11.85,11.85,0,0,1-4.91-.53,5.11,5.11,0,0,0-5.06.89s.07-2.57,4.52-3.14m42.12-10.18-1.68-1.9a13.16,13.16,0,0,0-1.3,1.67c.48.58,1.25,1.56,1.66,2,.48-.64.81-1.19,1.32-1.76m99.13.2a9.84,9.84,0,0,0-1.32-1.66l-1.66,1.89c.5.57.82,1.11,1.31,1.77.42-.44,1.19-1.41,1.67-2"/></svg>