<?xml version="1.0" encoding="UTF-8" standalone="no"?><!-- Generator: Gravit.io --><svg xmlns="http://www.w3.org/2000/svg" xmlns:xlink="http://www.w3.org/1999/xlink" style="isolation:isolate" viewBox="0 0 859.89 613.276" width="859.89pt" height="613.276pt"><defs><clipPath id="_clipPath_DSuozQOtnQmU9jCIxnQ46tAriDzhOq6v"><rect width="859.89" height="613.276"/></clipPath></defs><g clip-path="url(#_clipPath_DSuozQOtnQmU9jCIxnQ46tAriDzhOq6v)"><clipPath id="_clipPath_tBLX9WhG886yMadwsnDMLCo6VIEWZHNf"><path d=" M 0 613.276 L 860 613.276 L 860 -0.724 L 0 -0.724 L 0 613.276 Z " fill="rgb(255,255,255)"/></clipPath><g clip-path="url(#_clipPath_tBLX9WhG886yMadwsnDMLCo6VIEWZHNf)"><path d=" M 256.301 291.412 L 262.118 413.923 C 262.118 413.923 297.023 391.337 297.708 344.796 C 298.392 298.256 272.387 277.224 273.411 243.503 C 274.435 209.782 304.21 206.887 304.894 209.282 C 305.579 211.678 305.759 220.001 303.027 220.172 C 300.295 220.343 278.269 222.392 278.1 249.547 C 277.931 276.702 301.832 299.908 300.295 336.446 C 298.758 372.985 282.196 396.718 265.293 404.401 C 265.293 404.401 264.893 291.127 264.893 287.981 C 264.893 284.836 256.307 289.767 256.301 291.412 Z " fill="none"/><path d=" M 256.301 291.412 L 262.118 413.923 C 262.118 413.923 297.023 391.337 297.708 344.796 C 298.392 298.256 272.387 277.224 273.411 243.503 C 274.435 209.782 304.21 206.887 304.894 209.282 C 305.579 211.678 305.759 220.001 303.027 220.172 C 300.295 220.343 278.269 222.392 278.1 249.547 C 277.931 276.702 301.832 299.908 300.295 336.446 C 298.758 372.985 282.196 396.718 265.293 404.401 C 265.293 404.401 264.893 291.127 264.893 287.981 C 264.893 284.836 256.307 289.767 256.301 291.412 Z " fill-rule="evenodd" fill="rgb(255,255,255)"/><path d=" M 255.932 267.531 C 255.337 270.421 265.146 264.531 263.106 262.491 C 261.065 260.451 261.702 205.324 261.531 201.398 C 261.109 191.673 261.092 218.522 243.981 242.134 C 226.871 265.747 195.73 288.674 196.414 316.735 C 197.099 344.796 213.553 353.015 222.602 363.943 C 231.652 374.87 234.104 383.364 234.104 383.364 C 234.104 383.364 234.481 382.931 234.586 381.372 C 234.691 379.814 230.966 370.041 219.87 356.942 C 208.774 343.844 201.772 330.648 205.87 307.428 C 209.967 284.207 229.773 266.108 242.92 247.839 C 256.067 229.57 260.07 211.073 260.07 211.073 C 260.07 211.073 255.657 260.715 255.932 267.531 Z " fill="none"/><path d=" M 255.932 267.531 C 255.337 270.421 265.146 264.531 263.106 262.491 C 261.065 260.451 261.702 205.324 261.531 201.398 C 261.109 191.673 261.092 218.522 243.981 242.134 C 226.871 265.747 195.73 288.674 196.414 316.735 C 197.099 344.796 213.553 353.015 222.602 363.943 C 231.652 374.87 234.104 383.364 234.104 383.364 C 234.104 383.364 234.481 382.931 234.586 381.372 C 234.691 379.814 230.966 370.041 219.87 356.942 C 208.774 343.844 201.772 330.648 205.87 307.428 C 209.967 284.207 229.773 266.108 242.92 247.839 C 256.067 229.57 260.07 211.073 260.07 211.073 C 260.07 211.073 255.657 260.715 255.932 267.531 Z " fill-rule="evenodd" fill="rgb(236,59,37)"/><path d=" M 333.802 366.579 L 331.345 366.579 L 331.345 357.011 L 320.488 357.011 L 320.488 366.579 L 318.031 366.579 L 318.031 345.6 L 320.488 345.6 L 320.488 354.804 L 331.345 354.804 L 331.345 345.6 L 333.802 345.6 L 333.802 366.579 Z  M 345.962 366.929 C 343.75 366.929 341.982 366.23 340.658 364.832 C 339.34 363.433 338.676 361.575 338.676 359.263 C 338.676 356.746 339.365 354.784 340.739 353.366 C 342.117 351.952 343.975 351.248 346.316 351.248 C 348.549 351.248 350.292 351.932 351.545 353.31 C 352.799 354.684 353.423 356.592 353.423 359.029 C 353.423 361.421 352.748 363.333 351.4 364.772 C 350.047 366.21 348.235 366.929 345.962 366.929 Z  M 346.137 353.266 C 344.599 353.266 343.38 353.79 342.481 354.838 C 341.582 355.887 341.133 357.331 341.133 359.179 C 341.133 360.951 341.587 362.349 342.496 363.373 C 343.405 364.397 344.619 364.911 346.137 364.911 C 347.69 364.911 348.883 364.407 349.717 363.403 C 350.552 362.4 350.966 360.971 350.966 359.118 C 350.966 357.246 350.552 355.803 349.717 354.789 C 348.883 353.775 347.69 353.266 346.137 353.266 Z  M 357.977 366.579 L 357.977 351.598 L 364.504 351.598 C 365.977 351.598 367.141 351.922 367.995 352.576 C 368.849 353.231 369.274 354.125 369.274 355.253 C 369.274 357.196 368.32 358.374 366.407 358.794 C 368.699 359.088 369.843 360.242 369.843 362.265 C 369.843 363.483 369.373 364.507 368.434 365.336 C 367.491 366.165 366.322 366.579 364.928 366.579 L 357.977 366.579 Z  M 360.379 353.645 L 360.379 357.86 L 363.98 357.86 C 365.908 357.86 366.876 357.111 366.876 355.607 C 366.876 354.299 366.007 353.645 364.269 353.645 L 360.379 353.645 Z  M 360.379 359.907 L 360.379 364.532 L 364.534 364.532 C 366.477 364.532 367.446 363.747 367.446 362.175 C 367.446 360.661 366.357 359.907 364.184 359.907 L 360.379 359.907 Z  M 380.834 366.929 C 378.621 366.929 376.854 366.23 375.53 364.832 C 374.212 363.433 373.548 361.575 373.548 359.263 C 373.548 356.746 374.237 354.784 375.61 353.366 C 376.989 351.952 378.846 351.248 381.188 351.248 C 383.421 351.248 385.163 351.932 386.417 353.31 C 387.671 354.684 388.295 356.592 388.295 359.029 C 388.295 361.421 387.621 363.333 386.272 364.772 C 384.919 366.21 383.106 366.929 380.834 366.929 Z  M 381.009 353.266 C 379.471 353.266 378.252 353.79 377.353 354.838 C 376.454 355.887 376.005 357.331 376.005 359.179 C 376.005 360.951 376.459 362.349 377.368 363.373 C 378.277 364.397 379.491 364.911 381.009 364.911 C 382.562 364.911 383.756 364.407 384.589 363.403 C 385.423 362.4 385.838 360.971 385.838 359.118 C 385.838 357.246 385.423 355.803 384.589 354.789 C 383.756 353.775 382.562 353.266 381.009 353.266 Z  M 403.062 365.89 C 401.913 366.584 400.545 366.929 398.967 366.929 C 396.829 366.929 395.107 366.235 393.793 364.847 C 392.484 363.458 391.825 361.655 391.825 359.438 C 391.825 356.971 392.534 354.988 393.948 353.49 C 395.361 351.997 397.249 351.248 399.611 351.248 C 400.929 351.248 402.087 351.492 403.092 351.977 L 403.092 354.434 C 401.978 353.655 400.789 353.266 399.521 353.266 C 397.993 353.266 396.734 353.815 395.756 354.914 C 394.776 356.007 394.282 357.45 394.282 359.233 C 394.282 360.991 394.747 362.374 395.666 363.388 C 396.589 364.402 397.823 364.911 399.376 364.911 C 400.684 364.911 401.913 364.477 403.062 363.608 L 403.062 365.89 Z  M 419.961 366.579 L 417.794 366.579 L 417.794 354.624 C 417.579 355.044 417.254 355.638 416.815 356.397 L 409.893 366.579 L 407.406 366.579 L 407.406 351.598 L 409.604 351.598 L 409.604 363.403 C 409.718 363.123 409.973 362.639 410.362 361.955 L 417.474 351.598 L 419.961 351.598 L 419.961 366.579 Z  M 437.125 344.222 L 437.125 346.479 C 436.725 346.768 436.081 346.988 435.192 347.133 C 432.995 347.468 431.462 347.787 430.593 348.092 C 429.718 348.402 429 349.055 428.44 350.06 C 427.881 351.069 427.521 352.531 427.367 354.464 L 427.421 354.464 C 428.595 352.766 430.263 351.917 432.426 351.917 C 434.408 351.917 436.001 352.597 437.21 353.955 C 438.418 355.308 439.027 357.101 439.027 359.323 C 439.027 361.616 438.393 363.458 437.13 364.847 C 435.866 366.235 434.168 366.929 432.031 366.929 C 429.728 366.929 427.956 366.115 426.713 364.482 C 425.468 362.844 424.849 360.512 424.849 357.48 C 424.849 355.118 425.074 353.116 425.519 351.473 C 425.968 349.83 426.593 348.591 427.386 347.762 C 428.18 346.933 429.064 346.364 430.033 346.054 C 431.007 345.74 432.67 345.375 435.032 344.956 C 435.966 344.741 436.665 344.497 437.125 344.222 Z  M 427.337 356.836 L 427.337 358.914 C 427.347 359.693 427.461 360.457 427.686 361.211 C 427.911 361.96 428.231 362.624 428.65 363.198 C 429.069 363.773 429.564 364.202 430.138 364.487 C 430.707 364.772 431.357 364.911 432.091 364.911 C 433.424 364.911 434.508 364.412 435.332 363.413 C 436.156 362.415 436.565 361.131 436.565 359.573 C 436.565 357.855 436.146 356.492 435.302 355.482 C 434.458 354.474 433.319 353.97 431.886 353.97 C 429.873 353.97 428.36 354.924 427.337 356.836 Z  M 456.161 366.579 L 453.994 366.579 L 453.994 354.624 C 453.779 355.044 453.455 355.638 453.015 356.397 L 446.094 366.579 L 443.607 366.579 L 443.607 351.598 L 445.804 351.598 L 445.804 363.403 C 445.919 363.123 446.174 362.639 446.563 361.955 L 453.675 351.598 L 456.161 351.598 L 456.161 366.579 Z  M 464.196 364.412 L 464.137 364.412 L 464.137 373.471 L 461.734 373.471 L 461.734 351.598 L 464.137 351.598 L 464.137 354.229 L 464.196 354.229 C 465.375 352.242 467.103 351.248 469.375 351.248 C 471.302 351.248 472.81 351.917 473.894 353.261 C 474.978 354.599 475.518 356.397 475.518 358.649 C 475.518 361.156 474.908 363.164 473.69 364.672 C 472.471 366.174 470.803 366.929 468.685 366.929 C 466.743 366.929 465.245 366.09 464.196 364.412 Z  M 464.137 358.369 L 464.137 360.462 C 464.137 361.7 464.536 362.754 465.345 363.618 C 466.149 364.482 467.168 364.911 468.407 364.911 C 469.859 364.911 470.998 364.357 471.822 363.243 C 472.646 362.13 473.06 360.587 473.06 358.604 C 473.06 356.936 472.676 355.632 471.902 354.684 C 471.133 353.74 470.089 353.266 468.776 353.266 C 467.378 353.266 466.258 353.75 465.41 354.719 C 464.56 355.693 464.137 356.906 464.137 358.369 Z  M 490.279 365.89 C 489.13 366.584 487.762 366.929 486.184 366.929 C 484.047 366.929 482.324 366.235 481.01 364.847 C 479.702 363.458 479.043 361.655 479.043 359.438 C 479.043 356.971 479.752 354.988 481.165 353.49 C 482.578 351.997 484.466 351.248 486.828 351.248 C 488.147 351.248 489.305 351.492 490.309 351.977 L 490.309 354.434 C 489.196 353.655 488.007 353.266 486.738 353.266 C 485.211 353.266 483.951 353.815 482.973 354.914 C 481.994 356.007 481.499 357.45 481.499 359.233 C 481.499 360.991 481.964 362.374 482.883 363.388 C 483.807 364.402 485.04 364.911 486.594 364.911 C 487.902 364.911 489.13 364.477 490.279 363.608 L 490.279 365.89 Z  M 507.063 366.579 L 503.697 366.579 L 497.085 359.383 L 497.026 359.383 L 497.026 366.579 L 494.624 366.579 L 494.624 351.598 L 497.026 351.598 L 497.026 358.459 L 497.085 358.459 L 503.373 351.598 L 506.519 351.598 L 499.572 358.824 L 507.063 366.579 Z  M 515.897 366.929 C 513.685 366.929 511.917 366.23 510.593 364.832 C 509.275 363.433 508.611 361.575 508.611 359.263 C 508.611 356.746 509.3 354.784 510.674 353.366 C 512.052 351.952 513.91 351.248 516.251 351.248 C 518.484 351.248 520.227 351.932 521.48 353.31 C 522.734 354.684 523.358 356.592 523.358 359.029 C 523.358 361.421 522.683 363.333 521.335 364.772 C 519.982 366.21 518.169 366.929 515.897 366.929 Z  M 516.072 353.266 C 514.534 353.266 513.315 353.79 512.416 354.838 C 511.517 355.887 511.068 357.331 511.068 359.179 C 511.068 360.951 511.522 362.349 512.431 363.373 C 513.34 364.397 514.554 364.911 516.072 364.911 C 517.625 364.911 518.818 364.407 519.652 363.403 C 520.487 362.4 520.901 360.971 520.901 359.118 C 520.901 357.246 520.487 355.803 519.652 354.789 C 518.818 353.775 517.625 353.266 516.072 353.266 Z  M 540.467 366.579 L 538.3 366.579 L 538.3 354.624 C 538.084 355.044 537.76 355.638 537.32 356.397 L 530.399 366.579 L 527.912 366.579 L 527.912 351.598 L 530.109 351.598 L 530.109 363.403 C 530.224 363.123 530.479 362.639 530.868 361.955 L 537.98 351.598 L 540.467 351.598 L 540.467 366.579 Z  M 539.588 344.311 C 539.443 345.685 538.889 346.773 537.93 347.568 C 536.966 348.362 535.767 348.761 534.325 348.761 C 532.841 348.761 531.632 348.362 530.699 347.568 C 529.77 346.773 529.26 345.685 529.171 344.311 L 531.543 344.311 C 531.678 346.144 532.617 347.063 534.349 347.063 C 535.133 347.063 535.777 346.819 536.282 346.339 C 536.791 345.854 537.101 345.18 537.221 344.311 L 539.588 344.311 Z  M 560.512 366.929 C 558.3 366.929 556.532 366.23 555.208 364.832 C 553.89 363.433 553.226 361.575 553.226 359.263 C 553.226 356.746 553.915 354.784 555.289 353.366 C 556.667 351.952 558.525 351.248 560.867 351.248 C 563.099 351.248 564.842 351.932 566.095 353.31 C 567.349 354.684 567.973 356.592 567.973 359.029 C 567.973 361.421 567.299 363.333 565.95 364.772 C 564.597 366.21 562.785 366.929 560.512 366.929 Z  M 560.687 353.266 C 559.149 353.266 557.93 353.79 557.031 354.838 C 556.132 355.887 555.683 357.331 555.683 359.179 C 555.683 360.951 556.137 362.349 557.046 363.373 C 557.955 364.397 559.169 364.911 560.687 364.911 C 562.24 364.911 563.434 364.407 564.267 363.403 C 565.102 362.4 565.516 360.971 565.516 359.118 C 565.516 357.246 565.102 355.803 564.267 354.789 C 563.434 353.775 562.24 353.266 560.687 353.266 Z  M 584.118 344.222 L 584.118 346.479 C 583.719 346.768 583.074 346.988 582.186 347.133 C 579.988 347.468 578.455 347.787 577.586 348.092 C 576.712 348.402 575.993 349.055 575.434 350.06 C 574.874 351.069 574.515 352.531 574.36 354.464 L 574.415 354.464 C 575.589 352.766 577.257 351.917 579.419 351.917 C 581.401 351.917 582.994 352.597 584.203 353.955 C 585.412 355.308 586.021 357.101 586.021 359.323 C 586.021 361.616 585.387 363.458 584.123 364.847 C 582.859 366.235 581.162 366.929 579.024 366.929 C 576.722 366.929 574.95 366.115 573.706 364.482 C 572.462 362.844 571.843 360.512 571.843 357.48 C 571.843 355.118 572.068 353.116 572.512 351.473 C 572.962 349.83 573.586 348.591 574.38 347.762 C 575.174 346.933 576.058 346.364 577.026 346.054 C 578.001 345.74 579.664 345.375 582.026 344.956 C 582.96 344.741 583.659 344.497 584.118 344.222 Z  M 574.33 356.836 L 574.33 358.914 C 574.34 359.693 574.455 360.457 574.68 361.211 C 574.904 361.96 575.224 362.624 575.643 363.198 C 576.063 363.773 576.557 364.202 577.132 364.487 C 577.701 364.772 578.35 364.911 579.084 364.911 C 580.417 364.911 581.502 364.412 582.325 363.413 C 583.149 362.415 583.559 361.131 583.559 359.573 C 583.559 357.855 583.139 356.492 582.296 355.482 C 581.451 354.474 580.313 353.97 578.879 353.97 C 576.867 353.97 575.353 354.924 574.33 356.836 Z  M 601.532 366.579 L 599.145 366.579 L 599.145 353.63 L 595.664 353.63 C 595.264 358.479 594.58 361.885 593.607 363.843 C 592.637 365.805 591.334 366.784 589.696 366.784 C 589.197 366.784 588.767 366.714 588.408 366.579 L 588.408 364.517 C 588.747 364.692 589.117 364.782 589.522 364.782 C 591.664 364.782 593.047 360.387 593.662 351.598 L 601.532 351.598 L 601.532 366.579 Z  M 617.831 366.579 L 615.429 366.579 L 615.429 364.237 L 615.374 364.237 C 614.331 366.035 612.793 366.929 610.765 366.929 C 609.272 366.929 608.103 366.534 607.259 365.746 C 606.415 364.956 605.996 363.908 605.996 362.599 C 605.996 359.803 607.643 358.17 610.94 357.715 L 615.429 357.086 C 615.429 354.539 614.401 353.266 612.343 353.266 C 610.54 353.266 608.913 353.88 607.459 355.108 L 607.459 352.651 C 608.932 351.713 610.625 351.248 612.548 351.248 C 616.069 351.248 617.831 353.111 617.831 356.836 L 617.831 366.579 Z  M 615.429 358.998 L 611.819 359.498 C 610.705 359.653 609.866 359.927 609.302 360.327 C 608.738 360.722 608.453 361.421 608.453 362.425 C 608.453 363.154 608.712 363.753 609.237 364.217 C 609.756 364.682 610.451 364.911 611.319 364.911 C 612.508 364.911 613.492 364.497 614.266 363.663 C 615.045 362.829 615.429 361.771 615.429 360.492 L 615.429 358.998 Z  M 633.283 365.89 C 632.134 366.584 630.765 366.929 629.187 366.929 C 627.05 366.929 625.327 366.235 624.014 364.847 C 622.705 363.458 622.046 361.655 622.046 359.438 C 622.046 356.971 622.755 354.988 624.168 353.49 C 625.581 351.997 627.47 351.248 629.831 351.248 C 631.15 351.248 632.308 351.492 633.312 351.977 L 633.312 354.434 C 632.199 353.655 631.01 353.266 629.742 353.266 C 628.214 353.266 626.955 353.815 625.976 354.914 C 624.997 356.007 624.503 357.45 624.503 359.233 C 624.503 360.991 624.967 362.374 625.886 363.388 C 626.81 364.402 628.044 364.911 629.597 364.911 C 630.905 364.911 632.134 364.477 633.283 363.608 L 633.283 365.89 Z  M 647.035 353.645 L 642.546 353.645 L 642.546 366.579 L 640.144 366.579 L 640.144 353.645 L 635.64 353.645 L 635.64 351.598 L 647.035 351.598 L 647.035 353.645 Z  M 663.19 366.579 L 661.023 366.579 L 661.023 354.624 C 660.808 355.044 660.483 355.638 660.044 356.397 L 653.123 366.579 L 650.636 366.579 L 650.636 351.598 L 652.833 351.598 L 652.833 363.403 C 652.948 363.123 653.202 362.639 653.592 361.955 L 660.704 351.598 L 663.19 351.598 L 663.19 366.579 Z " fill-rule="evenodd" fill="none"/><path d=" M 333.802 366.579 L 331.345 366.579 L 331.345 357.011 L 320.488 357.011 L 320.488 366.579 L 318.031 366.579 L 318.031 345.6 L 320.488 345.6 L 320.488 354.804 L 331.345 354.804 L 331.345 345.6 L 333.802 345.6 L 333.802 366.579 Z  M 345.962 366.929 C 343.75 366.929 341.982 366.23 340.658 364.832 C 339.34 363.433 338.676 361.575 338.676 359.263 C 338.676 356.746 339.365 354.784 340.739 353.366 C 342.117 351.952 343.975 351.248 346.316 351.248 C 348.549 351.248 350.292 351.932 351.545 353.31 C 352.799 354.684 353.423 356.592 353.423 359.029 C 353.423 361.421 352.748 363.333 351.4 364.772 C 350.047 366.21 348.235 366.929 345.962 366.929 Z  M 346.137 353.266 C 344.599 353.266 343.38 353.79 342.481 354.838 C 341.582 355.887 341.133 357.331 341.133 359.179 C 341.133 360.951 341.587 362.349 342.496 363.373 C 343.405 364.397 344.619 364.911 346.137 364.911 C 347.69 364.911 348.883 364.407 349.717 363.403 C 350.552 362.4 350.966 360.971 350.966 359.118 C 350.966 357.246 350.552 355.803 349.717 354.789 C 348.883 353.775 347.69 353.266 346.137 353.266 Z  M 357.977 366.579 L 357.977 351.598 L 364.504 351.598 C 365.977 351.598 367.141 351.922 367.995 352.576 C 368.849 353.231 369.274 354.125 369.274 355.253 C 369.274 357.196 368.32 358.374 366.407 358.794 C 368.699 359.088 369.843 360.242 369.843 362.265 C 369.843 363.483 369.373 364.507 368.434 365.336 C 367.491 366.165 366.322 366.579 364.928 366.579 L 357.977 366.579 Z  M 360.379 353.645 L 360.379 357.86 L 363.98 357.86 C 365.908 357.86 366.876 357.111 366.876 355.607 C 366.876 354.299 366.007 353.645 364.269 353.645 L 360.379 353.645 Z  M 360.379 359.907 L 360.379 364.532 L 364.534 364.532 C 366.477 364.532 367.446 363.747 367.446 362.175 C 367.446 360.661 366.357 359.907 364.184 359.907 L 360.379 359.907 Z  M 380.834 366.929 C 378.621 366.929 376.854 366.23 375.53 364.832 C 374.212 363.433 373.548 361.575 373.548 359.263 C 373.548 356.746 374.237 354.784 375.61 353.366 C 376.989 351.952 378.846 351.248 381.188 351.248 C 383.421 351.248 385.163 351.932 386.417 353.31 C 387.671 354.684 388.295 356.592 388.295 359.029 C 388.295 361.421 387.621 363.333 386.272 364.772 C 384.919 366.21 383.106 366.929 380.834 366.929 Z  M 381.009 353.266 C 379.471 353.266 378.252 353.79 377.353 354.838 C 376.454 355.887 376.005 357.331 376.005 359.179 C 376.005 360.951 376.459 362.349 377.368 363.373 C 378.277 364.397 379.491 364.911 381.009 364.911 C 382.562 364.911 383.756 364.407 384.589 363.403 C 385.423 362.4 385.838 360.971 385.838 359.118 C 385.838 357.246 385.423 355.803 384.589 354.789 C 383.756 353.775 382.562 353.266 381.009 353.266 Z  M 403.062 365.89 C 401.913 366.584 400.545 366.929 398.967 366.929 C 396.829 366.929 395.107 366.235 393.793 364.847 C 392.484 363.458 391.825 361.655 391.825 359.438 C 391.825 356.971 392.534 354.988 393.948 353.49 C 395.361 351.997 397.249 351.248 399.611 351.248 C 400.929 351.248 402.087 351.492 403.092 351.977 L 403.092 354.434 C 401.978 353.655 400.789 353.266 399.521 353.266 C 397.993 353.266 396.734 353.815 395.756 354.914 C 394.776 356.007 394.282 357.45 394.282 359.233 C 394.282 360.991 394.747 362.374 395.666 363.388 C 396.589 364.402 397.823 364.911 399.376 364.911 C 400.684 364.911 401.913 364.477 403.062 363.608 L 403.062 365.89 Z  M 419.961 366.579 L 417.794 366.579 L 417.794 354.624 C 417.579 355.044 417.254 355.638 416.815 356.397 L 409.893 366.579 L 407.406 366.579 L 407.406 351.598 L 409.604 351.598 L 409.604 363.403 C 409.718 363.123 409.973 362.639 410.362 361.955 L 417.474 351.598 L 419.961 351.598 L 419.961 366.579 Z  M 437.125 344.222 L 437.125 346.479 C 436.725 346.768 436.081 346.988 435.192 347.133 C 432.995 347.468 431.462 347.787 430.593 348.092 C 429.718 348.402 429 349.055 428.44 350.06 C 427.881 351.069 427.521 352.531 427.367 354.464 L 427.421 354.464 C 428.595 352.766 430.263 351.917 432.426 351.917 C 434.408 351.917 436.001 352.597 437.21 353.955 C 438.418 355.308 439.027 357.101 439.027 359.323 C 439.027 361.616 438.393 363.458 437.13 364.847 C 435.866 366.235 434.168 366.929 432.031 366.929 C 429.728 366.929 427.956 366.115 426.713 364.482 C 425.468 362.844 424.849 360.512 424.849 357.48 C 424.849 355.118 425.074 353.116 425.519 351.473 C 425.968 349.83 426.593 348.591 427.386 347.762 C 428.18 346.933 429.064 346.364 430.033 346.054 C 431.007 345.74 432.67 345.375 435.032 344.956 C 435.966 344.741 436.665 344.497 437.125 344.222 Z  M 427.337 356.836 L 427.337 358.914 C 427.347 359.693 427.461 360.457 427.686 361.211 C 427.911 361.96 428.231 362.624 428.65 363.198 C 429.069 363.773 429.564 364.202 430.138 364.487 C 430.707 364.772 431.357 364.911 432.091 364.911 C 433.424 364.911 434.508 364.412 435.332 363.413 C 436.156 362.415 436.565 361.131 436.565 359.573 C 436.565 357.855 436.146 356.492 435.302 355.482 C 434.458 354.474 433.319 353.97 431.886 353.97 C 429.873 353.97 428.36 354.924 427.337 356.836 Z  M 456.161 366.579 L 453.994 366.579 L 453.994 354.624 C 453.779 355.044 453.455 355.638 453.015 356.397 L 446.094 366.579 L 443.607 366.579 L 443.607 351.598 L 445.804 351.598 L 445.804 363.403 C 445.919 363.123 446.174 362.639 446.563 361.955 L 453.675 351.598 L 456.161 351.598 L 456.161 366.579 Z  M 464.196 364.412 L 464.137 364.412 L 464.137 373.471 L 461.734 373.471 L 461.734 351.598 L 464.137 351.598 L 464.137 354.229 L 464.196 354.229 C 465.375 352.242 467.103 351.248 469.375 351.248 C 471.302 351.248 472.81 351.917 473.894 353.261 C 474.978 354.599 475.518 356.397 475.518 358.649 C 475.518 361.156 474.908 363.164 473.69 364.672 C 472.471 366.174 470.803 366.929 468.685 366.929 C 466.743 366.929 465.245 366.09 464.196 364.412 Z  M 464.137 358.369 L 464.137 360.462 C 464.137 361.7 464.536 362.754 465.345 363.618 C 466.149 364.482 467.168 364.911 468.407 364.911 C 469.859 364.911 470.998 364.357 471.822 363.243 C 472.646 362.13 473.06 360.587 473.06 358.604 C 473.06 356.936 472.676 355.632 471.902 354.684 C 471.133 353.74 470.089 353.266 468.776 353.266 C 467.378 353.266 466.258 353.75 465.41 354.719 C 464.56 355.693 464.137 356.906 464.137 358.369 Z  M 490.279 365.89 C 489.13 366.584 487.762 366.929 486.184 366.929 C 484.047 366.929 482.324 366.235 481.01 364.847 C 479.702 363.458 479.043 361.655 479.043 359.438 C 479.043 356.971 479.752 354.988 481.165 353.49 C 482.578 351.997 484.466 351.248 486.828 351.248 C 488.147 351.248 489.305 351.492 490.309 351.977 L 490.309 354.434 C 489.196 353.655 488.007 353.266 486.738 353.266 C 485.211 353.266 483.951 353.815 482.973 354.914 C 481.994 356.007 481.499 357.45 481.499 359.233 C 481.499 360.991 481.964 362.374 482.883 363.388 C 483.807 364.402 485.04 364.911 486.594 364.911 C 487.902 364.911 489.13 364.477 490.279 363.608 L 490.279 365.89 Z  M 507.063 366.579 L 503.697 366.579 L 497.085 359.383 L 497.026 359.383 L 497.026 366.579 L 494.624 366.579 L 494.624 351.598 L 497.026 351.598 L 497.026 358.459 L 497.085 358.459 L 503.373 351.598 L 506.519 351.598 L 499.572 358.824 L 507.063 366.579 Z  M 515.897 366.929 C 513.685 366.929 511.917 366.23 510.593 364.832 C 509.275 363.433 508.611 361.575 508.611 359.263 C 508.611 356.746 509.3 354.784 510.674 353.366 C 512.052 351.952 513.91 351.248 516.251 351.248 C 518.484 351.248 520.227 351.932 521.48 353.31 C 522.734 354.684 523.358 356.592 523.358 359.029 C 523.358 361.421 522.683 363.333 521.335 364.772 C 519.982 366.21 518.169 366.929 515.897 366.929 Z  M 516.072 353.266 C 514.534 353.266 513.315 353.79 512.416 354.838 C 511.517 355.887 511.068 357.331 511.068 359.179 C 511.068 360.951 511.522 362.349 512.431 363.373 C 513.34 364.397 514.554 364.911 516.072 364.911 C 517.625 364.911 518.818 364.407 519.652 363.403 C 520.487 362.4 520.901 360.971 520.901 359.118 C 520.901 357.246 520.487 355.803 519.652 354.789 C 518.818 353.775 517.625 353.266 516.072 353.266 Z  M 540.467 366.579 L 538.3 366.579 L 538.3 354.624 C 538.084 355.044 537.76 355.638 537.32 356.397 L 530.399 366.579 L 527.912 366.579 L 527.912 351.598 L 530.109 351.598 L 530.109 363.403 C 530.224 363.123 530.479 362.639 530.868 361.955 L 537.98 351.598 L 540.467 351.598 L 540.467 366.579 Z  M 539.588 344.311 C 539.443 345.685 538.889 346.773 537.93 347.568 C 536.966 348.362 535.767 348.761 534.325 348.761 C 532.841 348.761 531.632 348.362 530.699 347.568 C 529.77 346.773 529.26 345.685 529.171 344.311 L 531.543 344.311 C 531.678 346.144 532.617 347.063 534.349 347.063 C 535.133 347.063 535.777 346.819 536.282 346.339 C 536.791 345.854 537.101 345.18 537.221 344.311 L 539.588 344.311 Z  M 560.512 366.929 C 558.3 366.929 556.532 366.23 555.208 364.832 C 553.89 363.433 553.226 361.575 553.226 359.263 C 553.226 356.746 553.915 354.784 555.289 353.366 C 556.667 351.952 558.525 351.248 560.867 351.248 C 563.099 351.248 564.842 351.932 566.095 353.31 C 567.349 354.684 567.973 356.592 567.973 359.029 C 567.973 361.421 567.299 363.333 565.95 364.772 C 564.597 366.21 562.785 366.929 560.512 366.929 Z  M 560.687 353.266 C 559.149 353.266 557.93 353.79 557.031 354.838 C 556.132 355.887 555.683 357.331 555.683 359.179 C 555.683 360.951 556.137 362.349 557.046 363.373 C 557.955 364.397 559.169 364.911 560.687 364.911 C 562.24 364.911 563.434 364.407 564.267 363.403 C 565.102 362.4 565.516 360.971 565.516 359.118 C 565.516 357.246 565.102 355.803 564.267 354.789 C 563.434 353.775 562.24 353.266 560.687 353.266 Z  M 584.118 344.222 L 584.118 346.479 C 583.719 346.768 583.074 346.988 582.186 347.133 C 579.988 347.468 578.455 347.787 577.586 348.092 C 576.712 348.402 575.993 349.055 575.434 350.06 C 574.874 351.069 574.515 352.531 574.36 354.464 L 574.415 354.464 C 575.589 352.766 577.257 351.917 579.419 351.917 C 581.401 351.917 582.994 352.597 584.203 353.955 C 585.412 355.308 586.021 357.101 586.021 359.323 C 586.021 361.616 585.387 363.458 584.123 364.847 C 582.859 366.235 581.162 366.929 579.024 366.929 C 576.722 366.929 574.95 366.115 573.706 364.482 C 572.462 362.844 571.843 360.512 571.843 357.48 C 571.843 355.118 572.068 353.116 572.512 351.473 C 572.962 349.83 573.586 348.591 574.38 347.762 C 575.174 346.933 576.058 346.364 577.026 346.054 C 578.001 345.74 579.664 345.375 582.026 344.956 C 582.96 344.741 583.659 344.497 584.118 344.222 Z  M 574.33 356.836 L 574.33 358.914 C 574.34 359.693 574.455 360.457 574.68 361.211 C 574.904 361.96 575.224 362.624 575.643 363.198 C 576.063 363.773 576.557 364.202 577.132 364.487 C 577.701 364.772 578.35 364.911 579.084 364.911 C 580.417 364.911 581.502 364.412 582.325 363.413 C 583.149 362.415 583.559 361.131 583.559 359.573 C 583.559 357.855 583.139 356.492 582.296 355.482 C 581.451 354.474 580.313 353.97 578.879 353.97 C 576.867 353.97 575.353 354.924 574.33 356.836 Z  M 601.532 366.579 L 599.145 366.579 L 599.145 353.63 L 595.664 353.63 C 595.264 358.479 594.58 361.885 593.607 363.843 C 592.637 365.805 591.334 366.784 589.696 366.784 C 589.197 366.784 588.767 366.714 588.408 366.579 L 588.408 364.517 C 588.747 364.692 589.117 364.782 589.522 364.782 C 591.664 364.782 593.047 360.387 593.662 351.598 L 601.532 351.598 L 601.532 366.579 Z  M 617.831 366.579 L 615.429 366.579 L 615.429 364.237 L 615.374 364.237 C 614.331 366.035 612.793 366.929 610.765 366.929 C 609.272 366.929 608.103 366.534 607.259 365.746 C 606.415 364.956 605.996 363.908 605.996 362.599 C 605.996 359.803 607.643 358.17 610.94 357.715 L 615.429 357.086 C 615.429 354.539 614.401 353.266 612.343 353.266 C 610.54 353.266 608.913 353.88 607.459 355.108 L 607.459 352.651 C 608.932 351.713 610.625 351.248 612.548 351.248 C 616.069 351.248 617.831 353.111 617.831 356.836 L 617.831 366.579 Z  M 615.429 358.998 L 611.819 359.498 C 610.705 359.653 609.866 359.927 609.302 360.327 C 608.738 360.722 608.453 361.421 608.453 362.425 C 608.453 363.154 608.712 363.753 609.237 364.217 C 609.756 364.682 610.451 364.911 611.319 364.911 C 612.508 364.911 613.492 364.497 614.266 363.663 C 615.045 362.829 615.429 361.771 615.429 360.492 L 615.429 358.998 Z  M 633.283 365.89 C 632.134 366.584 630.765 366.929 629.187 366.929 C 627.05 366.929 625.327 366.235 624.014 364.847 C 622.705 363.458 622.046 361.655 622.046 359.438 C 622.046 356.971 622.755 354.988 624.168 353.49 C 625.581 351.997 627.47 351.248 629.831 351.248 C 631.15 351.248 632.308 351.492 633.312 351.977 L 633.312 354.434 C 632.199 353.655 631.01 353.266 629.742 353.266 C 628.214 353.266 626.955 353.815 625.976 354.914 C 624.997 356.007 624.503 357.45 624.503 359.233 C 624.503 360.991 624.967 362.374 625.886 363.388 C 626.81 364.402 628.044 364.911 629.597 364.911 C 630.905 364.911 632.134 364.477 633.283 363.608 L 633.283 365.89 Z  M 647.035 353.645 L 642.546 353.645 L 642.546 366.579 L 640.144 366.579 L 640.144 353.645 L 635.64 353.645 L 635.64 351.598 L 647.035 351.598 L 647.035 353.645 Z  M 663.19 366.579 L 661.023 366.579 L 661.023 354.624 C 660.808 355.044 660.483 355.638 660.044 356.397 L 653.123 366.579 L 650.636 366.579 L 650.636 351.598 L 652.833 351.598 L 652.833 363.403 C 652.948 363.123 653.202 362.639 653.592 361.955 L 660.704 351.598 L 663.19 351.598 L 663.19 366.579 Z " fill="rgb(255,255,255)"/><path d=" M 339.421 327.047 L 336.978 327.047 L 336.978 312.974 C 336.978 311.861 337.043 310.503 337.183 308.889 L 337.123 308.889 C 336.888 309.838 336.679 310.513 336.494 310.922 L 329.328 327.047 L 328.124 327.047 L 320.973 311.041 C 320.768 310.572 320.559 309.858 320.344 308.889 L 320.284 308.889 C 320.363 309.728 320.398 311.102 320.398 312.999 L 320.398 327.047 L 318.031 327.047 L 318.031 306.068 L 321.277 306.068 L 327.715 320.7 C 328.214 321.819 328.534 322.658 328.684 323.212 L 328.768 323.212 C 329.188 322.063 329.527 321.205 329.777 320.64 L 336.349 306.068 L 339.421 306.068 L 339.421 327.047 Z  M 358.292 327.047 L 356.125 327.047 L 356.125 315.092 C 355.909 315.512 355.585 316.105 355.145 316.864 L 348.224 327.047 L 345.737 327.047 L 345.737 312.065 L 347.934 312.065 L 347.934 323.871 C 348.049 323.591 348.304 323.107 348.693 322.423 L 355.805 312.065 L 358.292 312.065 L 358.292 327.047 Z  M 376.709 327.047 L 374.307 327.047 L 374.307 320.246 L 366.671 320.246 L 366.671 327.047 L 364.269 327.047 L 364.269 312.065 L 366.671 312.065 L 366.671 318.208 L 374.307 318.208 L 374.307 312.065 L 376.709 312.065 L 376.709 327.047 Z  M 395.24 327.047 L 393.073 327.047 L 393.073 315.092 C 392.858 315.512 392.533 316.105 392.094 316.864 L 385.173 327.047 L 382.685 327.047 L 382.685 312.065 L 384.883 312.065 L 384.883 323.871 C 384.998 323.591 385.252 323.107 385.642 322.423 L 392.754 312.065 L 395.24 312.065 L 395.24 327.047 Z  M 411.43 326.358 C 410.281 327.052 408.913 327.397 407.335 327.397 C 405.198 327.397 403.475 326.703 402.161 325.314 C 400.852 323.926 400.193 322.124 400.193 319.906 C 400.193 317.439 400.903 315.456 402.316 313.958 C 403.729 312.465 405.617 311.716 407.979 311.716 C 409.298 311.716 410.456 311.96 411.46 312.445 L 411.46 314.902 C 410.346 314.123 409.158 313.734 407.889 313.734 C 406.361 313.734 405.102 314.283 404.124 315.382 C 403.145 316.475 402.65 317.918 402.65 319.701 C 402.65 321.459 403.115 322.842 404.034 323.856 C 404.958 324.87 406.191 325.379 407.745 325.379 C 409.053 325.379 410.281 324.945 411.43 324.076 L 411.43 326.358 Z  M 425.587 314.113 L 421.097 314.113 L 421.097 327.047 L 418.695 327.047 L 418.695 314.113 L 414.191 314.113 L 414.191 312.065 L 425.587 312.065 L 425.587 314.113 Z  M 441.092 320.156 L 430.515 320.156 C 430.555 321.824 431.005 323.112 431.863 324.021 C 432.722 324.925 433.901 325.379 435.404 325.379 C 437.092 325.379 438.64 324.825 440.053 323.711 L 440.053 325.964 C 438.74 326.922 436.997 327.397 434.835 327.397 C 432.717 327.397 431.054 326.718 429.846 325.359 C 428.632 323.996 428.028 322.084 428.028 319.616 C 428.028 317.284 428.692 315.387 430.01 313.918 C 431.334 312.45 432.972 311.716 434.934 311.716 C 436.897 311.716 438.41 312.35 439.484 313.618 C 440.558 314.882 441.092 316.645 441.092 318.897 L 441.092 320.156 Z  M 438.635 318.123 C 438.625 316.74 438.29 315.661 437.636 314.887 C 436.977 314.118 436.063 313.734 434.89 313.734 C 433.761 313.734 432.797 314.138 432.008 314.947 C 431.219 315.756 430.73 316.815 430.545 318.123 L 438.635 318.123 Z  M 448.308 324.88 L 448.248 324.88 L 448.248 333.939 L 445.846 333.939 L 445.846 312.065 L 448.248 312.065 L 448.248 314.697 L 448.308 314.697 C 449.487 312.71 451.214 311.716 453.487 311.716 C 455.414 311.716 456.922 312.385 458.006 313.729 C 459.09 315.067 459.629 316.864 459.629 319.117 C 459.629 321.624 459.02 323.632 457.801 325.14 C 456.583 326.643 454.915 327.397 452.797 327.397 C 450.855 327.397 449.357 326.558 448.308 324.88 Z  M 448.248 318.837 L 448.248 320.93 C 448.248 322.168 448.647 323.222 449.456 324.086 C 450.261 324.95 451.279 325.379 452.518 325.379 C 453.971 325.379 455.109 324.825 455.934 323.711 C 456.757 322.598 457.172 321.055 457.172 319.072 C 457.172 317.404 456.787 316.1 456.013 315.152 C 455.244 314.208 454.201 313.734 452.887 313.734 C 451.489 313.734 450.37 314.218 449.521 315.187 C 448.672 316.161 448.248 317.374 448.248 318.837 Z  M 474.795 326.358 C 473.646 327.052 472.278 327.397 470.7 327.397 C 468.562 327.397 466.84 326.703 465.526 325.314 C 464.217 323.926 463.558 322.124 463.558 319.906 C 463.558 317.439 464.268 315.456 465.681 313.958 C 467.094 312.465 468.982 311.716 471.344 311.716 C 472.662 311.716 473.821 311.96 474.825 312.445 L 474.825 314.902 C 473.711 314.123 472.522 313.734 471.254 313.734 C 469.726 313.734 468.467 314.283 467.489 315.382 C 466.51 316.475 466.015 317.918 466.015 319.701 C 466.015 321.459 466.48 322.842 467.399 323.856 C 468.322 324.87 469.556 325.379 471.109 325.379 C 472.418 325.379 473.646 324.945 474.795 324.076 L 474.795 326.358 Z  M 488.952 314.113 L 484.462 314.113 L 484.462 327.047 L 482.06 327.047 L 482.06 314.113 L 477.556 314.113 L 477.556 312.065 L 488.952 312.065 L 488.952 314.113 Z  M 492.956 327.047 L 492.956 312.065 L 499.483 312.065 C 500.956 312.065 502.12 312.39 502.974 313.044 C 503.828 313.699 504.252 314.593 504.252 315.721 C 504.252 317.664 503.299 318.842 501.386 319.262 C 503.678 319.556 504.821 320.71 504.821 322.733 C 504.821 323.951 504.352 324.975 503.413 325.804 C 502.469 326.633 501.301 327.047 499.907 327.047 L 492.956 327.047 Z  M 495.358 314.113 L 495.358 318.328 L 498.959 318.328 C 500.887 318.328 501.855 317.579 501.855 316.076 C 501.855 314.767 500.986 314.113 499.248 314.113 L 495.358 314.113 Z  M 495.358 320.375 L 495.358 325 L 499.513 325 C 501.456 325 502.425 324.215 502.425 322.643 C 502.425 321.129 501.336 320.375 499.163 320.375 L 495.358 320.375 Z  M 516.217 327.397 C 514.005 327.397 512.237 326.698 510.913 325.299 C 509.595 323.901 508.931 322.043 508.931 319.731 C 508.931 317.214 509.62 315.252 510.994 313.834 C 512.372 312.42 514.23 311.716 516.571 311.716 C 518.804 311.716 520.547 312.4 521.8 313.778 C 523.054 315.152 523.678 317.06 523.678 319.497 C 523.678 321.888 523.004 323.801 521.655 325.239 C 520.302 326.678 518.489 327.397 516.217 327.397 Z  M 516.392 313.734 C 514.854 313.734 513.635 314.258 512.736 315.306 C 511.837 316.355 511.388 317.799 511.388 319.647 C 511.388 321.419 511.842 322.817 512.751 323.841 C 513.66 324.865 514.874 325.379 516.392 325.379 C 517.945 325.379 519.138 324.875 519.972 323.871 C 520.807 322.868 521.221 321.439 521.221 319.586 C 521.221 317.714 520.807 316.271 519.972 315.257 C 519.138 314.243 517.945 313.734 516.392 313.734 Z  M 549.286 327.047 L 545.92 327.047 L 539.308 319.851 L 539.249 319.851 L 539.249 327.047 L 536.847 327.047 L 536.847 312.065 L 539.249 312.065 L 539.249 318.927 L 539.308 318.927 L 545.596 312.065 L 548.742 312.065 L 541.795 319.291 L 549.286 327.047 Z  M 564.786 312.065 L 557.895 329.445 C 556.666 332.55 554.938 334.099 552.716 334.099 C 552.092 334.099 551.572 334.034 551.153 333.909 L 551.153 331.757 C 551.667 331.936 552.142 332.022 552.571 332.022 C 553.78 332.022 554.689 331.302 555.293 329.854 L 556.492 327.018 L 550.638 312.065 L 553.3 312.065 L 557.355 323.596 C 557.406 323.741 557.505 324.121 557.66 324.735 L 557.75 324.735 C 557.8 324.5 557.895 324.131 558.04 323.622 L 562.3 312.065 L 564.786 312.065 Z  M 577.79 327.047 L 575.403 327.047 L 575.403 314.098 L 571.922 314.098 C 571.522 318.947 570.838 322.353 569.865 324.31 C 568.896 326.273 567.592 327.252 565.954 327.252 C 565.455 327.252 565.025 327.182 564.666 327.047 L 564.666 324.985 C 565.005 325.16 565.375 325.249 565.779 325.249 C 567.922 325.249 569.305 320.854 569.919 312.065 L 577.79 312.065 L 577.79 327.047 Z  M 583.767 327.047 L 583.767 312.065 L 586.169 312.065 L 586.169 317.814 L 590.204 317.814 C 591.737 317.814 592.955 318.213 593.854 319.017 C 594.758 319.816 595.208 320.93 595.208 322.363 C 595.208 323.811 594.758 324.95 593.85 325.789 C 592.94 326.627 591.797 327.047 590.408 327.047 L 583.767 327.047 Z  M 586.169 319.876 L 586.169 325 L 589.769 325 C 591.757 325 592.751 324.121 592.751 322.363 C 592.751 320.705 591.747 319.876 589.739 319.876 L 586.169 319.876 Z  M 608.136 314.113 L 603.647 314.113 L 603.647 327.047 L 601.245 327.047 L 601.245 314.113 L 596.74 314.113 L 596.74 312.065 L 608.136 312.065 L 608.136 314.113 Z  M 624.666 312.065 L 617.774 329.445 C 616.545 332.55 614.817 334.099 612.595 334.099 C 611.971 334.099 611.451 334.034 611.032 333.909 L 611.032 331.757 C 611.546 331.936 612.021 332.022 612.45 332.022 C 613.659 332.022 614.568 331.302 615.172 329.854 L 616.371 327.018 L 610.518 312.065 L 613.18 312.065 L 617.234 323.596 C 617.285 323.741 617.384 324.121 617.539 324.735 L 617.629 324.735 C 617.679 324.5 617.774 324.131 617.919 323.622 L 622.179 312.065 L 624.666 312.065 Z  M 630.822 324.88 L 630.763 324.88 L 630.763 333.939 L 628.36 333.939 L 628.36 312.065 L 630.763 312.065 L 630.763 314.697 L 630.822 314.697 C 632.001 312.71 633.729 311.716 636.001 311.716 C 637.928 311.716 639.437 312.385 640.52 313.729 C 641.604 315.067 642.143 316.864 642.143 319.117 C 642.143 321.624 641.534 323.632 640.316 325.14 C 639.097 326.643 637.429 327.397 635.312 327.397 C 633.369 327.397 631.871 326.558 630.822 324.88 Z  M 630.763 318.837 L 630.763 320.93 C 630.763 322.168 631.162 323.222 631.971 324.086 C 632.775 324.95 633.793 325.379 635.032 325.379 C 636.485 325.379 637.624 324.825 638.448 323.711 C 639.272 322.598 639.686 321.055 639.686 319.072 C 639.686 317.404 639.302 316.1 638.528 315.152 C 637.759 314.208 636.715 313.734 635.402 313.734 C 634.003 313.734 632.885 314.218 632.036 315.187 C 631.187 316.161 630.763 317.374 630.763 318.837 Z  M 663.487 327.047 L 661.115 327.047 L 661.115 312.065 L 663.487 312.065 L 663.487 327.047 Z  M 647.097 327.047 L 647.097 312.065 L 649.499 312.065 L 649.499 317.814 L 653.534 317.814 C 655.067 317.814 656.285 318.213 657.184 319.017 C 658.088 319.816 658.538 320.93 658.538 322.363 C 658.538 323.811 658.088 324.95 657.179 325.789 C 656.27 326.627 655.127 327.047 653.738 327.047 L 647.097 327.047 Z  M 649.499 319.876 L 649.499 325 L 653.099 325 C 655.087 325 656.081 324.121 656.081 322.363 C 656.081 320.705 655.077 319.876 653.069 319.876 L 649.499 319.876 Z " fill-rule="evenodd" fill="none"/><path d=" M 339.421 327.047 L 336.978 327.047 L 336.978 312.974 C 336.978 311.861 337.043 310.503 337.183 308.889 L 337.123 308.889 C 336.888 309.838 336.679 310.513 336.494 310.922 L 329.328 327.047 L 328.124 327.047 L 320.973 311.041 C 320.768 310.572 320.559 309.858 320.344 308.889 L 320.284 308.889 C 320.363 309.728 320.398 311.102 320.398 312.999 L 320.398 327.047 L 318.031 327.047 L 318.031 306.068 L 321.277 306.068 L 327.715 320.7 C 328.214 321.819 328.534 322.658 328.684 323.212 L 328.768 323.212 C 329.188 322.063 329.527 321.205 329.777 320.64 L 336.349 306.068 L 339.421 306.068 L 339.421 327.047 Z  M 358.292 327.047 L 356.125 327.047 L 356.125 315.092 C 355.909 315.512 355.585 316.105 355.145 316.864 L 348.224 327.047 L 345.737 327.047 L 345.737 312.065 L 347.934 312.065 L 347.934 323.871 C 348.049 323.591 348.304 323.107 348.693 322.423 L 355.805 312.065 L 358.292 312.065 L 358.292 327.047 Z  M 376.709 327.047 L 374.307 327.047 L 374.307 320.246 L 366.671 320.246 L 366.671 327.047 L 364.269 327.047 L 364.269 312.065 L 366.671 312.065 L 366.671 318.208 L 374.307 318.208 L 374.307 312.065 L 376.709 312.065 L 376.709 327.047 Z  M 395.24 327.047 L 393.073 327.047 L 393.073 315.092 C 392.858 315.512 392.533 316.105 392.094 316.864 L 385.173 327.047 L 382.685 327.047 L 382.685 312.065 L 384.883 312.065 L 384.883 323.871 C 384.998 323.591 385.252 323.107 385.642 322.423 L 392.754 312.065 L 395.24 312.065 L 395.24 327.047 Z  M 411.43 326.358 C 410.281 327.052 408.913 327.397 407.335 327.397 C 405.198 327.397 403.475 326.703 402.161 325.314 C 400.852 323.926 400.193 322.124 400.193 319.906 C 400.193 317.439 400.903 315.456 402.316 313.958 C 403.729 312.465 405.617 311.716 407.979 311.716 C 409.298 311.716 410.456 311.96 411.46 312.445 L 411.46 314.902 C 410.346 314.123 409.158 313.734 407.889 313.734 C 406.361 313.734 405.102 314.283 404.124 315.382 C 403.145 316.475 402.65 317.918 402.65 319.701 C 402.65 321.459 403.115 322.842 404.034 323.856 C 404.958 324.87 406.191 325.379 407.745 325.379 C 409.053 325.379 410.281 324.945 411.43 324.076 L 411.43 326.358 Z  M 425.587 314.113 L 421.097 314.113 L 421.097 327.047 L 418.695 327.047 L 418.695 314.113 L 414.191 314.113 L 414.191 312.065 L 425.587 312.065 L 425.587 314.113 Z  M 441.092 320.156 L 430.515 320.156 C 430.555 321.824 431.005 323.112 431.863 324.021 C 432.722 324.925 433.901 325.379 435.404 325.379 C 437.092 325.379 438.64 324.825 440.053 323.711 L 440.053 325.964 C 438.74 326.922 436.997 327.397 434.835 327.397 C 432.717 327.397 431.054 326.718 429.846 325.359 C 428.632 323.996 428.028 322.084 428.028 319.616 C 428.028 317.284 428.692 315.387 430.01 313.918 C 431.334 312.45 432.972 311.716 434.934 311.716 C 436.897 311.716 438.41 312.35 439.484 313.618 C 440.558 314.882 441.092 316.645 441.092 318.897 L 441.092 320.156 Z  M 438.635 318.123 C 438.625 316.74 438.29 315.661 437.636 314.887 C 436.977 314.118 436.063 313.734 434.89 313.734 C 433.761 313.734 432.797 314.138 432.008 314.947 C 431.219 315.756 430.73 316.815 430.545 318.123 L 438.635 318.123 Z  M 448.308 324.88 L 448.248 324.88 L 448.248 333.939 L 445.846 333.939 L 445.846 312.065 L 448.248 312.065 L 448.248 314.697 L 448.308 314.697 C 449.487 312.71 451.214 311.716 453.487 311.716 C 455.414 311.716 456.922 312.385 458.006 313.729 C 459.09 315.067 459.629 316.864 459.629 319.117 C 459.629 321.624 459.02 323.632 457.801 325.14 C 456.583 326.643 454.915 327.397 452.797 327.397 C 450.855 327.397 449.357 326.558 448.308 324.88 Z  M 448.248 318.837 L 448.248 320.93 C 448.248 322.168 448.647 323.222 449.456 324.086 C 450.261 324.95 451.279 325.379 452.518 325.379 C 453.971 325.379 455.109 324.825 455.934 323.711 C 456.757 322.598 457.172 321.055 457.172 319.072 C 457.172 317.404 456.787 316.1 456.013 315.152 C 455.244 314.208 454.201 313.734 452.887 313.734 C 451.489 313.734 450.37 314.218 449.521 315.187 C 448.672 316.161 448.248 317.374 448.248 318.837 Z  M 474.795 326.358 C 473.646 327.052 472.278 327.397 470.7 327.397 C 468.562 327.397 466.84 326.703 465.526 325.314 C 464.217 323.926 463.558 322.124 463.558 319.906 C 463.558 317.439 464.268 315.456 465.681 313.958 C 467.094 312.465 468.982 311.716 471.344 311.716 C 472.662 311.716 473.821 311.96 474.825 312.445 L 474.825 314.902 C 473.711 314.123 472.522 313.734 471.254 313.734 C 469.726 313.734 468.467 314.283 467.489 315.382 C 466.51 316.475 466.015 317.918 466.015 319.701 C 466.015 321.459 466.48 322.842 467.399 323.856 C 468.322 324.87 469.556 325.379 471.109 325.379 C 472.418 325.379 473.646 324.945 474.795 324.076 L 474.795 326.358 Z  M 488.952 314.113 L 484.462 314.113 L 484.462 327.047 L 482.06 327.047 L 482.06 314.113 L 477.556 314.113 L 477.556 312.065 L 488.952 312.065 L 488.952 314.113 Z  M 492.956 327.047 L 492.956 312.065 L 499.483 312.065 C 500.956 312.065 502.12 312.39 502.974 313.044 C 503.828 313.699 504.252 314.593 504.252 315.721 C 504.252 317.664 503.299 318.842 501.386 319.262 C 503.678 319.556 504.821 320.71 504.821 322.733 C 504.821 323.951 504.352 324.975 503.413 325.804 C 502.469 326.633 501.301 327.047 499.907 327.047 L 492.956 327.047 Z  M 495.358 314.113 L 495.358 318.328 L 498.959 318.328 C 500.887 318.328 501.855 317.579 501.855 316.076 C 501.855 314.767 500.986 314.113 499.248 314.113 L 495.358 314.113 Z  M 495.358 320.375 L 495.358 325 L 499.513 325 C 501.456 325 502.425 324.215 502.425 322.643 C 502.425 321.129 501.336 320.375 499.163 320.375 L 495.358 320.375 Z  M 516.217 327.397 C 514.005 327.397 512.237 326.698 510.913 325.299 C 509.595 323.901 508.931 322.043 508.931 319.731 C 508.931 317.214 509.62 315.252 510.994 313.834 C 512.372 312.42 514.23 311.716 516.571 311.716 C 518.804 311.716 520.547 312.4 521.8 313.778 C 523.054 315.152 523.678 317.06 523.678 319.497 C 523.678 321.888 523.004 323.801 521.655 325.239 C 520.302 326.678 518.489 327.397 516.217 327.397 Z  M 516.392 313.734 C 514.854 313.734 513.635 314.258 512.736 315.306 C 511.837 316.355 511.388 317.799 511.388 319.647 C 511.388 321.419 511.842 322.817 512.751 323.841 C 513.66 324.865 514.874 325.379 516.392 325.379 C 517.945 325.379 519.138 324.875 519.972 323.871 C 520.807 322.868 521.221 321.439 521.221 319.586 C 521.221 317.714 520.807 316.271 519.972 315.257 C 519.138 314.243 517.945 313.734 516.392 313.734 Z  M 549.286 327.047 L 545.92 327.047 L 539.308 319.851 L 539.249 319.851 L 539.249 327.047 L 536.847 327.047 L 536.847 312.065 L 539.249 312.065 L 539.249 318.927 L 539.308 318.927 L 545.596 312.065 L 548.742 312.065 L 541.795 319.291 L 549.286 327.047 Z  M 564.786 312.065 L 557.895 329.445 C 556.666 332.55 554.938 334.099 552.716 334.099 C 552.092 334.099 551.572 334.034 551.153 333.909 L 551.153 331.757 C 551.667 331.936 552.142 332.022 552.571 332.022 C 553.78 332.022 554.689 331.302 555.293 329.854 L 556.492 327.018 L 550.638 312.065 L 553.3 312.065 L 557.355 323.596 C 557.406 323.741 557.505 324.121 557.66 324.735 L 557.75 324.735 C 557.8 324.5 557.895 324.131 558.04 323.622 L 562.3 312.065 L 564.786 312.065 Z  M 577.79 327.047 L 575.403 327.047 L 575.403 314.098 L 571.922 314.098 C 571.522 318.947 570.838 322.353 569.865 324.31 C 568.896 326.273 567.592 327.252 565.954 327.252 C 565.455 327.252 565.025 327.182 564.666 327.047 L 564.666 324.985 C 565.005 325.16 565.375 325.249 565.779 325.249 C 567.922 325.249 569.305 320.854 569.919 312.065 L 577.79 312.065 L 577.79 327.047 Z  M 583.767 327.047 L 583.767 312.065 L 586.169 312.065 L 586.169 317.814 L 590.204 317.814 C 591.737 317.814 592.955 318.213 593.854 319.017 C 594.758 319.816 595.208 320.93 595.208 322.363 C 595.208 323.811 594.758 324.95 593.85 325.789 C 592.94 326.627 591.797 327.047 590.408 327.047 L 583.767 327.047 Z  M 586.169 319.876 L 586.169 325 L 589.769 325 C 591.757 325 592.751 324.121 592.751 322.363 C 592.751 320.705 591.747 319.876 589.739 319.876 L 586.169 319.876 Z  M 608.136 314.113 L 603.647 314.113 L 603.647 327.047 L 601.245 327.047 L 601.245 314.113 L 596.74 314.113 L 596.74 312.065 L 608.136 312.065 L 608.136 314.113 Z  M 624.666 312.065 L 617.774 329.445 C 616.545 332.55 614.817 334.099 612.595 334.099 C 611.971 334.099 611.451 334.034 611.032 333.909 L 611.032 331.757 C 611.546 331.936 612.021 332.022 612.45 332.022 C 613.659 332.022 614.568 331.302 615.172 329.854 L 616.371 327.018 L 610.518 312.065 L 613.18 312.065 L 617.234 323.596 C 617.285 323.741 617.384 324.121 617.539 324.735 L 617.629 324.735 C 617.679 324.5 617.774 324.131 617.919 323.622 L 622.179 312.065 L 624.666 312.065 Z  M 630.822 324.88 L 630.763 324.88 L 630.763 333.939 L 628.36 333.939 L 628.36 312.065 L 630.763 312.065 L 630.763 314.697 L 630.822 314.697 C 632.001 312.71 633.729 311.716 636.001 311.716 C 637.928 311.716 639.437 312.385 640.52 313.729 C 641.604 315.067 642.143 316.864 642.143 319.117 C 642.143 321.624 641.534 323.632 640.316 325.14 C 639.097 326.643 637.429 327.397 635.312 327.397 C 633.369 327.397 631.871 326.558 630.822 324.88 Z  M 630.763 318.837 L 630.763 320.93 C 630.763 322.168 631.162 323.222 631.971 324.086 C 632.775 324.95 633.793 325.379 635.032 325.379 C 636.485 325.379 637.624 324.825 638.448 323.711 C 639.272 322.598 639.686 321.055 639.686 319.072 C 639.686 317.404 639.302 316.1 638.528 315.152 C 637.759 314.208 636.715 313.734 635.402 313.734 C 634.003 313.734 632.885 314.218 632.036 315.187 C 631.187 316.161 630.763 317.374 630.763 318.837 Z  M 663.487 327.047 L 661.115 327.047 L 661.115 312.065 L 663.487 312.065 L 663.487 327.047 Z  M 647.097 327.047 L 647.097 312.065 L 649.499 312.065 L 649.499 317.814 L 653.534 317.814 C 655.067 317.814 656.285 318.213 657.184 319.017 C 658.088 319.816 658.538 320.93 658.538 322.363 C 658.538 323.811 658.088 324.95 657.179 325.789 C 656.27 326.627 655.127 327.047 653.738 327.047 L 647.097 327.047 Z  M 649.499 319.876 L 649.499 325 L 653.099 325 C 655.087 325 656.081 324.121 656.081 322.363 C 656.081 320.705 655.077 319.876 653.069 319.876 L 649.499 319.876 Z " fill="rgb(255,255,255)"/></g></g></svg>