<svg id="Слой_1" data-name="Слой 1" xmlns="http://www.w3.org/2000/svg" viewBox="0 0 1920 1080"><defs><style>.cls-1{fill:#fff;}</style></defs><title>naom_logo_white</title><path class="cls-1" d="M825.82,651h3.85c2.44,0,3.89-1.11,3.89-3.21,0-1.86-1.45-3.08-3.85-3.08h-3.89Z"/><polygon class="cls-1" points="733.16 646.72 739.15 646.72 736.18 639.13 733.16 646.72"/><path class="cls-1" d="M640.21,651.1c4.08,0,6.78-3.28,6.78-7.2a6.94,6.94,0,0,0-6.86-7.21c-4,0-6.75,3.28-6.75,7.21A6.93,6.93,0,0,0,640.21,651.1Z"/><polygon class="cls-1" points="921.87 639.13 918.85 646.72 924.84 646.72 921.87 639.13"/><polygon class="cls-1" points="496.37 639.13 493.35 646.72 499.34 646.72 496.37 639.13"/><path class="cls-1" d="M1471.81,636.85H1467c-2.48,0-4,1.18-4,3.35,0,1.94,1.45,3.28,4,3.28h4.88Z"/><polygon class="cls-1" points="1325.53 639.13 1322.52 646.72 1328.5 646.72 1325.53 639.13"/><path class="cls-1" d="M973.4,636.85h-4.84c-2.48,0-4,1.18-4,3.35,0,1.94,1.45,3.28,4,3.28h4.88Z"/><polygon class="cls-1" points="1044.86 639.13 1041.85 646.72 1047.83 646.72 1044.86 639.13"/><path class="cls-1" d="M1181.76,636.69c-4,0-6.74,3.28-6.74,7.21a6.92,6.92,0,0,0,6.82,7.2c4.08,0,6.79-3.28,6.79-7.2A7,7,0,0,0,1181.76,636.69Z"/><polygon class="cls-1" points="751.03 752.12 759.29 752.12 755.14 742.52 751.03 752.12"/><path class="cls-1" d="M833.17,741.11c-4.77,0-8.09,3.81-8.09,8.54a8.22,8.22,0,0,0,8.16,8.54c4.77,0,8.09-3.81,8.09-8.54A8.22,8.22,0,0,0,833.17,741.11Z"/><path class="cls-1" d="M876.21,741.49h-4.9v8.64h4.9c3.19,0,5.18-1.78,5.18-4.36C881.39,743,879.37,741.49,876.21,741.49Z"/><polygon class="cls-1" points="585.07 752.12 593.33 752.12 589.18 742.52 585.07 752.12"/><path class="cls-1" d="M473.26,741.11c-4.77,0-8.1,3.81-8.1,8.54a8.23,8.23,0,0,0,8.16,8.54c4.77,0,8.1-3.81,8.1-8.54A8.23,8.23,0,0,0,473.26,741.11Z"/><path class="cls-1" d="M917.68,741.11c-4.77,0-8.1,3.81-8.1,8.54a8.23,8.23,0,0,0,8.17,8.54c4.76,0,8.09-3.81,8.09-8.54A8.23,8.23,0,0,0,917.68,741.11Z"/><path class="cls-1" d="M516.3,741.49h-4.91v8.64h4.91c3.19,0,5.18-1.78,5.18-4.36C521.48,743,519.45,741.49,516.3,741.49Z"/><path class="cls-1" d="M430,716.18v66.1H1485.33v-66.1Zm1012.08,14.3a2.8,2.8,0,0,0,2.84,2.33,2.83,2.83,0,0,0,2.85-2.33l2.54.48a5.44,5.44,0,0,1-10.8,0ZM473.26,762.06a12.41,12.41,0,1,1,12.58-12.41A12.2,12.2,0,0,1,473.26,762.06Zm42.9-8.12h-4.77v7.71h-4.21v-24h9.46c5.59,0,9.12,3.19,9.12,8.09C525.76,751.12,521.44,753.94,516.16,753.94Zm46.3-12.49h-12v20.2h-4.18v-24h16.15Zm34.85,20.2-2.44-5.79H583.52l-2.47,5.79h-4.32l10.56-24.17h3.91l10.57,24.17Zm44.69,0h-4.22V751.54H626.33v10.11h-4.22v-24h4.22v10h11.45v-10H642Zm42.63,0h-4.15V744.16l-12.11,17.49h-4v-24h4.15v17.52l12.14-17.52h4Zm30.83.41c-4.66,0-7.71-1.37-10.39-3.94l2.3-2.91a11.09,11.09,0,0,0,8,3.18c2.54,0,4.7-1.33,4.7-3.6,0-2.47-2.37-3.49-5.49-3.49h-2.71v-3.5h2.67c3.06,0,4.94-1.24,4.94-3.5,0-2-1.85-3.36-4.52-3.36a9.12,9.12,0,0,0-6.73,2.67L706,740.87a12.44,12.44,0,0,1,9.26-3.63c5,0,8.44,2.71,8.44,6.44,0,3.09-2,4.7-4.08,5.59,2.67.83,4.69,2.64,4.69,5.76C724.27,759,720.81,762.06,715.46,762.06Zm47.81-.41-2.43-5.79H749.49L747,761.65H742.7l10.56-24.17h3.91l10.56,24.17Zm39.48-20.09h-7.62v20.09h-4.25V741.56h-7.61v-3.91h19.48Zm30.42,20.5a12.41,12.41,0,1,1,12.58-12.41A12.2,12.2,0,0,1,833.17,762.06Zm42.9-8.12h-4.76v7.71h-4.22v-24h9.46c5.59,0,9.13,3.19,9.13,8.09C885.68,751.12,881.36,753.94,876.07,753.94Zm41.61,8.12a12.41,12.41,0,1,1,12.58-12.41A12.2,12.2,0,0,1,917.68,762.06Zm45-.41H951.6v-24h10.77a8.66,8.66,0,0,1,6.27,2.12,5.45,5.45,0,0,1,1.61,4.05,5.71,5.71,0,0,1-3.43,5.35c2.82,1,4.77,2.57,4.77,5.9C971.59,759.35,968.06,761.65,962.71,761.65Zm80,0h-4.22V744.44l-7.58,11.31h-.14l-7.51-11.24v17.14h-4.15v-24h4.5l7.3,11.35,7.31-11.35h4.49Zm40.37,0h-18v-24h17.79v3.77H1069.3v6.24h12v3.77h-12v6.45h13.76Zm30.21-7.71h-4.76v7.71h-4.22v-24h9.46c5.59,0,9.12,3.19,9.12,8.09C1122.87,751.12,1118.55,753.94,1113.27,753.94Zm41.6,8.12a12.41,12.41,0,1,1,12.59-12.41A12.2,12.2,0,0,1,1154.87,762.06Zm53.51-.41h-4.22v-20.2H1193v20.2h-4.21v-24h19.58Zm31.38-7.71H1235v7.71h-4.22v-24h9.47c5.59,0,9.12,3.19,9.12,8.09C1249.36,751.12,1245,753.94,1239.76,753.94Zm50.38,7.71H1286V744.16l-12.1,17.49h-4v-24h4.15v17.52l12.14-17.52h3.94Zm41,0H1327v-8.3h-5.32l-6,8.3h-5l6.55-9a7.22,7.22,0,0,1-5.73-7.34c0-4.66,3.4-7.64,9-7.64h10.66Zm40.16-20.09h-7.61v20.09h-4.25V741.56h-7.62v-3.91h19.48Zm40.92,20.09h-4.15V744.16L1396,761.65h-4v-24h4.15v17.52l12.14-17.52h4Zm42.66,0h-4.15V744.16l-12.1,17.49h-4v-24h4.15v17.52L1451,737.65h3.94Z"/><path class="cls-1" d="M1239.9,741.49H1235v8.64h4.91c3.19,0,5.18-1.78,5.18-4.36C1245.08,743,1243.05,741.49,1239.9,741.49Z"/><path class="cls-1" d="M1315.8,745.57c0,2.5,2,4.11,5,4.11H1327v-8.23h-6.14C1317.68,741.45,1315.8,743,1315.8,745.57Z"/><path class="cls-1" d="M1154.87,741.11c-4.76,0-8.09,3.81-8.09,8.54a8.23,8.23,0,0,0,8.16,8.54c4.77,0,8.1-3.81,8.1-8.54A8.23,8.23,0,0,0,1154.87,741.11Z"/><path class="cls-1" d="M1113.41,741.49h-4.9v8.64h4.9c3.19,0,5.18-1.78,5.18-4.36C1118.59,743,1116.56,741.49,1113.41,741.49Z"/><path class="cls-1" d="M962.43,751.33h-6.68v6.58h7c2.88,0,4.63-1.13,4.63-3.36C967.37,752.53,965.76,751.33,962.43,751.33Z"/><path class="cls-1" d="M966,744.44c0-1.89-1.5-3.06-4.21-3.06h-6.07v6.38h5.76C964.22,747.76,966,746.7,966,744.44Z"/><polygon class="cls-1" points="474 437.88 589.28 437.88 589.28 539.69 631.73 539.69 631.73 298.1 589.28 298.1 589.28 398.53 474 398.53 474 298.1 431.56 298.1 431.56 539.69 474 539.69 474 437.88"/><path class="cls-1" d="M741.46,481.36H855.69l24.51,58.33h44.87L818.77,296.37H779.42L673.12,539.69h43.49Zm56.95-134.25,41.75,96.63H757Z"/><path class="cls-1" d="M1067.93,543.83c74.2,0,126.66-57,126.66-124.94,0-68.68-51.77-124.93-126-124.93S942,350.9,942,418.89C942,487.57,993.73,543.83,1067.93,543.83Zm0-210.87c48,0,82.14,39,82.14,85.93,0,47.63-33.48,85.94-81.45,85.94s-82.14-39-82.14-85.94C986.48,371.27,1020,333,1067.93,333Z"/><polygon class="cls-1" points="1287.75 367.13 1363.33 480.32 1364.71 480.32 1440.99 366.43 1440.99 539.69 1483.43 539.69 1483.43 298.1 1438.22 298.1 1364.71 412.33 1291.2 298.1 1245.99 298.1 1245.99 539.69 1287.75 539.69 1287.75 367.13"/><polygon class="cls-1" points="460.88 657.24 460.88 630.56 453.49 630.56 453.49 640.54 444 640.54 444 630.56 436.6 630.56 436.6 657.24 444 657.24 444 647.1 453.49 647.1 453.49 657.24 460.88 657.24"/><path class="cls-1" d="M481.5,657.24h7.77l1.91-4.77h10.29l1.95,4.77h7.92L500,630.37h-7.13Zm14.86-18.11,3,7.59h-6Z"/><polygon class="cls-1" points="558.03 662.58 558.87 650.76 555.86 650.76 555.86 630.56 548.47 630.56 548.47 650.76 539.36 650.76 539.36 630.56 531.96 630.56 531.96 657.24 551.78 657.24 551.78 662.58 558.03 662.58"/><polygon class="cls-1" points="603.96 657.24 603.96 630.56 597.06 630.56 586.73 645.58 586.73 630.56 579.41 630.56 579.41 657.24 586.31 657.24 596.64 642.22 596.64 657.24 603.96 657.24"/><path class="cls-1" d="M625.8,643.9c0,7.74,6.1,13.87,14.33,13.87s14.41-6.21,14.41-13.87S648.44,630,640.21,630,625.8,636.24,625.8,643.9Zm14.33-7.21A6.94,6.94,0,0,1,647,643.9c0,3.92-2.7,7.2-6.78,7.2a6.93,6.93,0,0,1-6.83-7.2C633.38,640,636.09,636.69,640.13,636.69Z"/><polygon class="cls-1" points="700.69 657.24 700.69 630.56 693.3 630.56 693.3 640.54 683.81 640.54 683.81 630.56 676.41 630.56 676.41 657.24 683.81 657.24 683.81 647.1 693.3 647.1 693.3 657.24 700.69 657.24"/><path class="cls-1" d="M732.67,630.37l-11.36,26.87h7.78l1.9-4.77h10.3l1.94,4.77h7.93L739.8,630.37Zm.49,16.35,3-7.59,3,7.59Z"/><path class="cls-1" d="M795.67,657.24V630.56h-20.5v3.69c0,16.17-2,17.23-4.08,17.23a12.35,12.35,0,0,1-1.72-.15l-.49,5.68a16.79,16.79,0,0,0,4.42.61c5.18,0,8.77-3.28,8.77-19.55v-1h6.21v20.2Z"/><path class="cls-1" d="M818.42,630.56v26.68h11.82c6.52,0,10.71-3.47,10.71-9.23,0-6-4.69-9.07-11.09-9.07h-4v-8.38Zm11.29,14.18c2.4,0,3.85,1.22,3.85,3.08,0,2.1-1.45,3.21-3.89,3.21h-3.85v-6.29Z"/><polygon class="cls-1" points="886.38 657.24 886.38 630.56 878.99 630.56 878.99 640.54 869.5 640.54 869.5 630.56 862.1 630.56 862.1 657.24 869.5 657.24 869.5 647.1 878.99 647.1 878.99 657.24 886.38 657.24"/><path class="cls-1" d="M907,657.24h7.78l1.9-4.77H927l1.95,4.77h7.93l-11.36-26.87h-7.13Zm14.87-18.11,3,7.59h-6Z"/><path class="cls-1" d="M980.79,657.24V630.56H968.17c-6.06,0-11,2.86-11,9.11a8.47,8.47,0,0,0,5.49,8.27l-6.37,9.3h8.54l5.38-8.08h3.24v8.08Zm-12.27-13.76c-2.52,0-4-1.34-4-3.28,0-2.17,1.53-3.35,4-3.35h4.84v6.63Z"/><path class="cls-1" d="M1030,657.24h7.78l1.91-4.77H1050l1.94,4.77h7.93l-11.36-26.87h-7.13Zm14.87-18.11,3,7.59h-6Z"/><path class="cls-1" d="M1092,636.77a7.18,7.18,0,0,1,5.87,3.09l5.41-4.19a12.91,12.91,0,0,0-11.21-5.65A13.71,13.71,0,0,0,1078,643.9a14,14,0,0,0,25.57,7.85l-5.56-4c-1.6,1.94-3.24,3.24-6,3.24-3.74,0-6.37-3.13-6.37-7.13S1088.27,636.77,1092,636.77Z"/><path class="cls-1" d="M1136.71,636.77a7.15,7.15,0,0,1,5.87,3.09l5.42-4.19a12.92,12.92,0,0,0-11.21-5.65,13.71,13.71,0,0,0-14.06,13.88,14,14,0,0,0,25.57,7.85l-5.56-4c-1.6,1.94-3.24,3.24-6,3.24-3.73,0-6.36-3.13-6.36-7.13S1133,636.77,1136.71,636.77Z"/><path class="cls-1" d="M1181.84,630c-8.23,0-14.41,6.22-14.41,13.88s6.1,13.87,14.33,13.87,14.41-6.21,14.41-13.87S1190.07,630,1181.84,630Zm0,21.08a6.92,6.92,0,0,1-6.82-7.2c0-3.93,2.7-7.21,6.74-7.21a7,7,0,0,1,6.87,7.21C1188.63,647.82,1185.92,651.1,1181.84,651.1Z"/><polygon class="cls-1" points="1237.87 662.58 1244.12 662.58 1244.96 650.76 1241.95 650.76 1241.95 630.56 1234.55 630.56 1234.55 650.76 1225.44 650.76 1225.44 630.56 1218.05 630.56 1218.05 657.24 1237.87 657.24 1237.87 662.58"/><polygon class="cls-1" points="1290.05 657.24 1290.05 630.56 1283.15 630.56 1272.82 645.58 1272.82 630.56 1265.5 630.56 1265.5 657.24 1272.4 657.24 1282.73 642.22 1282.73 657.24 1290.05 657.24"/><path class="cls-1" d="M1310.66,657.24h7.78l1.91-4.77h10.29l1.94,4.77h7.93l-11.36-26.87H1322Zm14.87-18.11,3,7.59h-6Z"/><polygon class="cls-1" points="1387.2 662.58 1388.04 650.76 1385.03 650.76 1385.03 630.56 1377.63 630.56 1377.63 650.76 1368.52 650.76 1368.52 630.56 1361.13 630.56 1361.13 657.24 1380.95 657.24 1380.95 662.58 1387.2 662.58"/><polygon class="cls-1" points="1433.13 657.24 1433.13 630.56 1426.23 630.56 1415.9 645.58 1415.9 630.56 1408.58 630.56 1408.58 657.24 1415.48 657.24 1425.81 642.22 1425.81 657.24 1433.13 657.24"/><path class="cls-1" d="M1479.21,657.24V630.56h-12.62c-6.06,0-11.06,2.86-11.06,9.11a8.48,8.48,0,0,0,5.49,8.27l-6.36,9.3h8.54l5.37-8.08h3.24v8.08Zm-12.28-13.76c-2.51,0-4-1.34-4-3.28,0-2.17,1.52-3.35,4-3.35h4.84v6.63Z"/></svg>