<svg id="Layer_1" data-name="Layer 1" xmlns="http://www.w3.org/2000/svg" viewBox="0 0 1194 841.89"><defs><style>.cls-1{fill:#fff;stroke:#262424;stroke-miterlimit:10;stroke-width:1.11px;}.cls-2{fill:#32338e;}</style></defs><title>союз_театральных_деятелей_рф_фон</title><rect class="cls-1" width="1194" height="841.89"/><path class="cls-2" d="M470.44,240A25.74,25.74,0,0,1,452,232.53c-6.78-6.79-6.78-13.88-6.78-29.17s0-22.39,6.78-29.17a25.7,25.7,0,0,1,18.44-7.5c13,0,22.59,7.9,25,21.47h-7.9c-1.93-8.81-8.11-14.58-17.12-14.58A17.37,17.37,0,0,0,458,178.64c-4.56,4.66-5.06,9.63-5.06,24.72s.5,20,5.06,24.71a17.37,17.37,0,0,0,12.46,5.07c9,0,15.4-5.78,17.32-14.59h7.7C493.13,232.12,483.3,240,470.44,240Z"/><path class="cls-2" d="M558.26,203.36c0,14.38-.2,22.59-6.79,29.17a26.43,26.43,0,0,1-36.87,0c-6.58-6.58-6.78-14.79-6.78-29.17v-5.57c0-8.61.6-17.43,6.78-23.6a26.41,26.41,0,0,1,36.87,0c6.28,6.28,6.79,15.39,6.79,24.2Zm-7.7-3.85c0-8.51-.3-16-5.06-20.77a17.62,17.62,0,0,0-24.92,0c-5.07,5.07-5.07,12.56-5.07,22.49v7.19c0,7.8.41,14.89,5.07,19.55a17.6,17.6,0,0,0,24.92,0c5-5,5.06-12.76,5.06-21.07Z"/><path class="cls-2" d="M643,232.53a26.43,26.43,0,0,1-36.87,0c-6-6.08-6.79-12.86-6.79-26H584.09v32.92h-7.7V167.3h7.7v32.31h15.29c.11-11.45.41-19,6.79-25.42a26.41,26.41,0,0,1,36.87,0c5.77,5.87,6.79,13.67,6.79,22.68v6.49C649.83,219.46,649.32,226.15,643,232.53Zm-1-31.1c0-13.87-.91-18.53-5-22.79a17.51,17.51,0,0,0-12.45-5.06,17.18,17.18,0,0,0-12.46,5.06c-4.56,4.66-5.07,10.94-5.07,24.11v3.54c0,13,1.12,17.53,5.07,21.68a17.44,17.44,0,0,0,12.46,5.17A17.2,17.2,0,0,0,637.06,228c5-5.06,5-12.15,5-23.4Z"/><path class="cls-2" d="M661.68,218.55h7.6c1.92,8.91,8.3,14.69,17.32,14.69s15.9-5.27,15.9-13.88c0-9-5.27-13.47-14.69-13.47H678.7V199.2h9.42c8.4,0,13.27-4.65,13.27-13.06,0-8.21-5.78-12.76-14.69-12.76s-15.19,5.87-17.22,14.78h-7.7c2.33-13.57,12-21.47,25-21.47,12.86,0,22.28,7.4,22.28,19.14,0,7.8-3.54,13.27-10.43,16.41,7.5,2.74,11.55,8.51,11.55,17.32,0,12.56-10.33,20.46-24,20.46C673.73,240,664,232.12,661.68,218.55Z"/><path class="cls-2" d="M469.12,271.43v65.23h-7.7V271.43H440.56v-6.89H490v6.89Z"/><path class="cls-2" d="M503.46,336.66V264.54h44.77v6.89H511.16v25.42h31.6v6.89h-31.6v26h37.07v6.89Z"/><path class="cls-2" d="M606.27,336.66l-5.77-16.31H569l-5.78,16.31H555l26.54-72.12H588l26.43,72.12ZM584.9,275.58l-13.57,38.09h26.94Z"/><path class="cls-2" d="M641.32,271.43v65.23h-7.7V271.43H612.76v-6.89h49.42v6.89Z"/><path class="cls-2" d="M702.5,307H683.35v29.68h-7.69V264.54H702.5c13.37,0,22.28,8.51,22.28,21.17S715.87,307,702.5,307Zm-.71-35.55H683.35v28.66h18.44c9.62,0,15.29-5.37,15.29-14.38S711.41,271.43,701.79,271.43Z"/><path class="cls-2" d="M776.54,336.66l-5.77-16.31h-31.5l-5.78,16.31h-8.2l26.54-72.12h6.48l26.44,72.12Zm-21.37-61.08L741.6,313.67h26.94Z"/><path class="cls-2" d="M836.4,336.66V271.43H811.89v24.71c0,30.39-7.29,40.52-21.06,40.52h-3.65v-6.89h1.92c8.92,0,15.3-6,15.3-36V264.54h39.7v72.12Z"/><path class="cls-2" d="M892,336.66H865V264.54h7.7v29.68H892c13.48,0,22.29,8.51,22.29,21.27S905.38,336.66,892,336.66Zm-.7-35.55H872.67v28.66h18.64c9.62,0,15.19-5.27,15.19-14.28S900.93,301.11,891.31,301.11Z"/><path class="cls-2" d="M970.72,336.66V303.74H936.48v32.92h-7.7V264.54h7.7v32.31h34.24V264.54h7.7v72.12Z"/><path class="cls-2" d="M1026.33,336.66h-27V264.54h7.7v29.68h19.35c13.47,0,22.28,8.51,22.28,21.27S1039.7,336.66,1026.33,336.66Zm-.71-35.55H1007v28.66h18.64c9.62,0,15.19-5.27,15.19-14.28S1035.24,301.11,1025.62,301.11Zm32.61,35.55V264.54h7.7v72.12Z"/><path class="cls-2" d="M1121.74,336.66l-17.52-30.29-17.62,30.29h-8.71l22.08-37-20.67-35.15h8.92l16,28.46,16-28.46h8.91l-20.77,35.15,22.29,37Z"/><path class="cls-2" d="M446.53,427c6.59-10.33,9.12-23.29,9.12-40.92V361.78h39.4V427h8.61v24.31h-7.6V433.9H447.75v17.42h-7.6V427Zm40.82,0V368.67H462.94v22.18c0,13.37-2,26-7.8,36.16Z"/><path class="cls-2" d="M518.25,433.9V361.78H563v6.89H526v25.42h31.6V401H526v26H563v6.89Z"/><path class="cls-2" d="M583.28,433.9h-9l16.61-30.79c-9.52-2.33-15.49-9.83-15.49-20.16,0-12.86,8.91-21.17,22.28-21.17H624.5V433.9h-7.7V404.22H599Zm33.52-65.33H598.37c-9.62,0-15.29,5.37-15.29,14.38s5.67,14.38,15.29,14.38H616.8Z"/><path class="cls-2" d="M666.54,368.67V433.9h-7.7V368.67H638v-6.89h49.43v6.89Z"/><path class="cls-2" d="M700.88,433.9V361.78h44.77v6.89H708.58v25.42h31.6V401h-31.6v26h37.07v6.89Z"/><path class="cls-2" d="M801.66,433.9V368.67H777.15v24.72c0,30.38-7.29,40.51-21.07,40.51h-3.64V427h1.92c8.91,0,15.29-6,15.29-36V361.78h39.71V433.9Z"/><path class="cls-2" d="M830.23,433.9V361.78H875v6.89H837.92v25.42h31.61V401H837.92v26H875v6.89Z"/><path class="cls-2" d="M935,433.9V375.05L898.3,433.9H891V361.78h7.7v58.75l36.67-58.75h7.29V433.9Zm-18.13-76.68c-8.41,0-14.18-3.74-14.79-12.76h6.48c.41,5,3.35,7.5,8.31,7.5s7.9-2.53,8.31-7.5h6.48C931,353.48,925.24,357.22,916.83,357.22Z"/><path class="cls-2" d="M474.79,501.46H455.65v29.68H448V459h26.84c13.37,0,22.29,8.51,22.29,21.17S488.16,501.46,474.79,501.46Zm-.7-35.55H455.65v28.67h18.44c9.62,0,15.29-5.37,15.29-14.39S483.71,465.91,474.09,465.91Z"/><path class="cls-2" d="M559.47,495.08c0,14.39-.2,22.59-6.78,29.17a26.41,26.41,0,0,1-36.87,0c-6.59-6.58-6.79-14.78-6.79-29.17v-5.57c0-8.61.61-17.42,6.79-23.6a26.43,26.43,0,0,1,36.87,0c6.28,6.28,6.78,15.4,6.78,24.21Zm-7.69-3.85c0-8.51-.31-16-5.07-20.76a17.59,17.59,0,0,0-24.91,0c-5.07,5.06-5.07,12.56-5.07,22.49v7.19c0,7.8.4,14.89,5.07,19.55a17.61,17.61,0,0,0,24.91,0c5-5,5.07-12.77,5.07-21.07Z"/><path class="cls-2" d="M600.09,531.75a25.66,25.66,0,0,1-18.43-7.5c-6.79-6.78-6.79-13.87-6.79-29.17s0-22.38,6.79-29.17a25.7,25.7,0,0,1,18.43-7.49c13,0,22.59,7.9,25,21.47h-7.9c-1.92-8.81-8.1-14.59-17.12-14.59a17.37,17.37,0,0,0-12.46,5.07c-4.55,4.66-5.06,9.62-5.06,24.71s.51,20.06,5.06,24.72a17.37,17.37,0,0,0,12.46,5.06c9,0,15.4-5.77,17.32-14.58h7.7C622.78,523.85,613,531.75,600.09,531.75Z"/><path class="cls-2" d="M663.7,531.75a25.66,25.66,0,0,1-18.43-7.5c-6.79-6.78-6.79-13.87-6.79-29.17s0-22.38,6.79-29.17a25.7,25.7,0,0,1,18.43-7.49c13,0,22.59,7.9,25,21.47h-7.9c-1.92-8.81-8.1-14.59-17.12-14.59a17.35,17.35,0,0,0-12.45,5.07c-4.56,4.66-5.07,9.62-5.07,24.71s.51,20.06,5.07,24.72a17.34,17.34,0,0,0,12.45,5.06c9,0,15.4-5.77,17.33-14.58h7.69C686.39,523.85,676.57,531.75,663.7,531.75Z"/><path class="cls-2" d="M749.7,531.14V472.29L713,531.14h-7.29V459h7.7v58.75L750.1,459h7.3v72.12Z"/><path class="cls-2" d="M822.22,531.14V472.29l-36.66,58.85h-7.29V459H786v58.75L822.63,459h7.29v72.12Zm-18.13-76.67c-8.4,0-14.18-3.75-14.79-12.77h6.49c.4,5,3.34,7.5,8.3,7.5s7.9-2.53,8.31-7.5h6.48C818.27,450.72,812.5,454.47,804.09,454.47Z"/><path class="cls-2" d="M873.28,531.75a25.69,25.69,0,0,1-18.44-7.5c-6.78-6.78-6.78-13.87-6.78-29.17s0-22.38,6.78-29.17a25.72,25.72,0,0,1,18.44-7.49c13,0,22.58,7.9,25,21.47h-7.9c-1.92-8.81-8.1-14.59-17.11-14.59a17.37,17.37,0,0,0-12.46,5.07c-4.56,4.66-5.07,9.62-5.07,24.71s.51,20.06,5.07,24.72a17.37,17.37,0,0,0,12.46,5.06c9,0,15.39-5.77,17.32-14.58h7.69C896,523.85,886.14,531.75,873.28,531.75Z"/><path class="cls-2" d="M915.72,531.14V459h7.7v34.34L954.31,459H964l-31.6,34.24,34.34,37.88H956.54l-33.12-37.58v37.58Z"/><path class="cls-2" d="M1022.88,495.08c0,14.39-.2,22.59-6.78,29.17a26.41,26.41,0,0,1-36.87,0c-6.59-6.58-6.79-14.78-6.79-29.17v-5.57c0-8.61.61-17.42,6.79-23.6a26.43,26.43,0,0,1,36.87,0c6.28,6.28,6.78,15.4,6.78,24.21Zm-7.69-3.85c0-8.51-.31-16-5.07-20.76a17.59,17.59,0,0,0-24.91,0c-5.07,5.06-5.07,12.56-5.07,22.49v7.19c0,7.8.4,14.89,5.07,19.55a17.61,17.61,0,0,0,24.91,0c5-5,5.07-12.77,5.07-21.07Z"/><path class="cls-2" d="M1085,531.14V472.29l-36.67,58.85H1041V459h7.69v58.75L1085.38,459h7.29v72.12Zm-18.13-76.67c-8.41,0-14.19-3.75-14.79-12.77h6.48c.4,5,3.34,7.5,8.31,7.5s7.89-2.53,8.3-7.5h6.48C1081,450.72,1075.25,454.47,1066.85,454.47Z"/><path class="cls-2" d="M473.17,628.79v-9.32c-21.27-.71-30.08-10.94-30.08-29.78s9.22-28.56,30.08-29.27v-6.79h7.7v6.79c20.87.71,30,10.43,30,29.27s-8.71,29.07-30,29.78v9.32Zm0-61.79c-17.42.41-22.38,8.92-22.38,23s5.47,22.49,22.38,22.9Zm7.7,45.89c16.82-.41,22.29-8.82,22.29-22.9s-5-22.58-22.29-23Z"/><path class="cls-2" d="M526.86,628.38V556.27h44.77v6.88H534.56v25.43h31.6v6.88h-31.6v26h37.07v6.89Z"/><path class="cls-2" d="M586.22,621.49c6.58-10.33,9.11-23.29,9.11-40.92v-24.3h39.4v65.22h8.61V645.8h-7.59V628.38H587.43V645.8h-7.59V621.49Zm40.82,0V563.15H602.63v22.19c0,13.37-2,26-7.8,36.15Z"/><path class="cls-2" d="M657.93,628.38V556.27H702.7v6.88H665.63v25.43h31.6v6.88h-31.6v26H702.7v6.89Z"/><path class="cls-2" d="M745.55,598.71H726.4v29.67h-7.7V556.27h26.85c13.37,0,22.28,8.5,22.28,21.16S758.92,598.71,745.55,598.71Zm-.71-35.56H726.4v28.67h18.44c9.62,0,15.29-5.37,15.29-14.39S754.46,563.15,744.84,563.15Z"/><path class="cls-2" d="M819.59,628.38l-5.77-16.3h-31.5l-5.78,16.3h-8.2l26.54-72.11h6.48l26.44,72.11Zm-21.37-61.07-13.57,38.08h26.94Z"/><path class="cls-2" d="M890,645.8V628.38H839.45V556.27h7.69v65.22h34.14V556.27H889v65.22h8.6V645.8Z"/><path class="cls-2" d="M956.13,628.38V569.53l-36.66,58.85h-7.3V556.27h7.7V615l36.67-58.74h7.29v72.11Z"/><path class="cls-2" d="M1028.66,628.38V569.53L992,628.38H984.7V556.27h7.69V615l36.67-58.74h7.29v72.11Z"/><path class="cls-2" d="M161.35,443.59C-7.91,522.59,64.86,170.81,218,180.05c15.76.59,30.7,3.1,47.6,13.7,1.91-3.05,3.81-6.1,5.73-9.15-106.91-35.54-186.12,31-209.81,125.56-21.43,85.59,2.75,149.3,52.72,151.3,20.35.81,52.45-8.51,72.53-30.95h-8.93c-1,1.66-9.26,9.56-16.5,13.08"/><path class="cls-2" d="M253.53,220.56c-46.41,7.86-60.44-2.49-87.73,1.31-49.51,6.89-44,46.09-35.6,52.32,17.26,12.9,47.67-28.77,47.67-28.77l-3.81-2c-7.37,13.83-39.16,39.48-39.16,19.49,0-31.31,42-36.21,67.13-33.88-39.11,50-43.64,166.64-66.12,189.67-5.11,5.24-12.71,2.61-12.71,2.61l-3.82,5.22a62.17,62.17,0,0,0,14-1.29c31.88-6.93,47.52-155,73.75-196.86h14.62C199.37,265,178.26,403,157.59,420c25-12.36,37.37-1.95,62.24-3.25,85.65-4.45,94.73-88.29,96.65-102.68s6.39-67.79-41.48-98.47l-.17-.1c-36.2-21.49-75.34-2.15-75.34-2.15l2.54,2c17.56-8.46,104.27-17.75,104.27,83.06,0,25.28-14,118.44-108.31,113.16,40.74-80.71,33.95-141.06,55.54-191M182.65,411.08a74.91,74.91,0,0,0-10.49.46c28.28-50.12,32.36-116.5,56.25-182.94l15.59-.85c-18.48,41.62-36.95,183.33-61.35,183.33"/><path class="cls-2" d="M94.65,378.5c0-5.36-5.5-5.72-7.5-5.72h-7.4V396h7.11c7.6,0,8.86-4,8.86-6.52A5.39,5.39,0,0,0,91,383.89v-.07a5.11,5.11,0,0,0,3.66-5.32m-10.33-2.09h2c3.31,0,3.69,1.92,3.69,2.89s-.41,2.88-3.51,2.88H84.32Zm2.54,15.9H84.32v-6.5h2.54c.84,0,4,0,4,3.25,0,1.89-1.39,3.25-4,3.25"/><polygon class="cls-2" points="108.01 395.95 108.01 376.88 114.51 376.88 114.51 372.78 96.94 372.78 96.94 376.88 103.44 376.88 103.44 395.95 108.01 395.95"/><path class="cls-2" d="M126.29,396.21c6.26,0,11-4.14,11-11.86s-4.77-11.83-11-11.83-11,4.12-11,11.83,4.76,11.86,11,11.86m0-20.4c2.34,0,6.2,1.26,6.2,8.54s-3.86,8.55-6.2,8.55-6.21-1.27-6.21-8.55,3.85-8.54,6.21-8.54"/></svg>